<?xml version="1.0" encoding="UTF-8" standalone="no"?>
<svg
   width="748.82812"
   height="552.0127"
   viewBox="-810 0 748.82812 552.0127"
   version="1.2"
   id="svg46"
   sodipodi:docname="doublewell.svg"
   inkscape:version="1.2.2 (b0a8486541, 2022-12-01)"
   xmlns:inkscape="http://www.inkscape.org/namespaces/inkscape"
   xmlns:sodipodi="http://sodipodi.sourceforge.net/DTD/sodipodi-0.dtd"
   xmlns="http://www.w3.org/2000/svg"
   xmlns:svg="http://www.w3.org/2000/svg"
   xmlns:rdf="http://www.w3.org/1999/02/22-rdf-syntax-ns#"
   xmlns:cc="http://creativecommons.org/ns#"
   xmlns:dc="http://purl.org/dc/elements/1.1/"><defs
   id="defs50" />
<sodipodi:namedview
   id="namedview48"
   pagecolor="#ffffff"
   bordercolor="#666666"
   borderopacity="1.0"
   inkscape:showpageshadow="2"
   inkscape:pageopacity="0.0"
   inkscape:pagecheckerboard="0"
   inkscape:deskcolor="#d1d1d1"
   showgrid="false"
   inkscape:zoom="0.10925926"
   inkscape:cx="530.84746"
   inkscape:cy="677.28814"
   inkscape:window-width="1854"
   inkscape:window-height="1131"
   inkscape:window-x="0"
   inkscape:window-y="0"
   inkscape:window-maximized="1"
   inkscape:current-layer="svg46" />
<title
   id="title2">Biortc</title>
\n<rect
   style="fill:#ffffff;stroke-width:3.77953;stroke-linecap:round;stroke-linejoin:round;stop-color:#000000"
   id="rect385"
   width="748.82812"
   height="552.0127"
   x="-810"
   y="0"
   ry="0.29955569" />
<g
   id="g8"
   transform="translate(-283.55005,-399.88745)">
  <path
     fill="#304ae0"
     fill-rule="evenodd"
     d="m -130,793.75 -2.5,0.25 -1,-1 -1,1 -12.25,-2.25 -0.25,-1.25 -1,-1 0.5,-0.5 1.5,-0.25 13,-0.125 4.5,-0.625 1.5,-1.5 2.5,-21.5 2.25,-10 0.625,-2 0.625,-3.5 1,-1 -0.5,-0.5 -7,-1 -1,-1 -1,1 -1,-1 -1,1 -1,-1 h -4 l -1.5,-1.5 v -2 l 1.5,-1.5 15,2 1,-1 1,1 h 28 l 1,-1 0.5,0.5 0.875,6.5 H -107.5 l -1,-1 -1,1 -6.25,0.125 -0.75,3.875 -1.875,6 -1.875,11 -0.75,16.875 5.5,0.125 1,-1 1,1 1,-1 11.5,-1.625 2.75,-0.125 1.25,4.25 -2.5,2.5 h -5 l -1,-1 -1,1 -23.5,2.75"
     id="path6" />
</g>
<g
   id="g12"
   transform="translate(-283.55005,-399.88745)">
  <path
     fill="#c23132"
     fill-rule="evenodd"
     d="m -183.5,718 2,-2 9,-5 4.5,-4.5 -0.25,-3.25 -5.25,-1.25 -2,-2 h -1 l -3,-3 -0.5,0.5 -0.5,3.5 -1,3 -2.5,11.5 -1,1 1.5,1.5 m 11.5,-1 -5,2.5 -6,3.875 -3.5,0.625 -1,1 -1.5,-1.5 -0.25,-1.5 -0.25,-7 4,-16 v -4 l -3.25,-10 -0.25,-1.5 -2,-2 v -2 l -3,-3 v -1 l -3,-3 v -2 l -2,-2 -0.5,-1.5 -2.5,-4.5 -10,-13 -2,-3 -1.5,-1.5 -3,-1 -2,-2 h -2 l -2,-2 -1.5,-0.5 -2,-1 -1.5,-0.5 -3,-3 -1,1 -1,-1 -1.5,-0.5 -2,-1 -1.75,-0.75 v -3.625 l 5.75,0.5 5.5,1.375 2,2 1.5,0.5 11.5,5.5 7.5,7.5 1.5,2.5 7.5,9.5 5.5,10.5 5,7 3.875,8 1.125,4 0.5,3.5 0.5,0.5 1,-1 h 1 l 1.5,1.5 v 1 l 3.5,3.5 1.5,0.5 5,2.125 1.5,0.375 1.5,1.5 0.5,2.5 v 3 l -0.5,2.5 -4,4.5 h -0.5 l -0.5,0.5 v 0.5 h -1.5 l -1.5,1.5 v 0.5 m -12,2 v -1 h -1 v 1 h 1"
     id="path10" />
</g>
<g
   id="g16"
   transform="translate(-283.55005,-399.88745)">
  <path
     fill="#304ae0"
     fill-rule="evenodd"
     d="m -265.5,644 0.5,-1 h -1.5 l -0.5,1 h 1.5 m 294,-2 0.5,-1 h -2.5 l -0.5,1 h 2.5 m -102,182 4.5,-4.5 6,-8 3.5,-5.5 1.875,-4 5,-14 0.875,-6 v -21 l -0.75,-5 -3.125,-10 -5.375,-10.5 -7.25,-10.25 -2.25,-1.25 -12,-10 -6.5,-4.375 -9,-4 -8,-2.125 -5,-0.75 h -18 l -6,0.875 -10,3 -9,3.875 -8.5,5.5 -2,1 -9.5,9.5 -7.5,11.5 -3.875,8 -3,10 -0.875,6 v 20 l 0.875,6 1.875,7 1.125,3 5.375,10.5 4.5,6.5 1.5,2.5 6.5,6.5 3,2 4,3 5.5,3.5 8,3.875 9,3 12,2.125 h 10 l 8,-1.125 12,-3 10,-4.875 5.5,-3.5 4,-3 3,-2 M -169,715 h 0.5 l 0.5,-0.5 V 714 h 1.5 l 3,-3 5.5,-3.5 13,-6 7,-1.875 5,-0.875 h 22 l 6,0.75 8,2.125 8,3 1.5,0.375 2,2 h 2 l 3,3 1.5,0.5 3,2 4,3 2.5,1.5 1.5,1.5 2,3 3.5,4.5 6,9 1,2 0.5,1.5 1.5,1.5 1,-1 7.5,-0.75 17,-5.75 2.5,-0.5 2,-2 4.5,-2.5 3,-2 20.5,-17.5 9.5,-9.5 1,-2 5,-7 4.375,-8.5 3.125,-8 0.875,-3 2.25,-15 0.125,-4 L 22,650.25 18.5,649 16,646.5 15.75,645 v -5 l 0.25,-1.5 7.5,-7.5 2.5,-0.5 4,0.125 2,0.875 1.5,0.5 3.5,3.5 0.5,1.5 0.875,2 0.125,4 -0.5,2.5 -4,4 -2.75,22.5 -2.875,8 -2.75,6 -0.625,2.5 -2,2 -1,2 -4.5,6.5 -1.5,2.5 -9.5,9.5 h -1 L 3,713.5 v 1 l -1.5,1.5 -3,2 -12,10 -3,3 h -2 l -2,2 -1.5,0.5 -16,6 -7,1.875 -6.75,0.75 0.25,3.875 3,10 0.75,6 v 19 l -0.75,6 -2,7 -5,13 -7.5,11.5 -11,11 0.5,0.5 4.5,0.75 1.75,0.5 1.5,3.75 0.125,7 -0.875,3 -0.5,3.5 -3,3 1,1 6,8 4,4 0.625,2.5 2.875,7 4,18 v 6 l -1.5,6.5 -2,2 v 1 l -2,2 v 2 l -4.5,4.5 -3,2 -4,3 -2,1 -2,2 -2.5,0.625 -6,2.75 -3,1 -5,1.125 -6.5,0.5 -1,1 -1,-1 -1,1 -20.5,0.25 -3,-0.875 -4,-1.75 -2.5,-0.625 -2,-2 -1.5,-0.5 -4.5,-2.5 -8,-6 -6.5,-6.5 v -1 l -7.5,-7.5 -1.25,-0.25 -6.25,-8.25 -1.375,-2.5 -2.125,-6 -0.75,-4 v -17 l 1,-5 1.875,-5 3.875,-7 0.5,-1.5 6.5,-6.5 h 2.5 l -0.5,-1 -1.5,-0.5 -8.5,-5.5 -4,-3 -3,-2 -2.5,-2.5 v -1 l -1.5,-1.5 h -1 l -1.5,-1.5 -1.5,-2.5 -5.5,-7.5 -3.375,-6.5 -4.125,-11 -0.875,-3 -1,-6 -0.625,-12.5 -1,-1 1,-1 0.5,-8.5 1.5,-7.5 -0.5,-0.5 -1,1 -2.25,-0.25 -1.25,-4.25 -1.5,-1.5 -2.5,-1.5 -4,-3 -3,-2 -6.5,-3.5 -7.5,-7.5 -1,-3 -2.5,-2.5 h -1 l -7.5,-7.5 -4.375,-8.5 -2.125,-5 -2.5,-4.5 -3.5,-5.5 -7.75,-23 -1.75,-17.5 -1,-1 1,-1 -1,-4 -0.5,-0.5 -2,2 -2.5,0.375 -6,-0.125 -1.5,-0.25 -2.5,-2.5 0.75,-4.5 0.75,-2 4.5,-6.5 6.5,-6.5 3.5,-1.25 h 7 l 1.5,0.25 5.5,5.5 0.25,1.5 0.125,6 -1,3 -1.625,3.75 -1.5,0.5 -0.5,1.5 -5.25,1.25 -0.5,0.5 1,1 -1,1 0.375,6.5 1.5,12 0.5,2 4.125,14 2,5 5,9 0.5,1.5 2,2 0.625,2.5 2.875,6 3.5,5.5 3.5,3.5 h 1 l 4.5,4.5 2,4 5.5,5.5 6.5,3.5 7.5,5.5 5.5,5.5 0.25,2.25 h 1.5 l 0.75,-3.75 2,-5 5.5,-10.5 2,-3 8.25,-10.25 1.5,-0.5 0.25,-1.75 h 1.5 l 1.5,-1.5 V 715 m 64,212.5 20,-3 4,-1.125 11.5,-6.375 4,-3 3,-2 1.5,-1.5 0.5,-1.5 3,-5 0.875,-2 1,-3 v -7 l -3.875,-17 -3,-7 -5.5,-7.5 -5.5,-5.5 -1,1 -1.5,0.375 -3.5,0.625 -2,2 h -3 l -1,1 -1,-1 -4,-2 -1.5,-1.5 -0.5,-3.5 v -4 l 1.875,-5 0.625,-2.5 1,-1 -0.5,-0.5 -1.5,0.5 -4,1.875 -11,3.125 -6,0.75 h -19 l -6,-0.75 -8,-2.125 -2,-0.875 -1.5,-0.5 -1,-1 -0.5,0.5 v 1 l -1.5,1.5 h -2 l -6.5,6.5 -0.5,1.5 -1,2 -0.5,1.5 -2,2 -1.125,5.5 -0.125,20 0.875,4 0.75,2 0.625,2.5 5,5 v 1 l 5.5,5.5 1.25,0.25 3.5,5.5 1.5,0.5 0.25,1.25 2.5,2.5 3,2 8.5,6.5 7,3.875 5,2 4,0.875 11,0.25 m 33.5,-92.5 0.5,-1 h -2.5 l -0.5,1 h 2.5 m -9,12 1.5,-1.5 v -1 l -1.5,-1.5 -0.5,0.5 -0.5,1.5 -0.25,1.75 1.25,0.25 M -70,836 v -1 h -1 v 1 h 1 m 1,2 v -1 h -1 v 1 h 1 m -2,6 v -1 h -1 v 1 h 1"
     id="path14" />
</g>
<g
   id="g20"
   transform="translate(-283.55005,-399.88745)">
  <path
     fill="#c23132"
     fill-rule="evenodd"
     d="m 59.5,580 h -5 l -1,1 -1,-1 -6.5,1.25 -15.5,0.75 -3.5,-3.5 0.75,-4.5 0.75,-2 7,-11 0.75,-2 v -5 l -0.5,-1.875 -4.75,0.625 -1.75,0.5 -0.25,1.25 -2.5,2.5 -1.25,-0.25 0.25,-2.75 0.75,-2.75 4.75,-2.5 5.5,-0.75 3.5,3.5 1,4 1,1 -1,1 -0.625,2.5 -0.875,2 -2.5,4.5 -2,2 v 2 l -4,4 v 2 l 1.5,1.5 9.5,-0.5 7,-1 10,0.25 1.75,0.5 0.25,1.25 -1.5,1.5"
     id="path18" />
</g>
<g
   id="g24"
   transform="translate(-283.55005,-399.88745)">
  <path
     fill="#c23132"
     fill-rule="evenodd"
     d="m -263.5,579 -3.25,-0.25 -1.5,-3.75 -0.25,-9 1.125,-6 -0.125,-7 0.5,-2.5 2.5,-2.5 1.5,1.5 -0.375,2.5 v 8 l -1.125,5 -0.375,6.75 1.375,0.25 1.5,1.5 v 4 l -1.5,1.5"
     id="path22" />
</g>
<g
   id="g28"
   transform="translate(-283.55005,-399.88745)">
  <path
     fill="#c23132"
     fill-rule="evenodd"
     d="m 27.5,567 -1,-1 -1,1 h -18 l -1,-1 -1,1 -1,-1 -7,1 -1,-1 -1,1 h -1 l -1,-1 -1,1 -3,-1 -3.5,-3.5 -0.375,-1.5 -1.25,-3 -0.125,-2 1.5,-7 -0.25,-2 -0.5,-1.5 2,-2 0.5,-4.5 1.875,-9 0.625,-6.5 1,-1 -0.5,-0.5 -2.25,-0.25 -0.25,-1.25 1.5,-1.5 h 1 l 2.5,-2.5 0.25,-1.25 h 2.5 l 0.5,1.5 2.75,-0.125 29.5,-5.625 1,-1 1.5,1.5 -0.125,4.375 L 18,517.5 l -4,1 -18.75,2.625 -3.125,20.625 H 0 l 1.5,0.25 1,-1 1,1 1,-1 h 6 l 4,-4 2.375,0.25 0.125,4.25 -2.5,2.5 -5.5,1.375 -16,0.375 -1.75,0.5 -1.75,6.75 0.25,6 0.25,1.5 1.5,1.5 h 32.25 l 0.5,-3.75 2.25,-0.25 3.5,3.5 -1,4 -1.5,1.5"
     id="path26" />
</g>
<g
   id="g32"
   transform="translate(-283.55005,-399.88745)">
  <path
     fill="#c23132"
     fill-rule="evenodd"
     d="m -299,568.75 -1.5,0.25 -1,-1 -1,1 h -9 l -2.5,-2.5 0.625,-10.5 4.875,-29 -0.5,-11.5 2.5,-2.5 4.5,-1.25 17,-0.25 12.5,-1.5 1.5,1.5 v 3 l -1.5,1.5 -25.5,-0.875 -6,1.125 -0.75,17.5 9.75,-1.25 11,-2.875 4.5,-0.625 3,-3 h 1 l 2.5,2.5 -1.25,4.25 -1.25,0.25 -1,1 -1,-1 -1,1 -13.5,2.5 -4,1 -9.75,1.75 -3.625,18.75 -0.5,6.875 6.875,-0.375 26.75,-4.75 0.25,-2.25 -1,-1 0.5,-0.5 h 1 l 1,-1 5.5,5.5 -0.125,5.25 -12.875,-0.25 -12,2 -5,1.25"
     id="path30" />
</g>
<g
   id="g36"
   transform="translate(-283.55005,-399.88745)">
  <path
     fill="#c23132"
     fill-rule="evenodd"
     d="m 55,615.5 8,-5 4,-3 2.5,-1.5 8.5,-8.5 2,-3 3.5,-4.5 2,-3 3.875,-7 3.125,-8 3,-11 0.875,-6 v -16 l -1.875,-12 -3,-9 -0.5,-2.5 -2,-2 -0.625,-2.5 -1.375,-2.5 -2,-3 -7.5,-9.5 -2.75,-3.75 -1.5,-0.5 -0.5,-1.5 -8.75,-6.75 -8,-5 -1.5,-0.5 -2,-2 -2.5,-0.625 -5,-1.875 -10,-2.875 -6,-0.875 -19,-0.125 -15,2.875 -13,6 -8.5,5.5 -2,1 -12.5,12.5 -1.5,2.5 -4.5,6.5 -3.5,6.5 -4,10 -2.5,10.5 -1,1 1,1 -1,1 0.75,19.5 1.75,11 4,11 6.5,11.5 3,4 2,3 9.5,9.5 6.5,4.5 5,3 1.5,0.5 2,2 2.5,0.625 7,2.875 7,2 9.5,1.5 1,1 1,-1 16.5,0.375 6,-0.875 14,-4.125 4,-1.875 2,-1 m -262,3.75 1.5,-0.25 0.5,-0.5 -4,-4 0.625,-2.5 0.875,-2 v -2 l -2.125,-5 -0.375,-1.5 -1,-1 1,-1 v -1 l -1.5,-1.5 -0.5,0.5 -2,3 -3,4 -7,11 -1.25,2.25 -1.25,0.25 -0.5,1 20,0.25 M -221,600 h 0.5 l 3.5,-3.5 V 595 l 5.5,-5 h 4 l 1.5,1.5 1.75,9.5 1.5,4 v 8 l 0.25,2 0.75,1.75 2.75,-0.375 1.5,-0.375 1.5,1.5 v 2 l -1,1 1,1 3,5 3.5,3.5 2.5,0.625 8.5,6.375 2,2 2.5,0.625 5,1.75 14,3.125 6,1.75 31,-1 5,-0.75 17,-5 8,-3 3.5,-0.5 2,-2 2.5,-0.625 2.5,-1.375 3,-2 8,-6 2,-1 14.5,-14.5 4.375,-6.5 0.625,-2.5 -2,-2 -1.5,-2.5 -2.5,-3.5 -6.5,-11.5 -2,-5 -2.875,-11 -1,-8 0.125,-19 0.75,-6 3,-12 2,-5 1.875,-4 0.625,-2.5 2,-2 0.5,-1.5 1.5,-2.5 5.5,-7.5 1.5,-2.5 6.5,-6.5 1.25,-0.25 0.5,-1.5 2.75,-1.75 4,-3 3,-2 1.5,-0.5 3,-3 2.5,-0.625 9,-3.75 15,-4 8.5,-0.625 1,-1 1,1 h 2 l 1,-1 1,1 11.5,0.75 13,2.875 12,4.875 10,6 7.5,5.5 9,9 0.5,-0.5 0.375,-1.5 2.625,-6.5 9.5,-9.5 5.5,-3.5 8,-3 8,-2 5,-0.875 15.5,0.375 2,2 7.25,5.25 11.25,15.25 4.375,7.5 4.125,16 1.5,13.5 1,1 -1,1 v 5 l 1,1 -1,1 -0.625,11.5 -1.125,6 -1.75,6 -2.875,7 -0.625,2.5 -2,2 -0.625,2.5 -0.75,2 -0.625,2.5 -2,2 -1,4 -2,2 -0.5,1.5 -6.5,8.5 -4.5,4.5 -6.5,3.5 -2,0.75 -9.5,0.75 -2.5,-2.5 -0.25,-1.5 -8.75,0.5 -15.5,2.5 -4.5,-4.5 0.5,-1.5 3,-5 7.5,-18.5 1.5,-1.5 3.5,0.625 1.75,0.625 0.25,1.25 4,4 v 2 l 2,2 2,4 1.5,1.5 h 1 l 1.5,1.5 v 1 l 3,3 0.125,5.25 3.375,0.25 1,1 1,-1 2.5,-0.625 2,-0.875 1.5,-0.5 7.5,-7.5 0.25,-1.25 1.5,-0.5 3.75,-5.75 0.875,-2 0.625,-2.5 2,-2 0.375,-1.5 2.125,-5 6,-15 1,-4 0.75,-5 v -23 l -1.875,-11 -2.875,-10 -0.5,-3.5 -2,-2 -0.5,-1.5 -1.5,-2.5 -5.5,-7.5 -1.5,-2.5 -6.5,-6.5 h -1 l -3,-3 h -2 l -1,-1 -1,1 -1,-1 -13.5,1.625 -4,0.875 -9,3.125 -5.5,3.375 -1.5,1.5 -0.25,1.25 -1.5,0.5 -4.75,6.75 -0.875,2 -0.625,2.5 -3,3 1,1 0.5,1.5 5.875,11 6.125,18 0.75,6 v 24 l -0.75,5 -3,10 -3.125,8 -4.875,9 -2,3 -7.5,9.5 -4.5,4.5 -7.5,5.5 -8.5,5.5 -2.5,1.375 -2.5,0.625 -2,2 -2.5,0.5 -8,2.875 -5,1.125 -4.5,0.5 -1,1 -1,-1 -1,1 h -3 l -1,1 -1,-1 h -2 l -1,1 -1,-1 -1,1 -4,-1 -1,1 -1,-1 -15.5,-2.5 -4,-1.125 -7,-2.875 -4,-1.875 -2.5,-0.625 -2,-2 h -1 l -1,-1 -0.5,0.5 v 2 l -1.5,1.5 -1.5,0.5 -13.5,7.5 -3,2 -2,1 -3.5,3.5 -18.5,20.5 -3,4 -6,13 -1.5,5.5 0.5,0.5 2,-2 4.25,1.25 0.75,1.75 -0.125,4 2.25,6 0.375,1.5 1.5,1.5 h 1 l 1.5,1.5 0.5,2.5 -0.125,3 -0.375,1.5 -2.5,2.5 -27,-3 -2.5,-2.5 v -3 l 5,-5 3,-5 4,-4 0.625,-7.5 1,-4 3,-7 0.375,-1.5 2,-2 0.625,-2.5 4.375,-6.5 24.5,-24.5 1.5,-0.5 5,-2.875 2.5,-0.625 2,-2 1.5,-0.5 6,-3 1.5,-0.5 0.5,-0.5 -3.5,-3.5 -6.25,-4.25 -0.5,-1.5 -3.25,-1.25 -1.5,1.5 -4,6 -12.5,12.5 -1.5,0.5 -11.5,8.5 -2.5,1.5 -1.5,0.5 -2,2 -2.5,0.625 -8,2.875 -2.5,0.5 -2,2 -3.5,0.5 -18,5 -4.5,0.5 -1,1 -1,-1 -27.5,0.25 -25,-5.75 -3,-1.125 -6.5,-4.375 -2,-1 -1.5,-1.5 -0.25,-1.25 -4.25,-1.25 -2,-2 h -1 l -1.5,-1.5 -0.5,-1.5 -2.5,-4.5 -1.5,-1.5 -5.5,1.375 -21,0.375 -10.5,1.25 -1.5,-1.5 v -2 l 13,-13 0.5,-1.5 1,-2 0.5,-1.5 2,-2 V 601 h 0.5 l 0.5,-0.5 V 600 m 321,-2.5 3.5,-0.5 1,-1 1,1 1,-1 11.25,-1.25 -0.25,-1.75 -0.75,-1.75 -1.25,-0.25 -2.5,-2.5 -3.5,-5.5 -1,-2 -0.5,-1.5 -1.5,-1.5 -1.25,0.25 -4.625,11.75 -0.625,2.5 -2,2 v 1 l -2,2 0.5,0.5 3.5,-0.5 M -227,620 v -1 h -1 v 1 h 1 m 156.5,78 0.5,-0.5 -1.5,-1.5 -1.25,-0.25 -2.625,-5.75 -0.625,-3.5 -2,-2 v -2 l -1,-0.5 v 0.5 l -0.5,1.5 -1,2 -0.75,1.75 -1.25,0.25 -2.5,2.5 -3,5 1.5,1.5 1.5,-0.375 3,-0.25 5,1.375 4,-0.375 2.5,0.625"
     id="path34" />
</g>
<g
   id="g40"
   transform="translate(-283.55005,-399.88745)">
  <path
     fill="#c23132"
     fill-rule="evenodd"
     d="m -264,620.375 6,-1.875 3.5,-0.5 2,-2 1.5,-0.375 5,-2.125 8.5,-5.5 2,-1 12.5,-12.5 2,-3 3,-4 5.375,-9.5 3.125,-8 1.875,-7 2.25,-16 0.125,-4 -2.25,-16 -3.125,-10 -4.875,-10 -2,-3 -11.75,-14.75 -8.75,-6.75 -3,-2 -4.5,-2.5 -2,-2 -2.5,-0.625 -9,-3.75 -8,-2.125 -5,-0.875 -12.5,-0.625 -1,-1 -1,1 -13.5,1.5 -8,2.125 -11,4.875 -8,5 -4.5,3.5 -3,2 -7.5,7.5 -2,3 -3,4 -2,3 -4.5,8.5 -2,5 -3,10 -2,12 v 11 l 1,7 3,12 3,8 4,7 2,3 3,4 1.5,2.5 9.5,9.5 3,2 4,3 5.5,3.5 8,3.875 9,3.125 8,1.875 7.5,0.625 1,1 1,-1 1,1 21.5,-2.625 M -50,478.5 l 4,-3 2.5,-1.5 2,-2 h 2 l 2,-2 3,-1 2.5,-2.5 -2.5,-2.5 -4.5,-2.375 -4,-1.25 -4,-1.75 -2.5,-0.625 -1,-1 -0.5,0.5 -1.375,4.5 -0.625,6.5 -1,1 1,1 -1,1 0.625,5.5 0.625,2.75 2.75,-1.25 M -222,601 h -0.5 l -7,7 -3,2 -4,3 -5.5,3.5 -1.5,0.5 -2,2 h -2 l -2,2 -2.5,0.5 -10,3.75 -5,1.25 -4.5,0.5 -1,1 -1,-1 -1,1 -18.5,-0.75 -11,-1.75 -7,-2 -5,-2 -13,-7 -3,-2 -4,-3 -2.5,-1.5 -6.5,-6.5 -7,-9 -3.5,-5.5 -6.875,-15 -2,-7 -2.375,-16 v -2 l 0.75,-4.5 -1,-1 1,-1 0.625,-8.5 2.875,-12 2.125,-6 4.875,-10 5.5,-8.5 3,-4 2,-3 1.5,-1.5 1.25,-0.25 0.5,-1.5 9.75,-7.75 2.5,-1.5 2,-2 h 2 l 2,-2 1.5,-0.5 11,-4.875 8,-2.125 10.5,-1.5 1,-1 1,1 1,-1 h 1 l 1,1 1,-1 3.5,0.625 4,-0.375 13,2.25 8,2.125 10,3.875 2,1 1.5,0.5 2,2 0.5,-0.5 0.5,-2.5 2.125,-6 3.625,-5.75 18.25,-13.25 13.5,-8.5 11,-4.875 24,-6.25 12,-3.875 5,-1 36.5,-2.5 1,1 1,-1 h 2 l 1,1 1,-1 1,1 1,-1 1,1 1.5,0.375 3,1.25 1.5,0.375 1,1 1,-1 2,2 h 4 l 2,2 1,-1 h 1 l 3,3 3.5,0.625 5,2 1.5,0.375 3,3 1,-1 4,4 1.5,0.5 2,1 1.75,0.75 0.5,1.5 1.25,0.25 1.5,1.5 2,4 2.5,2.5 0.5,-0.5 0.25,-1.25 3.25,-0.25 1.5,1.5 1.25,3.25 8.75,3.625 3.5,0.625 2,2 4,2 3.5,3.5 v 5 l -5.5,5.5 h -2 l -2,2 h -2 l -2,2 -2,1 -7.5,5.5 -4,1.875 -2.5,0.625 -1.5,-1.5 -0.5,-1.5 -1,-2 -0.5,-1.5 -1,-1 1,-1 v -1 l -1,-1 1,-1 v -1 l -1,-1 1,-1 v -3 l -1,-1 1,-1 v -3 l 1,-1 -1,-1 1,-1 1,-6 -2,-2 -0.25,-1.25 -1.5,-0.5 -0.75,-1.75 -1,-2 -0.75,-1.75 -2.75,-1.75 -4,-3 -3,-2 -22,-9 -4,-1.125 -5,-1.875 -8,-2.25 -1.5,-0.25 -1,1 -1,-1 -15,1 -1,1 -1,-1 -10.5,0.625 -17,2.875 -31,9 -5,2 -30.5,18.5 -7.5,7.5 -0.5,1.5 -2.875,6 -0.375,2.75 1.75,0.75 7.5,5.5 9.5,9.5 0.25,1.25 1.5,0.5 0.25,1.25 2,2 v 2 l 2,2 v 1 l 2,2 0.625,2.5 6.875,18 1.875,11 v 18 l -1.875,11 -2,7 -3.125,8 -4.875,9 -0.5,1.5 -3,3 v 1.5 h -0.5 l -3.5,3.5 v 1.5 h -0.5 l -0.5,0.5 v 0.5"
     id="path38" />
</g>
<g
   id="g44"
   transform="translate(-283.55005,-399.88745)">
  <path
     fill="#c23132"
     fill-rule="evenodd"
     d="m -393,601.5 -1,3 -1.5,1.5 -5.5,3.5 -2,0.875 -3,0.875 -9,0.125 -4,-1 -2,-0.875 -4.5,-2.5 -2.5,-2.5 -2,-3 -3,-4 -4,-6 -1.25,-2.25 -1.5,-0.5 -0.875,-2.75 -2.75,-5 -4.125,-13 -0.875,-7 0.375,-20.5 1,-1 -1,-1 1,-1 0.5,-3.5 4,-14 7.125,-18 2.875,-5 0.875,-2 0.625,-2.5 2,-2 1,-3 11.5,-11.5 2.5,-0.625 4,-1.625 7,-0.125 4,0.875 15,5.125 2,0.875 7,4 1.5,0.5 1.5,1.5 0.25,1.25 6.25,4.25 4.5,4.5 0.25,1.5 v 7 l -0.5,1.75 h -3.5 l -0.25,-1.25 -1,-1 1,-1 v -3 l -5.5,-5.5 -3,-2 -4,-3 -2.5,-1.5 -1.5,-0.5 -3,-3 -2.5,-0.5 -7,-2.125 -4,-1.75 -4,-1 -7,0.125 -2,0.75 -2,1 -1.5,0.5 -8.5,8.5 -0.5,1.5 -2.875,5 -1.25,3 -2.75,5 -1.125,3 -0.5,2.5 -2,2 -0.5,2.5 -6,19 -3.25,18 0.25,2 0.5,1.5 -1,1 1,1 0.5,6.5 1.125,6 3.875,10 2,4 4,6 2.5,4.5 6.25,8.25 3.25,1.25 2,2 10.5,0.25 2,-0.75 4.5,-2.5 3.5,-3.5 v -1 l 8.5,-8.5 h 1 l 0.5,-0.5 -1,-1 -0.5,-1.5 -0.125,-2 0.625,-2.5 2,-2 0.5,-1.5 5,-9 0.75,-2 0.75,-5.5 1.5,-1.5 h 2 l 1.5,1.5 1.75,9.5 1.25,4.5 3,3 0.5,1.5 2.75,7 v 5 l -0.25,1.5 -1.5,1.5 h -4 l -2,-2 -1.5,-0.5 -5,-2 -2.5,-0.5 -3,3 h -1 l -7.5,7.5 m 23.5,-10.5 0.5,-0.5 -1,-5 -2,-2 v -2 l -3,-3 v -1 l -1,-0.5 v 0.5 l -0.5,1.5 -0.25,2 0.75,4.5 -1,1 1.5,1.5 1.5,0.5 4.5,2.5 m -11.75,-6.25 0.25,-1.25 -0.5,-0.5 -1.5,1.5 0.5,0.5 1.25,-0.25"
     id="path42" />
</g>
<metadata
   id="metadata387">
  <rdf:RDF>
    <cc:Work
       rdf:about="">
      <dc:title>Biortc</dc:title>
    </cc:Work>
  </rdf:RDF>
</metadata>
</svg>
