<?xml version="1.0" encoding="UTF-8" standalone="no"?>
<!-- Generator: Adobe Illustrator 27.0.1, SVG Export Plug-In . SVG Version: 6.00 Build 0)  -->

<svg
   version="1.1"
   id="Layer_1"
   x="0px"
   y="0px"
   viewBox="0 0 131.15527 88.572876"
   xml:space="preserve"
   sodipodi:docname="Ona_Fig 1_task_schematic.svg"
   inkscape:export-filename="G:\Mi unidad\WORKING_MEMORY\PAPER\WM_manuscript_FIGURES\Fig. 1 Behavior\Fig 1_task_schematic.png"
   inkscape:export-xdpi="1500"
   inkscape:export-ydpi="1500"
   inkscape:version="1.2.2 (b0a8486541, 2022-12-01)"
   width="131.15527"
   height="88.572876"
   xmlns:inkscape="http://www.inkscape.org/namespaces/inkscape"
   xmlns:sodipodi="http://sodipodi.sourceforge.net/DTD/sodipodi-0.dtd"
   xmlns="http://www.w3.org/2000/svg"
   xmlns:svg="http://www.w3.org/2000/svg"><defs
   id="defs551" /><sodipodi:namedview
   id="namedview549"
   pagecolor="#ffffff"
   bordercolor="#666666"
   borderopacity="1.0"
   inkscape:pageshadow="2"
   inkscape:pageopacity="0.0"
   inkscape:pagecheckerboard="0"
   showgrid="false"
   inkscape:snap-midpoints="false"
   inkscape:snap-intersection-paths="false"
   inkscape:snap-nodes="false"
   inkscape:zoom="5.5698257"
   inkscape:cx="69.840606"
   inkscape:cy="66.967984"
   inkscape:window-width="1854"
   inkscape:window-height="1131"
   inkscape:window-x="0"
   inkscape:window-y="0"
   inkscape:window-maximized="1"
   inkscape:current-layer="Layer_1"
   inkscape:showpageshadow="2"
   inkscape:deskcolor="#d1d1d1" />
<style
   type="text/css"
   id="style2">
	.st0{fill:none;stroke:#000000;stroke-width:0.5874;}
	.st1{font-family:'Verdana';}
	.st2{font-size:5.8602px;}
	.st3{fill:none;stroke:#000000;stroke-width:0.5861;}
	.st4{fill:none;stroke:#000000;stroke-width:0.6915;}
	.st5{fill:none;stroke:#FF6600;stroke-width:0.5087;}
	.st6{fill:none;stroke:#000000;stroke-width:0.5494;}
	.st7{fill:none;stroke:#000000;stroke-width:0.7291;}
	.st8{fill:none;stroke:#000000;stroke-width:0.453;}
	.st9{fill:none;stroke:#FF7F2A;stroke-width:0.5494;}
	.st10{fill:none;stroke:#000000;stroke-width:0.5345;}
	.st11{fill:none;stroke:#000000;stroke-width:0.5825;}
	.st12{fill:none;stroke:#000000;stroke-width:7.874769e-02;stroke-linejoin:round;}
	.st13{fill:none;stroke:#000000;stroke-width:8.281644e-02;stroke-linejoin:round;}
	.st14{fill:none;stroke:#000000;stroke-width:0.3281;stroke-linejoin:round;}
	.st15{fill:#B3B3B3;}
	.st16{fill:none;stroke:#000000;stroke-width:0.2097;stroke-linecap:round;stroke-linejoin:round;}
	.st17{opacity:0.923;}
	.st18{fill-rule:evenodd;clip-rule:evenodd;fill:#E8E8E8;}
	.st19{fill:none;stroke:#000000;stroke-width:9.323520e-02;stroke-linecap:round;stroke-linejoin:round;}
	.st20{fill:none;stroke:#000000;stroke-width:0.1299;stroke-linecap:round;stroke-linejoin:round;}
	.st21{fill:none;stroke:#000000;stroke-width:0.1464;stroke-linecap:round;stroke-linejoin:round;}
	.st22{fill-rule:evenodd;clip-rule:evenodd;}
	.st23{fill:none;stroke:#000000;stroke-width:0.281;stroke-linecap:round;stroke-linejoin:round;}
	.st24{fill:none;stroke:#000000;stroke-width:0.1527;stroke-linecap:round;stroke-linejoin:round;}
	.st25{fill:none;stroke:#000000;stroke-width:0.2102;stroke-linecap:round;stroke-linejoin:round;}
	.st26{fill-rule:evenodd;clip-rule:evenodd;fill:#1A1A1A;}
	.st27{fill:none;stroke:#000000;stroke-width:9.385450e-03;stroke-linecap:round;stroke-linejoin:round;}
	.st28{fill-rule:evenodd;clip-rule:evenodd;fill:#333333;}
	.st29{fill:none;stroke:#000000;stroke-width:2.654590e-02;stroke-linecap:round;stroke-linejoin:round;}
	.st30{fill:none;stroke:#000000;stroke-width:0.1512;stroke-linecap:round;stroke-linejoin:round;}
	.st31{opacity:0.8805;fill-rule:evenodd;clip-rule:evenodd;fill:#333333;}
	.st32{fill:none;stroke:#999999;stroke-width:0.2588;stroke-linecap:round;stroke-linejoin:round;}
	.st33{opacity:0.8805;fill-rule:evenodd;clip-rule:evenodd;fill:#E6E6E6;}
	.st34{fill:none;stroke:#CCCCCC;stroke-width:0.2588;stroke-linecap:round;stroke-linejoin:round;}
	.st35{fill:#87DECD;}
	.st36{fill:none;stroke:#5FD3BC;stroke-width:0.1625;stroke-linejoin:round;}
	.st37{fill-rule:evenodd;clip-rule:evenodd;fill:#FF92A9;}
	.st38{fill:none;stroke:#374548;stroke-width:0.3335;stroke-dasharray:0.3335,1.0006;}
	.st39{fill:none;stroke:#374548;stroke-width:0.3162;stroke-dasharray:0.3162,0.9487;}
	.st40{font-size:4.3952px;}
	.st41{letter-spacing:1;}
</style>
<polyline
   class="st0"
   points="171.1,221.2 274.3,221.2 274.4,216 278.8,216 278.9,221.2 304.9,221.2 303.2,221.2 "
   id="polyline4"
   transform="matrix(0.75940092,0,0,0.99162516,-105.13839,-133.7847)"
   inkscape:export-filename="G:\Mi unidad\WORKING_MEMORY\PAPER\WM_manuscript_FIGURES\Fig. 1 Behavior\polyline4.png"
   inkscape:export-xdpi="1500"
   inkscape:export-ydpi="1500" />

<polyline
   class="st3"
   points="171.1,191.4 182.6,191.3 182.6,197.5 269.8,197.4 269.8,191.2 304.9,191.2 "
   id="polyline16"
   transform="matrix(0.79988089,0,0,0.9951845,-117.2489,-134.65582)"
   inkscape:export-filename="G:\Mi unidad\WORKING_MEMORY\PAPER\WM_manuscript_FIGURES\Fig. 1 Behavior\polyline4.png"
   inkscape:export-xdpi="1500"
   inkscape:export-ydpi="1500" />

<polyline
   class="st4"
   points="219.8,181.7 219.8,181.8 305,181.9 "
   id="polyline20"
   transform="matrix(0.82982906,0,0,0.86157548,-121.94295,-110.44622)"
   inkscape:export-filename="G:\Mi unidad\WORKING_MEMORY\PAPER\WM_manuscript_FIGURES\Fig. 1 Behavior\polyline4.png"
   inkscape:export-xdpi="1500"
   inkscape:export-ydpi="1500"
   style="stroke-width:0.75217;stroke-miterlimit:4;stroke-dasharray:none" />
<polyline
   class="st5"
   points="193.6,181.9 193.6,181.9 193.6,176.8 219.9,176.8 219.9,181.7 "
   id="polyline22"
   transform="matrix(1.0316235,0,0,1.0025147,-166.44341,-136.05112)"
   inkscape:export-filename="G:\Mi unidad\WORKING_MEMORY\PAPER\WM_manuscript_FIGURES\Fig. 1 Behavior\polyline4.png"
   inkscape:export-xdpi="1500"
   inkscape:export-ydpi="1500" />
<line
   class="st6"
   x1="25.259737"
   y1="46.108902"
   x2="33.579887"
   y2="46.108902"
   id="line24"
   inkscape:export-filename="G:\Mi unidad\WORKING_MEMORY\PAPER\WM_manuscript_FIGURES\Fig. 1 Behavior\polyline4.png"
   inkscape:export-xdpi="1500"
   inkscape:export-ydpi="1500"
   style="stroke-width:0.636002;stroke-miterlimit:4;stroke-dasharray:none" />

<line
   class="st7"
   x1="112.38966"
   y1="72.206093"
   x2="126.48788"
   y2="72.206093"
   id="line34"
   inkscape:export-filename="G:\Mi unidad\WORKING_MEMORY\PAPER\WM_manuscript_FIGURES\Fig. 1 Behavior\polyline4.png"
   inkscape:export-xdpi="1500"
   inkscape:export-ydpi="1500"
   style="stroke-width:0.636;stroke-miterlimit:4;stroke-dasharray:none" />
<line
   class="st8"
   x1="102.2989"
   y1="72.396477"
   x2="103.40631"
   y2="72.396477"
   id="line36"
   inkscape:export-filename="G:\Mi unidad\WORKING_MEMORY\PAPER\WM_manuscript_FIGURES\Fig. 1 Behavior\polyline4.png"
   inkscape:export-xdpi="1500"
   inkscape:export-ydpi="1500" />
<line
   class="st8"
   x1="105.62116"
   y1="72.396477"
   x2="106.64338"
   y2="72.396477"
   id="line38"
   inkscape:export-filename="G:\Mi unidad\WORKING_MEMORY\PAPER\WM_manuscript_FIGURES\Fig. 1 Behavior\polyline4.png"
   inkscape:export-xdpi="1500"
   inkscape:export-ydpi="1500" />
<polyline
   class="st9"
   points="281.6,208.2 281.6,203.4 283.7,203.4 283.7,208.2 "
   id="polyline40"
   transform="matrix(0.85186412,0,0,0.99866089,-132.98599,-135.32499)"
   inkscape:export-filename="G:\Mi unidad\WORKING_MEMORY\PAPER\WM_manuscript_FIGURES\Fig. 1 Behavior\polyline4.png"
   inkscape:export-xdpi="1500"
   inkscape:export-ydpi="1500" />
<line
   class="st10"
   x1="108.94343"
   y1="72.333061"
   x2="110.3916"
   y2="72.333061"
   id="line42"
   inkscape:export-filename="G:\Mi unidad\WORKING_MEMORY\PAPER\WM_manuscript_FIGURES\Fig. 1 Behavior\polyline4.png"
   inkscape:export-xdpi="1500"
   inkscape:export-ydpi="1500" />
<polyline
   class="st9"
   points="286,208.2 285.9,203.4 288.1,203.4 288.1,208.2 "
   id="polyline44"
   transform="matrix(0.85186412,0,0,0.99866089,-132.98599,-135.32499)"
   inkscape:export-filename="G:\Mi unidad\WORKING_MEMORY\PAPER\WM_manuscript_FIGURES\Fig. 1 Behavior\polyline4.png"
   inkscape:export-xdpi="1500"
   inkscape:export-ydpi="1500" />
<polyline
   class="st9"
   points="273.8,208.2 273.8,203.4 276,203.4 276,208.2 "
   id="polyline46"
   transform="matrix(0.85186412,0,0,0.99866089,-132.98599,-135.32499)"
   inkscape:export-filename="G:\Mi unidad\WORKING_MEMORY\PAPER\WM_manuscript_FIGURES\Fig. 1 Behavior\polyline4.png"
   inkscape:export-xdpi="1500"
   inkscape:export-ydpi="1500" />
<polyline
   class="st9"
   points="277.7,208.2 277.7,203.4 279.9,203.4 279.9,208.2 "
   id="polyline48"
   transform="matrix(0.85186412,0,0,0.99866089,-132.98599,-135.32499)"
   inkscape:export-filename="G:\Mi unidad\WORKING_MEMORY\PAPER\WM_manuscript_FIGURES\Fig. 1 Behavior\polyline4.png"
   inkscape:export-xdpi="1500"
   inkscape:export-ydpi="1500" />
<line
   class="st11"
   x1="25.450705"
   y1="72.396477"
   x2="100.46947"
   y2="72.396477"
   id="line50"
   inkscape:export-filename="G:\Mi unidad\WORKING_MEMORY\PAPER\WM_manuscript_FIGURES\Fig. 1 Behavior\polyline4.png"
   inkscape:export-xdpi="1500"
   inkscape:export-ydpi="1500"
   style="stroke-width:0.636;stroke-miterlimit:4;stroke-dasharray:none" />

<rect
   x="56.44886"
   y="29.072071"
   transform="rotate(-0.07311339)"
   width="2.7000022"
   height="2.400002"
   id="rect60"
   inkscape:export-filename="G:\Mi unidad\WORKING_MEMORY\PAPER\WM_manuscript_FIGURES\Fig. 1 Behavior\polyline4.png"
   inkscape:export-xdpi="1500"
   inkscape:export-ydpi="1500" />
<rect
   x="34.648773"
   y="29.144161"
   transform="rotate(-0.07311339)"
   width="2.7000022"
   height="2.400002"
   id="rect62"
   inkscape:export-filename="G:\Mi unidad\WORKING_MEMORY\PAPER\WM_manuscript_FIGURES\Fig. 1 Behavior\polyline4.png"
   inkscape:export-xdpi="1500"
   inkscape:export-ydpi="1500" />
<rect
   x="56.448467"
   y="29.072664"
   transform="rotate(-0.07376025)"
   class="st12"
   width="2.7000022"
   height="2.400002"
   id="rect64"
   inkscape:export-filename="G:\Mi unidad\WORKING_MEMORY\PAPER\WM_manuscript_FIGURES\Fig. 1 Behavior\polyline4.png"
   inkscape:export-xdpi="1500"
   inkscape:export-ydpi="1500" />
<rect
   x="34.648479"
   y="29.144655"
   transform="rotate(-0.07376025)"
   class="st12"
   width="2.7000022"
   height="2.400002"
   id="rect66"
   inkscape:export-filename="G:\Mi unidad\WORKING_MEMORY\PAPER\WM_manuscript_FIGURES\Fig. 1 Behavior\polyline4.png"
   inkscape:export-xdpi="1500"
   inkscape:export-ydpi="1500" />
<polygon
   points="215.7,160.7 218.8,163.9 215.7,167 "
   id="polygon68"
   transform="translate(-160.01268,-133.60192)"
   inkscape:export-filename="G:\Mi unidad\WORKING_MEMORY\PAPER\WM_manuscript_FIGURES\Fig. 1 Behavior\polyline4.png"
   inkscape:export-xdpi="1500"
   inkscape:export-ydpi="1500" />
<polygon
   points="198.3,167 195.2,163.9 198.3,160.8 "
   id="polygon70"
   transform="translate(-160.01268,-133.60192)"
   inkscape:export-filename="G:\Mi unidad\WORKING_MEMORY\PAPER\WM_manuscript_FIGURES\Fig. 1 Behavior\polyline4.png"
   inkscape:export-xdpi="1500"
   inkscape:export-ydpi="1500" />
<polygon
   class="st13"
   points="215.7,160.7 218.8,163.9 215.7,167 "
   id="polygon72"
   transform="translate(-160.01268,-133.60192)"
   inkscape:export-filename="G:\Mi unidad\WORKING_MEMORY\PAPER\WM_manuscript_FIGURES\Fig. 1 Behavior\polyline4.png"
   inkscape:export-xdpi="1500"
   inkscape:export-ydpi="1500" />
<path
   class="st14"
   d="m 54.987322,28.798077 c -1.1,1.1 -1.1,1.8 0,2.9"
   id="path74"
   inkscape:export-filename="G:\Mi unidad\WORKING_MEMORY\PAPER\WM_manuscript_FIGURES\Fig. 1 Behavior\polyline4.png"
   inkscape:export-xdpi="1500"
   inkscape:export-ydpi="1500" />
<path
   class="st14"
   d="m 54.287322,27.998077 c -1.6,1.6 -1.6,2.8 0,4.5"
   id="path76"
   inkscape:export-filename="G:\Mi unidad\WORKING_MEMORY\PAPER\WM_manuscript_FIGURES\Fig. 1 Behavior\polyline4.png"
   inkscape:export-xdpi="1500"
   inkscape:export-ydpi="1500" />
<path
   class="st14"
   d="m 53.487322,27.298077 c -2.2,2.2 -2.2,3.8 0,6"
   id="path78"
   inkscape:export-filename="G:\Mi unidad\WORKING_MEMORY\PAPER\WM_manuscript_FIGURES\Fig. 1 Behavior\polyline4.png"
   inkscape:export-xdpi="1500"
   inkscape:export-ydpi="1500" />
<path
   class="st15"
   d="m 46.287322,24.398077 c -0.8,0 -1.1,1.1 -1.7,2.2 -0.1,0.1 -0.1,0.2 -0.2,0.3 -0.1,0.1 -0.1,0.3 -0.2,0.4 -0.1,0.1 -0.1,0.2 -0.1,0.3 -0.4,1 -0.8,2.1 -0.9,2.6 0,0 0,0.1 0,0.1 -0.2,0.6 -0.3,1.2 -0.3,1.8 0,0.2 0,0.5 0.1,0.7 -1,0.9 -1.8,2.6 -1.8,3.9 0,1.4 0.6,2.2 1.6,2.1 1,-0.1 2.1,-1.3 2.7,-2.7 0.3,0.1 0.7,0.2 1,0.2 0.4,0 0.8,-0.1 1.1,-0.2 0.6,1.4 1.8,2.5 2.7,2.6 1,0.1 1.6,-0.8 1.6,-2.1 0,-1.4 -0.8,-3 -1.8,-3.9 v 0 c 0,-0.2 0.1,-0.5 0.1,-0.7 0,-0.8 -0.2,-1.5 -0.5,-2.1 -0.4,-1 -0.7,-1.8 -1,-2.6 0,-0.1 -0.1,-0.2 -0.1,-0.4 -0.1,-0.1 -0.1,-0.2 -0.1,-0.3 -0.1,-0.3 -0.3,-0.5 -0.4,-0.7 -0.9,-1 -1,-1.5 -1.8,-1.5 z"
   id="path80"
   inkscape:export-filename="G:\Mi unidad\WORKING_MEMORY\PAPER\WM_manuscript_FIGURES\Fig. 1 Behavior\polyline4.png"
   inkscape:export-xdpi="1500"
   inkscape:export-ydpi="1500" />
<path
   class="st16"
   d="m 46.287322,24.398077 c -0.8,0 -1.1,1.1 -1.7,2.2 -0.1,0.1 -0.1,0.2 -0.2,0.3 -0.1,0.1 -0.1,0.3 -0.2,0.4 -0.1,0.1 -0.1,0.2 -0.1,0.3 -0.4,1 -0.8,2.1 -0.9,2.6 0,0 0,0.1 0,0.1 -0.2,0.6 -0.3,1.2 -0.3,1.8 0,0.2 0,0.5 0.1,0.7 -1,0.9 -1.8,2.6 -1.8,3.9 0,1.4 0.6,2.2 1.6,2.1 1,-0.1 2.1,-1.3 2.7,-2.7 0.3,0.1 0.7,0.2 1,0.2 0.4,0 0.8,-0.1 1.1,-0.2 0.6,1.4 1.8,2.5 2.7,2.6 1,0.1 1.6,-0.8 1.6,-2.1 0,-1.4 -0.8,-3 -1.8,-3.9 v 0 c 0,-0.2 0.1,-0.5 0.1,-0.7 0,-0.8 -0.2,-1.5 -0.5,-2.1 -0.4,-1 -0.7,-1.8 -1,-2.6 0,-0.1 -0.1,-0.2 -0.1,-0.4 -0.1,-0.1 -0.1,-0.2 -0.1,-0.3 -0.1,-0.3 -0.3,-0.5 -0.4,-0.7 -0.9,-1 -1,-1.5 -1.8,-1.5 z"
   id="path82"
   inkscape:export-filename="G:\Mi unidad\WORKING_MEMORY\PAPER\WM_manuscript_FIGURES\Fig. 1 Behavior\polyline4.png"
   inkscape:export-xdpi="1500"
   inkscape:export-ydpi="1500" />
<g
   class="st17"
   id="g90"
   transform="translate(-160.01268,-133.60192)"
   inkscape:export-filename="G:\Mi unidad\WORKING_MEMORY\PAPER\WM_manuscript_FIGURES\Fig. 1 Behavior\polyline4.png"
   inkscape:export-xdpi="1500"
   inkscape:export-ydpi="1500">
	<g
   id="g88">
		<path
   class="st18"
   d="m 207.8,159.9 c 0,-0.1 0.1,-0.1 0.1,-0.1 0.1,-0.1 0,-0.1 0.1,-0.1 0.2,-0.2 0.3,-0.3 0.5,-0.3 0.1,0 0.1,0 0.1,0 0.3,-0.1 0.7,-0.1 1,-0.2 0.2,0 0.4,-0.1 0.6,-0.1 0,0 0,0 0,0 v 0 c 0,0 0,0 0,0 -0.2,0 -0.4,0.1 -0.6,0.1 -0.4,0.1 -0.7,0.1 -1,0.2 -0.1,0 -0.1,0 -0.1,0 -0.2,0.1 -0.4,0.2 -0.5,0.3 0,0 -0.1,0.1 -0.1,0.1 0,0 0,0 0,0 0,0 0,0 -0.1,0.1 0,0 0,0 0,0 z"
   id="path84" />
		<path
   class="st19"
   d="m 207.8,159.9 c 0,-0.1 0.1,-0.1 0.1,-0.1 0.1,-0.1 0,-0.1 0.1,-0.1 0.2,-0.2 0.3,-0.3 0.5,-0.3 0.1,0 0.1,0 0.1,0 0.3,-0.1 0.7,-0.1 1,-0.2 0.2,0 0.4,-0.1 0.6,-0.1 0,0 0,0 0,0 v 0 c 0,0 0,0 0,0 -0.2,0 -0.4,0.1 -0.6,0.1 -0.4,0.1 -0.7,0.1 -1,0.2 -0.1,0 -0.1,0 -0.1,0 -0.2,0.1 -0.4,0.2 -0.5,0.3 0,0 -0.1,0.1 -0.1,0.1 0,0 0,0 0,0 0,0 0,0 -0.1,0.1 0,0 0,0 0,0 z"
   id="path86" />
	</g>
</g>
<g
   class="st17"
   id="g98"
   transform="translate(-160.01268,-133.60192)"
   inkscape:export-filename="G:\Mi unidad\WORKING_MEMORY\PAPER\WM_manuscript_FIGURES\Fig. 1 Behavior\polyline4.png"
   inkscape:export-xdpi="1500"
   inkscape:export-ydpi="1500">
	<g
   id="g96">
		<path
   class="st18"
   d="m 207.8,160.2 c 0.2,0 0.3,-0.1 0.5,-0.1 0.6,-0.1 1.2,-0.2 1.8,-0.3 0.2,0 0.3,-0.1 0.5,-0.1 v 0 c -0.2,0 -0.3,0.1 -0.5,0.1 -0.6,0.1 -1.2,0.2 -1.8,0.3 -0.1,0 -0.3,0 -0.5,0.1 z"
   id="path92" />
		<path
   class="st20"
   d="m 207.8,160.2 c 0.2,0 0.3,-0.1 0.5,-0.1 0.6,-0.1 1.2,-0.2 1.8,-0.3 0.2,0 0.3,-0.1 0.5,-0.1 v 0 c -0.2,0 -0.3,0.1 -0.5,0.1 -0.6,0.1 -1.2,0.2 -1.8,0.3 -0.1,0 -0.3,0 -0.5,0.1 z"
   id="path94" />
	</g>
</g>
<g
   class="st17"
   id="g106"
   transform="translate(-160.01268,-133.60192)"
   inkscape:export-filename="G:\Mi unidad\WORKING_MEMORY\PAPER\WM_manuscript_FIGURES\Fig. 1 Behavior\polyline4.png"
   inkscape:export-xdpi="1500"
   inkscape:export-ydpi="1500">
	<g
   id="g104">
		<path
   class="st18"
   d="m 207.9,160.5 c 0.2,0 0.3,0.1 0.5,0.1 0.4,0.1 0.8,0.1 1.1,0.1 0.1,0 0.3,0 0.4,0 v 0 c -0.1,0 -0.3,0 -0.4,0 -0.4,0 -0.8,0 -1.1,-0.1 -0.2,0 -0.3,0 -0.5,-0.1 z"
   id="path100" />
		<path
   class="st21"
   d="m 207.9,160.5 c 0.2,0 0.3,0.1 0.5,0.1 0.4,0.1 0.8,0.1 1.1,0.1 0.1,0 0.3,0 0.4,0 v 0 c -0.1,0 -0.3,0 -0.4,0 -0.4,0 -0.8,0 -1.1,-0.1 -0.2,0 -0.3,0 -0.5,-0.1 z"
   id="path102" />
	</g>
</g>
<g
   class="st17"
   id="g114"
   transform="translate(-160.01268,-133.60192)"
   inkscape:export-filename="G:\Mi unidad\WORKING_MEMORY\PAPER\WM_manuscript_FIGURES\Fig. 1 Behavior\polyline4.png"
   inkscape:export-xdpi="1500"
   inkscape:export-ydpi="1500">
	<g
   id="g112">
		<path
   class="st18"
   d="m 205,160 c 0,-0.1 -0.1,-0.1 -0.1,-0.1 -0.1,-0.1 0,-0.1 -0.1,-0.1 -0.2,-0.2 -0.3,-0.3 -0.5,-0.3 0,0 -0.1,0 -0.1,0 -0.3,-0.1 -0.7,-0.1 -1,-0.2 -0.2,0 -0.4,-0.1 -0.6,-0.1 0,0 0,0 0,0 v 0 c 0,0 0,0 0,0 0.2,0 0.4,0.1 0.6,0.1 0.4,0.1 0.7,0.1 1,0.2 0.1,0 0.1,0 0.1,0 0.2,0.1 0.4,0.2 0.5,0.3 0,0 0.1,0.1 0.1,0.1 0,0 0,0 0,0 0,-0.1 0,0 0.1,0.1 -0.1,-0.1 -0.1,-0.1 0,0 z"
   id="path108" />
		<path
   class="st19"
   d="m 205,160 c 0,-0.1 -0.1,-0.1 -0.1,-0.1 -0.1,-0.1 0,-0.1 -0.1,-0.1 -0.2,-0.2 -0.3,-0.3 -0.5,-0.3 0,0 -0.1,0 -0.1,0 -0.3,-0.1 -0.7,-0.1 -1,-0.2 -0.2,0 -0.4,-0.1 -0.6,-0.1 0,0 0,0 0,0 v 0 c 0,0 0,0 0,0 0.2,0 0.4,0.1 0.6,0.1 0.4,0.1 0.7,0.1 1,0.2 0.1,0 0.1,0 0.1,0 0.2,0.1 0.4,0.2 0.5,0.3 0,0 0.1,0.1 0.1,0.1 0,0 0,0 0,0 0,-0.1 0,0 0.1,0.1 -0.1,-0.1 -0.1,-0.1 0,0 z"
   id="path110" />
	</g>
</g>
<g
   class="st17"
   id="g122"
   transform="translate(-160.01268,-133.60192)"
   inkscape:export-filename="G:\Mi unidad\WORKING_MEMORY\PAPER\WM_manuscript_FIGURES\Fig. 1 Behavior\polyline4.png"
   inkscape:export-xdpi="1500"
   inkscape:export-ydpi="1500">
	<g
   id="g120">
		<path
   class="st18"
   d="m 204.9,160.2 c -0.2,0 -0.3,-0.1 -0.5,-0.1 -0.6,-0.1 -1.2,-0.2 -1.8,-0.3 -0.2,0 -0.3,-0.1 -0.5,-0.1 v 0 c 0.2,0 0.3,0.1 0.5,0.1 0.6,0.1 1.2,0.2 1.8,0.3 0.2,0.1 0.4,0.1 0.5,0.1 z"
   id="path116" />
		<path
   class="st20"
   d="m 204.9,160.2 c -0.2,0 -0.3,-0.1 -0.5,-0.1 -0.6,-0.1 -1.2,-0.2 -1.8,-0.3 -0.2,0 -0.3,-0.1 -0.5,-0.1 v 0 c 0.2,0 0.3,0.1 0.5,0.1 0.6,0.1 1.2,0.2 1.8,0.3 0.2,0.1 0.4,0.1 0.5,0.1 z"
   id="path118" />
	</g>
</g>
<g
   class="st17"
   id="g130"
   transform="translate(-160.01268,-133.60192)"
   inkscape:export-filename="G:\Mi unidad\WORKING_MEMORY\PAPER\WM_manuscript_FIGURES\Fig. 1 Behavior\polyline4.png"
   inkscape:export-xdpi="1500"
   inkscape:export-ydpi="1500">
	<g
   id="g128">
		<path
   class="st18"
   d="m 204.8,160.6 c -0.2,0 -0.3,0.1 -0.5,0.1 -0.4,0.1 -0.8,0.1 -1.1,0.1 -0.1,0 -0.3,0 -0.4,0 v 0 c 0.1,0 0.3,0 0.4,0 0.4,0 0.8,0 1.1,-0.1 0.2,0 0.4,-0.1 0.5,-0.1 z"
   id="path124" />
		<path
   class="st21"
   d="m 204.8,160.6 c -0.2,0 -0.3,0.1 -0.5,0.1 -0.4,0.1 -0.8,0.1 -1.1,0.1 -0.1,0 -0.3,0 -0.4,0 v 0 c 0.1,0 0.3,0 0.4,0 0.4,0 0.8,0 1.1,-0.1 0.2,0 0.4,-0.1 0.5,-0.1 z"
   id="path126" />
	</g>
</g>
<g
   class="st17"
   id="g138"
   transform="translate(-160.01268,-133.60192)"
   inkscape:export-filename="G:\Mi unidad\WORKING_MEMORY\PAPER\WM_manuscript_FIGURES\Fig. 1 Behavior\polyline4.png"
   inkscape:export-xdpi="1500"
   inkscape:export-ydpi="1500">
	<g
   id="g136">
		<path
   class="st22"
   d="m 206,158.7 c -0.1,-0.2 -0.1,-0.5 0.1,-0.7 0.2,-0.2 0.4,-0.2 0.6,0 0.2,0.2 0.2,0.4 0.1,0.6 l -0.4,-0.3 z"
   id="path132" />
		<path
   class="st23"
   d="m 206,158.7 c -0.1,-0.2 -0.1,-0.5 0.1,-0.7 0.2,-0.2 0.4,-0.2 0.6,0 0.2,0.2 0.2,0.4 0.1,0.6 l -0.4,-0.3 z"
   id="path134" />
	</g>
</g>
<g
   class="st17"
   id="g146"
   transform="translate(-160.01268,-133.60192)"
   inkscape:export-filename="G:\Mi unidad\WORKING_MEMORY\PAPER\WM_manuscript_FIGURES\Fig. 1 Behavior\polyline4.png"
   inkscape:export-xdpi="1500"
   inkscape:export-ydpi="1500">
	<g
   id="g144">
		<path
   class="st22"
   d="m 206.1,163.2 c -0.1,0.5 -0.3,0.8 -0.6,0.7 -0.3,-0.1 -0.5,-0.5 -0.4,-0.9 0.1,-0.5 0.3,-0.8 0.6,-0.7 0.3,0 0.4,0.4 0.4,0.9 z"
   id="path140" />
		<path
   class="st24"
   d="m 206.1,163.2 c -0.1,0.5 -0.3,0.8 -0.6,0.7 -0.3,-0.1 -0.5,-0.5 -0.4,-0.9 0.1,-0.5 0.3,-0.8 0.6,-0.7 0.3,0 0.4,0.4 0.4,0.9 z"
   id="path142" />
	</g>
</g>
<g
   class="st17"
   id="g154"
   transform="translate(-160.01268,-133.60192)"
   inkscape:export-filename="G:\Mi unidad\WORKING_MEMORY\PAPER\WM_manuscript_FIGURES\Fig. 1 Behavior\polyline4.png"
   inkscape:export-xdpi="1500"
   inkscape:export-ydpi="1500">
	<g
   id="g152">
		<path
   class="st22"
   d="m 207.9,163 c 0.1,0.5 -0.1,0.9 -0.4,0.9 -0.3,0.1 -0.6,-0.3 -0.6,-0.7 -0.1,-0.5 0.1,-0.9 0.4,-0.9 0.3,0 0.6,0.3 0.6,0.7 z"
   id="path148" />
		<path
   class="st24"
   d="m 207.9,163 c 0.1,0.5 -0.1,0.9 -0.4,0.9 -0.3,0.1 -0.6,-0.3 -0.6,-0.7 -0.1,-0.5 0.1,-0.9 0.4,-0.9 0.3,0 0.6,0.3 0.6,0.7 z"
   id="path150" />
	</g>
</g>
<g
   class="st17"
   id="g162"
   transform="translate(-160.01268,-133.60192)"
   inkscape:export-filename="G:\Mi unidad\WORKING_MEMORY\PAPER\WM_manuscript_FIGURES\Fig. 1 Behavior\polyline4.png"
   inkscape:export-xdpi="1500"
   inkscape:export-ydpi="1500">
	<g
   id="g160">
		<path
   class="st22"
   d="m 202.6,168.3 c 0.1,1.7 -0.6,2.5 -1,2.9 -0.1,0 -0.2,0.1 -0.3,0.1 0,0 0.2,-0.1 0.3,-0.1 0.8,-0.3 1.3,-2.5 0.6,-3.5 l 0.2,-0.4 c 0,0.3 0.2,0.8 0.2,1 z"
   id="path156" />
		<path
   class="st25"
   d="m 202.6,168.3 c 0.1,1.7 -0.6,2.5 -1,2.9 -0.1,0 -0.2,0.1 -0.3,0.1 0,0 0.2,-0.1 0.3,-0.1 0.8,-0.3 1.3,-2.5 0.6,-3.5 l 0.2,-0.4 c 0,0.3 0.2,0.8 0.2,1 z"
   id="path158" />
	</g>
</g>
<g
   class="st17"
   id="g170"
   transform="translate(-160.01268,-133.60192)"
   inkscape:export-filename="G:\Mi unidad\WORKING_MEMORY\PAPER\WM_manuscript_FIGURES\Fig. 1 Behavior\polyline4.png"
   inkscape:export-xdpi="1500"
   inkscape:export-ydpi="1500">
	<g
   id="g168">
		<path
   class="st26"
   d="m 201.2,171.1 c 0,-0.2 -0.1,-0.6 0,-0.9 0.1,-0.6 0.2,-1.3 0.6,-1.9 0.1,-0.2 0.2,-0.4 0.2,-0.4 0,0 0.1,0.2 0.2,0.3 0.2,0.4 0.2,1.1 0,1.6 -0.1,0.4 -0.2,0.7 -0.4,0.9 -0.1,0.1 -0.2,0.2 -0.3,0.3 0,0.1 -0.2,0.1 -0.3,0.1 0.1,0 0,0 0,0 z"
   id="path164" />
		<path
   class="st27"
   d="m 201.2,171.1 c 0,-0.2 -0.1,-0.6 0,-0.9 0.1,-0.6 0.2,-1.3 0.6,-1.9 0.1,-0.2 0.2,-0.4 0.2,-0.4 0,0 0.1,0.2 0.2,0.3 0.2,0.4 0.2,1.1 0,1.6 -0.1,0.4 -0.2,0.7 -0.4,0.9 -0.1,0.1 -0.2,0.2 -0.3,0.3 0,0.1 -0.2,0.1 -0.3,0.1 0.1,0 0,0 0,0 z"
   id="path166" />
	</g>
</g>
<g
   class="st17"
   id="g178"
   transform="translate(-160.01268,-133.60192)"
   inkscape:export-filename="G:\Mi unidad\WORKING_MEMORY\PAPER\WM_manuscript_FIGURES\Fig. 1 Behavior\polyline4.png"
   inkscape:export-xdpi="1500"
   inkscape:export-ydpi="1500">
	<g
   id="g176">
		<path
   class="st22"
   d="m 210.2,168 c 0,1.7 0.7,2.4 1.2,2.8 0.1,0 0.2,0.1 0.3,0.1 0,0 -0.2,-0.1 -0.3,-0.1 -0.8,-0.3 -1.5,-2.4 -0.8,-3.5 l -0.3,-0.4 c 0,0.4 -0.1,0.9 -0.1,1.1 z"
   id="path172" />
		<path
   class="st25"
   d="m 210.2,168 c 0,1.7 0.7,2.4 1.2,2.8 0.1,0 0.2,0.1 0.3,0.1 0,0 -0.2,-0.1 -0.3,-0.1 -0.8,-0.3 -1.5,-2.4 -0.8,-3.5 l -0.3,-0.4 c 0,0.4 -0.1,0.9 -0.1,1.1 z"
   id="path174" />
	</g>
</g>
<g
   class="st17"
   id="g186"
   transform="translate(-160.01268,-133.60192)"
   inkscape:export-filename="G:\Mi unidad\WORKING_MEMORY\PAPER\WM_manuscript_FIGURES\Fig. 1 Behavior\polyline4.png"
   inkscape:export-xdpi="1500"
   inkscape:export-ydpi="1500">
	<g
   id="g184">
		<path
   class="st28"
   d="m 211.5,170.7 c -0.6,-0.2 -1.1,-1.5 -1,-2.5 0,-0.3 0.1,-0.6 0.2,-0.7 0,-0.1 0.1,0 0.2,0.2 0.3,0.5 0.6,1.3 0.7,1.8 0.1,0.3 0.1,0.9 0.1,1.1 v 0.2 z"
   id="path180" />
		<path
   class="st29"
   d="m 211.5,170.7 c -0.6,-0.2 -1.1,-1.5 -1,-2.5 0,-0.3 0.1,-0.6 0.2,-0.7 0,-0.1 0.1,0 0.2,0.2 0.3,0.5 0.6,1.3 0.7,1.8 0.1,0.3 0.1,0.9 0.1,1.1 v 0.2 z"
   id="path182" />
	</g>
</g>
<g
   id="g192"
   transform="translate(-160.01268,-133.60192)"
   inkscape:export-filename="G:\Mi unidad\WORKING_MEMORY\PAPER\WM_manuscript_FIGURES\Fig. 1 Behavior\polyline4.png"
   inkscape:export-xdpi="1500"
   inkscape:export-ydpi="1500">
	<path
   class="st22"
   d="m 205.8,162.6 c 0,0.1 -0.1,0.2 -0.2,0.2 -0.1,0 -0.2,-0.1 -0.2,-0.2 0,-0.1 0.1,-0.2 0.2,-0.2 0.1,0 0.2,0.1 0.2,0.2 z"
   id="path188" />
	<path
   class="st30"
   d="m 205.8,162.6 c 0,0.1 -0.1,0.2 -0.2,0.2 -0.1,0 -0.2,-0.1 -0.2,-0.2 0,-0.1 0.1,-0.2 0.2,-0.2 0.1,0 0.2,0.1 0.2,0.2 z"
   id="path190" />
</g>
<g
   class="st17"
   id="g200"
   transform="translate(-160.01268,-133.60192)"
   inkscape:export-filename="G:\Mi unidad\WORKING_MEMORY\PAPER\WM_manuscript_FIGURES\Fig. 1 Behavior\polyline4.png"
   inkscape:export-xdpi="1500"
   inkscape:export-ydpi="1500">
	<g
   id="g198">
		<path
   class="st22"
   d="m 207.5,162.6 c 0,0.1 -0.1,0.2 -0.2,0.2 -0.1,0 -0.2,-0.1 -0.2,-0.2 0,-0.1 0.1,-0.2 0.2,-0.2 0.1,0 0.2,0.1 0.2,0.2 z"
   id="path194" />
		<path
   class="st30"
   d="m 207.5,162.6 c 0,0.1 -0.1,0.2 -0.2,0.2 -0.1,0 -0.2,-0.1 -0.2,-0.2 0,-0.1 0.1,-0.2 0.2,-0.2 0.1,0 0.2,0.1 0.2,0.2 z"
   id="path196" />
	</g>
</g>
<g
   id="g206"
   transform="translate(-164.01268,-133.60192)"
   inkscape:export-filename="G:\Mi unidad\WORKING_MEMORY\PAPER\WM_manuscript_FIGURES\Fig. 1 Behavior\polyline4.png"
   inkscape:export-xdpi="1500"
   inkscape:export-ydpi="1500">
	<path
   class="st15"
   d="m 243.3,158 c -0.8,0 -1.1,1.1 -1.7,2.2 -0.1,0.1 -0.1,0.2 -0.2,0.3 -0.1,0.1 -0.1,0.3 -0.2,0.4 -0.1,0.1 -0.1,0.2 -0.1,0.3 -0.4,1 -0.8,2.1 -0.9,2.6 0,0 0,0.1 0,0.1 -0.2,0.6 -0.3,1.2 -0.3,1.8 0,0.2 0,0.5 0.1,0.7 -1,0.9 -1.8,2.6 -1.8,3.9 0,1.4 0.6,2.2 1.6,2.1 1,-0.1 2.1,-1.3 2.7,-2.7 0.3,0.1 0.7,0.2 1,0.2 0.4,0 0.8,-0.1 1.1,-0.2 0.6,1.4 1.8,2.5 2.7,2.6 1,0.1 1.6,-0.8 1.6,-2.1 0,-1.4 -0.8,-3 -1.8,-3.9 v 0 c 0,-0.2 0.1,-0.5 0.1,-0.7 0,-0.8 -0.2,-1.5 -0.5,-2.1 -0.4,-1 -0.7,-1.8 -1,-2.6 0,-0.1 -0.1,-0.2 -0.1,-0.4 -0.1,-0.1 -0.1,-0.2 -0.1,-0.3 -0.1,-0.3 -0.3,-0.5 -0.4,-0.7 -0.9,-1 -1,-1.5 -1.8,-1.5 z"
   id="path202" />
	<path
   class="st16"
   d="m 243.3,158 c -0.8,0 -1.1,1.1 -1.7,2.2 -0.1,0.1 -0.1,0.2 -0.2,0.3 -0.1,0.1 -0.1,0.3 -0.2,0.4 -0.1,0.1 -0.1,0.2 -0.1,0.3 -0.4,1 -0.8,2.1 -0.9,2.6 0,0 0,0.1 0,0.1 -0.2,0.6 -0.3,1.2 -0.3,1.8 0,0.2 0,0.5 0.1,0.7 -1,0.9 -1.8,2.6 -1.8,3.9 0,1.4 0.6,2.2 1.6,2.1 1,-0.1 2.1,-1.3 2.7,-2.7 0.3,0.1 0.7,0.2 1,0.2 0.4,0 0.8,-0.1 1.1,-0.2 0.6,1.4 1.8,2.5 2.7,2.6 1,0.1 1.6,-0.8 1.6,-2.1 0,-1.4 -0.8,-3 -1.8,-3.9 v 0 c 0,-0.2 0.1,-0.5 0.1,-0.7 0,-0.8 -0.2,-1.5 -0.5,-2.1 -0.4,-1 -0.7,-1.8 -1,-2.6 0,-0.1 -0.1,-0.2 -0.1,-0.4 -0.1,-0.1 -0.1,-0.2 -0.1,-0.3 -0.1,-0.3 -0.3,-0.5 -0.4,-0.7 -0.9,-1 -1,-1.5 -1.8,-1.5 z"
   id="path204" />
</g>
<g
   class="st17"
   id="g214"
   transform="translate(-164.01268,-133.60192)"
   inkscape:export-filename="G:\Mi unidad\WORKING_MEMORY\PAPER\WM_manuscript_FIGURES\Fig. 1 Behavior\polyline4.png"
   inkscape:export-xdpi="1500"
   inkscape:export-ydpi="1500">
	<g
   id="g212">
		<path
   class="st18"
   d="m 244.8,159.9 c 0,-0.1 0.1,-0.1 0.1,-0.1 0.1,-0.1 0,-0.1 0.1,-0.1 0.2,-0.2 0.3,-0.3 0.5,-0.3 0.1,0 0.1,0 0.1,0 0.3,-0.1 0.7,-0.1 1,-0.2 0.2,0 0.4,-0.1 0.6,-0.1 0,0 0,0 0,0 0,0 0,0 0,0 -0.2,0 -0.4,0.1 -0.6,0.1 -0.4,0.1 -0.7,0.1 -1,0.2 0,0 -0.1,0 -0.1,0 -0.2,0.1 -0.4,0.2 -0.5,0.3 0,0 -0.1,0.1 -0.1,0.1 0,0 0,0 0,0 0,0 0,0 -0.1,0.1 0,0 0,0 0,0 z"
   id="path208" />
		<path
   class="st19"
   d="m 244.8,159.9 c 0,-0.1 0.1,-0.1 0.1,-0.1 0.1,-0.1 0,-0.1 0.1,-0.1 0.2,-0.2 0.3,-0.3 0.5,-0.3 0.1,0 0.1,0 0.1,0 0.3,-0.1 0.7,-0.1 1,-0.2 0.2,0 0.4,-0.1 0.6,-0.1 0,0 0,0 0,0 0,0 0,0 0,0 -0.2,0 -0.4,0.1 -0.6,0.1 -0.4,0.1 -0.7,0.1 -1,0.2 0,0 -0.1,0 -0.1,0 -0.2,0.1 -0.4,0.2 -0.5,0.3 0,0 -0.1,0.1 -0.1,0.1 0,0 0,0 0,0 0,0 0,0 -0.1,0.1 0,0 0,0 0,0 z"
   id="path210" />
	</g>
</g>
<g
   class="st17"
   id="g222"
   transform="translate(-164.01268,-133.60192)"
   inkscape:export-filename="G:\Mi unidad\WORKING_MEMORY\PAPER\WM_manuscript_FIGURES\Fig. 1 Behavior\polyline4.png"
   inkscape:export-xdpi="1500"
   inkscape:export-ydpi="1500">
	<g
   id="g220">
		<path
   class="st18"
   d="m 244.8,160.2 c 0.2,0 0.3,-0.1 0.5,-0.1 0.6,-0.1 1.2,-0.2 1.8,-0.3 0.2,0 0.3,-0.1 0.5,-0.1 v 0 c -0.2,0 -0.3,0.1 -0.5,0.1 -0.6,0.1 -1.2,0.2 -1.8,0.3 -0.2,0 -0.3,0 -0.5,0.1 z"
   id="path216" />
		<path
   class="st20"
   d="m 244.8,160.2 c 0.2,0 0.3,-0.1 0.5,-0.1 0.6,-0.1 1.2,-0.2 1.8,-0.3 0.2,0 0.3,-0.1 0.5,-0.1 v 0 c -0.2,0 -0.3,0.1 -0.5,0.1 -0.6,0.1 -1.2,0.2 -1.8,0.3 -0.2,0 -0.3,0 -0.5,0.1 z"
   id="path218" />
	</g>
</g>
<g
   class="st17"
   id="g230"
   transform="translate(-164.01268,-133.60192)"
   inkscape:export-filename="G:\Mi unidad\WORKING_MEMORY\PAPER\WM_manuscript_FIGURES\Fig. 1 Behavior\polyline4.png"
   inkscape:export-xdpi="1500"
   inkscape:export-ydpi="1500">
	<g
   id="g228">
		<path
   class="st18"
   d="m 244.9,160.5 c 0.1,0 0.3,0.1 0.5,0.1 0.4,0.1 0.8,0.1 1.1,0.1 0.1,0 0.3,0 0.4,0 v 0 c -0.1,0 -0.3,0 -0.4,0 -0.4,0 -0.8,0 -1.1,-0.1 -0.2,0 -0.3,0 -0.5,-0.1 z"
   id="path224" />
		<path
   class="st21"
   d="m 244.9,160.5 c 0.1,0 0.3,0.1 0.5,0.1 0.4,0.1 0.8,0.1 1.1,0.1 0.1,0 0.3,0 0.4,0 v 0 c -0.1,0 -0.3,0 -0.4,0 -0.4,0 -0.8,0 -1.1,-0.1 -0.2,0 -0.3,0 -0.5,-0.1 z"
   id="path226" />
	</g>
</g>
<g
   class="st17"
   id="g238"
   transform="translate(-164.01268,-133.60192)"
   inkscape:export-filename="G:\Mi unidad\WORKING_MEMORY\PAPER\WM_manuscript_FIGURES\Fig. 1 Behavior\polyline4.png"
   inkscape:export-xdpi="1500"
   inkscape:export-ydpi="1500">
	<g
   id="g236">
		<path
   class="st18"
   d="m 241.9,160 c 0,-0.1 -0.1,-0.1 -0.1,-0.1 -0.1,-0.1 0,-0.1 -0.1,-0.1 -0.2,-0.2 -0.3,-0.3 -0.5,-0.3 0,0 -0.1,0 -0.1,0 -0.3,-0.1 -0.7,-0.1 -1,-0.2 -0.2,0 -0.4,-0.1 -0.6,-0.1 0,0 0,0 0,0 v 0 c 0,0 0,0 0,0 0.2,0 0.4,0.1 0.6,0.1 0.3,0.1 0.7,0.1 1,0.2 0,0 0.1,0 0.1,0 0.2,0.1 0.4,0.2 0.5,0.3 0,0 0.1,0.1 0.1,0.1 0,0 0,0 0,0 0.1,-0.1 0.1,0 0.1,0.1 0,-0.1 0,-0.1 0,0 z"
   id="path232" />
		<path
   class="st19"
   d="m 241.9,160 c 0,-0.1 -0.1,-0.1 -0.1,-0.1 -0.1,-0.1 0,-0.1 -0.1,-0.1 -0.2,-0.2 -0.3,-0.3 -0.5,-0.3 0,0 -0.1,0 -0.1,0 -0.3,-0.1 -0.7,-0.1 -1,-0.2 -0.2,0 -0.4,-0.1 -0.6,-0.1 0,0 0,0 0,0 v 0 c 0,0 0,0 0,0 0.2,0 0.4,0.1 0.6,0.1 0.3,0.1 0.7,0.1 1,0.2 0,0 0.1,0 0.1,0 0.2,0.1 0.4,0.2 0.5,0.3 0,0 0.1,0.1 0.1,0.1 0,0 0,0 0,0 0.1,-0.1 0.1,0 0.1,0.1 0,-0.1 0,-0.1 0,0 z"
   id="path234" />
	</g>
</g>
<g
   class="st17"
   id="g246"
   transform="translate(-164.01268,-133.60192)"
   inkscape:export-filename="G:\Mi unidad\WORKING_MEMORY\PAPER\WM_manuscript_FIGURES\Fig. 1 Behavior\polyline4.png"
   inkscape:export-xdpi="1500"
   inkscape:export-ydpi="1500">
	<g
   id="g244">
		<path
   class="st18"
   d="m 241.9,160.2 c -0.2,0 -0.3,-0.1 -0.5,-0.1 -0.6,-0.1 -1.2,-0.2 -1.8,-0.3 -0.2,0 -0.3,-0.1 -0.5,-0.1 v 0 c 0.2,0 0.3,0.1 0.5,0.1 0.6,0.1 1.2,0.2 1.8,0.3 0.2,0.1 0.4,0.1 0.5,0.1 z"
   id="path240" />
		<path
   class="st20"
   d="m 241.9,160.2 c -0.2,0 -0.3,-0.1 -0.5,-0.1 -0.6,-0.1 -1.2,-0.2 -1.8,-0.3 -0.2,0 -0.3,-0.1 -0.5,-0.1 v 0 c 0.2,0 0.3,0.1 0.5,0.1 0.6,0.1 1.2,0.2 1.8,0.3 0.2,0.1 0.4,0.1 0.5,0.1 z"
   id="path242" />
	</g>
</g>
<g
   class="st17"
   id="g254"
   transform="translate(-164.01268,-133.60192)"
   inkscape:export-filename="G:\Mi unidad\WORKING_MEMORY\PAPER\WM_manuscript_FIGURES\Fig. 1 Behavior\polyline4.png"
   inkscape:export-xdpi="1500"
   inkscape:export-ydpi="1500">
	<g
   id="g252">
		<path
   class="st18"
   d="m 241.8,160.6 c -0.1,0 -0.3,0.1 -0.5,0.1 -0.4,0.1 -0.8,0.1 -1.1,0.1 -0.1,0 -0.3,0 -0.4,0 v 0 c 0.1,0 0.3,0 0.4,0 0.4,0 0.8,0 1.1,-0.1 0.2,0 0.4,-0.1 0.5,-0.1 z"
   id="path248" />
		<path
   class="st21"
   d="m 241.8,160.6 c -0.1,0 -0.3,0.1 -0.5,0.1 -0.4,0.1 -0.8,0.1 -1.1,0.1 -0.1,0 -0.3,0 -0.4,0 v 0 c 0.1,0 0.3,0 0.4,0 0.4,0 0.8,0 1.1,-0.1 0.2,0 0.4,-0.1 0.5,-0.1 z"
   id="path250" />
	</g>
</g>
<g
   class="st17"
   id="g262"
   transform="translate(-164.01268,-133.60192)"
   inkscape:export-filename="G:\Mi unidad\WORKING_MEMORY\PAPER\WM_manuscript_FIGURES\Fig. 1 Behavior\polyline4.png"
   inkscape:export-xdpi="1500"
   inkscape:export-ydpi="1500">
	<g
   id="g260">
		<path
   class="st22"
   d="m 242.9,158.7 c -0.1,-0.2 -0.1,-0.5 0.1,-0.7 0.2,-0.2 0.4,-0.2 0.6,0 0.2,0.2 0.2,0.4 0.1,0.6 l -0.4,-0.3 z"
   id="path256" />
		<path
   class="st23"
   d="m 242.9,158.7 c -0.1,-0.2 -0.1,-0.5 0.1,-0.7 0.2,-0.2 0.4,-0.2 0.6,0 0.2,0.2 0.2,0.4 0.1,0.6 l -0.4,-0.3 z"
   id="path258" />
	</g>
</g>
<g
   class="st17"
   id="g270"
   transform="translate(-164.01268,-133.60192)"
   inkscape:export-filename="G:\Mi unidad\WORKING_MEMORY\PAPER\WM_manuscript_FIGURES\Fig. 1 Behavior\polyline4.png"
   inkscape:export-xdpi="1500"
   inkscape:export-ydpi="1500">
	<g
   id="g268">
		<path
   class="st22"
   d="m 243.1,163.2 c -0.1,0.5 -0.3,0.8 -0.6,0.7 -0.3,0 -0.5,-0.5 -0.4,-0.9 0.1,-0.5 0.3,-0.8 0.6,-0.7 0.2,0 0.4,0.4 0.4,0.9 z"
   id="path264" />
		<path
   class="st24"
   d="m 243.1,163.2 c -0.1,0.5 -0.3,0.8 -0.6,0.7 -0.3,0 -0.5,-0.5 -0.4,-0.9 0.1,-0.5 0.3,-0.8 0.6,-0.7 0.2,0 0.4,0.4 0.4,0.9 z"
   id="path266" />
	</g>
</g>
<g
   class="st17"
   id="g278"
   transform="translate(-164.01268,-133.60192)"
   inkscape:export-filename="G:\Mi unidad\WORKING_MEMORY\PAPER\WM_manuscript_FIGURES\Fig. 1 Behavior\polyline4.png"
   inkscape:export-xdpi="1500"
   inkscape:export-ydpi="1500">
	<g
   id="g276">
		<path
   class="st22"
   d="m 244.9,163 c 0.1,0.5 -0.1,0.9 -0.4,0.9 -0.3,0.1 -0.6,-0.3 -0.6,-0.7 -0.1,-0.5 0.1,-0.9 0.4,-0.9 0.3,0 0.5,0.3 0.6,0.7 z"
   id="path272" />
		<path
   class="st24"
   d="m 244.9,163 c 0.1,0.5 -0.1,0.9 -0.4,0.9 -0.3,0.1 -0.6,-0.3 -0.6,-0.7 -0.1,-0.5 0.1,-0.9 0.4,-0.9 0.3,0 0.5,0.3 0.6,0.7 z"
   id="path274" />
	</g>
</g>
<g
   class="st17"
   id="g286"
   transform="translate(-164.01268,-133.60192)"
   inkscape:export-filename="G:\Mi unidad\WORKING_MEMORY\PAPER\WM_manuscript_FIGURES\Fig. 1 Behavior\polyline4.png"
   inkscape:export-xdpi="1500"
   inkscape:export-ydpi="1500">
	<g
   id="g284">
		<path
   class="st22"
   d="m 239.6,168.3 c 0.1,1.7 -0.6,2.5 -1,2.9 -0.1,0 -0.2,0.1 -0.3,0.1 0,0 0.2,-0.1 0.3,-0.1 0.8,-0.3 1.3,-2.5 0.6,-3.5 l 0.3,-0.4 c -0.1,0.3 0,0.8 0.1,1 z"
   id="path280" />
		<path
   class="st25"
   d="m 239.6,168.3 c 0.1,1.7 -0.6,2.5 -1,2.9 -0.1,0 -0.2,0.1 -0.3,0.1 0,0 0.2,-0.1 0.3,-0.1 0.8,-0.3 1.3,-2.5 0.6,-3.5 l 0.3,-0.4 c -0.1,0.3 0,0.8 0.1,1 z"
   id="path282" />
	</g>
</g>
<g
   id="g292"
   transform="translate(-164.01268,-133.60192)"
   inkscape:export-filename="G:\Mi unidad\WORKING_MEMORY\PAPER\WM_manuscript_FIGURES\Fig. 1 Behavior\polyline4.png"
   inkscape:export-xdpi="1500"
   inkscape:export-ydpi="1500">
	<path
   class="st26"
   d="m 238.2,171.1 c 0,-0.2 0,-0.6 0,-0.9 0.1,-0.6 0.2,-1.3 0.6,-1.9 0.1,-0.2 0.2,-0.4 0.2,-0.4 0,0 0.1,0.2 0.2,0.3 0.2,0.4 0.2,1.1 0,1.6 -0.1,0.4 -0.2,0.7 -0.4,0.9 -0.1,0.1 -0.2,0.2 -0.3,0.3 -0.1,0.1 -0.2,0.1 -0.3,0.1 0,0 0,0 0,0 z"
   id="path288" />
	<path
   class="st27"
   d="m 238.2,171.1 c 0,-0.2 0,-0.6 0,-0.9 0.1,-0.6 0.2,-1.3 0.6,-1.9 0.1,-0.2 0.2,-0.4 0.2,-0.4 0,0 0.1,0.2 0.2,0.3 0.2,0.4 0.2,1.1 0,1.6 -0.1,0.4 -0.2,0.7 -0.4,0.9 -0.1,0.1 -0.2,0.2 -0.3,0.3 -0.1,0.1 -0.2,0.1 -0.3,0.1 0,0 0,0 0,0 z"
   id="path290" />
</g>
<g
   class="st17"
   id="g300"
   transform="translate(-164.01268,-133.60192)"
   inkscape:export-filename="G:\Mi unidad\WORKING_MEMORY\PAPER\WM_manuscript_FIGURES\Fig. 1 Behavior\polyline4.png"
   inkscape:export-xdpi="1500"
   inkscape:export-ydpi="1500">
	<g
   id="g298">
		<path
   class="st22"
   d="m 247.1,168 c 0,1.7 0.7,2.4 1.2,2.8 0.1,0 0.2,0.1 0.3,0.1 0,0 -0.2,-0.1 -0.3,-0.1 -0.8,-0.3 -1.5,-2.4 -0.8,-3.5 l -0.3,-0.4 c 0,0.4 -0.1,0.9 -0.1,1.1 z"
   id="path294" />
		<path
   class="st25"
   d="m 247.1,168 c 0,1.7 0.7,2.4 1.2,2.8 0.1,0 0.2,0.1 0.3,0.1 0,0 -0.2,-0.1 -0.3,-0.1 -0.8,-0.3 -1.5,-2.4 -0.8,-3.5 l -0.3,-0.4 c 0,0.4 -0.1,0.9 -0.1,1.1 z"
   id="path296" />
	</g>
</g>
<g
   id="g306"
   transform="translate(-164.01268,-133.60192)"
   inkscape:export-filename="G:\Mi unidad\WORKING_MEMORY\PAPER\WM_manuscript_FIGURES\Fig. 1 Behavior\polyline4.png"
   inkscape:export-xdpi="1500"
   inkscape:export-ydpi="1500">
	<path
   class="st28"
   d="m 248.5,170.7 c -0.6,-0.2 -1.1,-1.5 -1,-2.5 0,-0.3 0.1,-0.6 0.2,-0.7 0,-0.1 0.1,0 0.2,0.2 0.3,0.5 0.6,1.3 0.7,1.8 0.1,0.3 0.1,0.9 0.1,1.1 v 0.2 z"
   id="path302" />
	<path
   class="st29"
   d="m 248.5,170.7 c -0.6,-0.2 -1.1,-1.5 -1,-2.5 0,-0.3 0.1,-0.6 0.2,-0.7 0,-0.1 0.1,0 0.2,0.2 0.3,0.5 0.6,1.3 0.7,1.8 0.1,0.3 0.1,0.9 0.1,1.1 v 0.2 z"
   id="path304" />
</g>
<g
   class="st17"
   id="g314"
   transform="translate(-164.01268,-133.60192)"
   inkscape:export-filename="G:\Mi unidad\WORKING_MEMORY\PAPER\WM_manuscript_FIGURES\Fig. 1 Behavior\polyline4.png"
   inkscape:export-xdpi="1500"
   inkscape:export-ydpi="1500">
	<g
   id="g312">
		<path
   class="st22"
   d="m 242.8,162.6 c 0,0.1 -0.1,0.2 -0.2,0.2 -0.1,0 -0.2,-0.1 -0.2,-0.2 0,-0.1 0.1,-0.2 0.2,-0.2 0.1,0 0.2,0.1 0.2,0.2 z"
   id="path308" />
		<path
   class="st30"
   d="m 242.8,162.6 c 0,0.1 -0.1,0.2 -0.2,0.2 -0.1,0 -0.2,-0.1 -0.2,-0.2 0,-0.1 0.1,-0.2 0.2,-0.2 0.1,0 0.2,0.1 0.2,0.2 z"
   id="path310" />
	</g>
</g>
<g
   class="st17"
   id="g322"
   transform="translate(-164.01268,-133.60192)"
   inkscape:export-filename="G:\Mi unidad\WORKING_MEMORY\PAPER\WM_manuscript_FIGURES\Fig. 1 Behavior\polyline4.png"
   inkscape:export-xdpi="1500"
   inkscape:export-ydpi="1500">
	<g
   id="g320">
		<path
   class="st22"
   d="m 244.5,162.6 c 0,0.1 -0.1,0.2 -0.2,0.2 -0.1,0 -0.2,-0.1 -0.2,-0.2 0,-0.1 0.1,-0.2 0.2,-0.2 0.1,0 0.2,0.1 0.2,0.2 z"
   id="path316" />
		<path
   class="st30"
   d="m 244.5,162.6 c 0,0.1 -0.1,0.2 -0.2,0.2 -0.1,0 -0.2,-0.1 -0.2,-0.2 0,-0.1 0.1,-0.2 0.2,-0.2 0.1,0 0.2,0.1 0.2,0.2 z"
   id="path318" />
	</g>
</g>
<path
   class="st31"
   d="m 115.28732,21.798077 c 0,0.3 0.1,0.6 0.3,0.8 0.2,0.2 0.4,0.4 0.6,0.4 0.2,0 0.5,-0.1 0.6,-0.4 0.2,-0.2 0.3,-0.5 0.3,-0.8 0,-0.3 -0.1,-0.6 -0.3,-0.9 -0.2,-0.2 -0.4,-0.4 -0.6,-0.4 -0.2,0 -0.5,0.1 -0.6,0.4 -0.2,0.2 -0.3,0.5 -0.3,0.9 z"
   id="path324"
   inkscape:export-filename="G:\Mi unidad\WORKING_MEMORY\PAPER\WM_manuscript_FIGURES\Fig. 1 Behavior\polyline4.png"
   inkscape:export-xdpi="1500"
   inkscape:export-ydpi="1500" />
<path
   class="st32"
   d="m 115.28732,21.798077 c 0,0.3 0.1,0.6 0.3,0.8 0.2,0.2 0.4,0.4 0.6,0.4 0.2,0 0.5,-0.1 0.6,-0.4 0.2,-0.2 0.3,-0.5 0.3,-0.8 0,-0.3 -0.1,-0.6 -0.3,-0.9 -0.2,-0.2 -0.4,-0.4 -0.6,-0.4 -0.2,0 -0.5,0.1 -0.6,0.4 -0.2,0.2 -0.3,0.5 -0.3,0.9 z"
   id="path326"
   inkscape:export-filename="G:\Mi unidad\WORKING_MEMORY\PAPER\WM_manuscript_FIGURES\Fig. 1 Behavior\polyline4.png"
   inkscape:export-xdpi="1500"
   inkscape:export-ydpi="1500" />
<g
   class="st17"
   id="g334"
   transform="translate(-170.01268,-133.60192)"
   inkscape:export-filename="G:\Mi unidad\WORKING_MEMORY\PAPER\WM_manuscript_FIGURES\Fig. 1 Behavior\polyline4.png"
   inkscape:export-xdpi="1500"
   inkscape:export-ydpi="1500">
	<g
   id="g332">
		<path
   class="st33"
   d="m 285.4,154.7 c -0.1,0.4 0.1,-0.4 0.2,-0.5 1.8,-0.2 1.5,1.4 1.2,2 -0.1,0.2 2.3,-4.2 2.3,-4.5 0,-0.3 -0.1,-0.6 -0.2,-0.8 -0.2,-0.2 -0.5,-0.4 -0.7,-0.4 -0.2,0 -0.7,0.5 -0.8,0.7 -0.8,1.5 -1.9,3.1 -2,3.5 z"
   id="path328" />
		<path
   class="st34"
   d="m 285.4,154.7 c -0.1,0.4 0.1,-0.4 0.2,-0.5 1.8,-0.2 1.5,1.4 1.2,2 -0.1,0.2 2.3,-4.2 2.3,-4.5 0,-0.3 -0.1,-0.6 -0.2,-0.8 -0.2,-0.2 -0.5,-0.4 -0.7,-0.4 -0.2,0 -0.7,0.5 -0.8,0.7 -0.8,1.5 -1.9,3.1 -2,3.5 z"
   id="path330" />
	</g>
</g>
<path
   class="st33"
   d="m 115.38732,21.098077 c -0.1,0.4 0.1,-0.4 0.2,-0.5 1.8,-0.2 1.5,1.4 1.2,2 -0.1,0.2 2.3,-4.2 2.3,-4.5 0,-0.3 -0.1,-0.6 -0.2,-0.8 -0.2,-0.2 -0.5,-0.4 -0.7,-0.4 -0.2,0 -0.7,0.5 -0.8,0.7 -0.8,1.5 -1.9,3.1 -2,3.5 z"
   id="path336"
   inkscape:export-filename="G:\Mi unidad\WORKING_MEMORY\PAPER\WM_manuscript_FIGURES\Fig. 1 Behavior\polyline4.png"
   inkscape:export-xdpi="1500"
   inkscape:export-ydpi="1500" />
<path
   class="st32"
   d="m 115.38732,21.098077 c -0.1,0.4 0.1,-0.4 0.2,-0.5 1.8,-0.2 1.5,1.4 1.2,2 -0.1,0.2 2.3,-4.2 2.3,-4.5 0,-0.3 -0.1,-0.6 -0.2,-0.8 -0.2,-0.2 -0.5,-0.4 -0.7,-0.4 -0.2,0 -0.7,0.5 -0.8,0.7 -0.8,1.5 -1.9,3.1 -2,3.5 z"
   id="path338"
   inkscape:export-filename="G:\Mi unidad\WORKING_MEMORY\PAPER\WM_manuscript_FIGURES\Fig. 1 Behavior\polyline4.png"
   inkscape:export-xdpi="1500"
   inkscape:export-ydpi="1500" />
<path
   class="st35"
   d="m 116.68732,23.198077 c 0,0.5 -0.4,0.8 -0.8,0.8 -0.4,0 -0.8,-0.4 -0.8,-0.8 0,-0.8 1,-1.7 1,-1.7 0,0 0.6,1.2 0.6,1.7 z"
   id="path340"
   inkscape:export-filename="G:\Mi unidad\WORKING_MEMORY\PAPER\WM_manuscript_FIGURES\Fig. 1 Behavior\polyline4.png"
   inkscape:export-xdpi="1500"
   inkscape:export-ydpi="1500" />
<path
   class="st36"
   d="m 116.68732,23.198077 c 0,0.5 -0.4,0.8 -0.8,0.8 -0.4,0 -0.8,-0.4 -0.8,-0.8 0,-0.8 1,-1.7 1,-1.7 0,0 0.6,1.2 0.6,1.7 z"
   id="path342"
   inkscape:export-filename="G:\Mi unidad\WORKING_MEMORY\PAPER\WM_manuscript_FIGURES\Fig. 1 Behavior\polyline4.png"
   inkscape:export-xdpi="1500"
   inkscape:export-ydpi="1500" />
<path
   class="st37"
   d="m 114.08732,23.998077 c -0.3,0.8 -0.3,1.5 0.1,1.7 0.4,0.2 1,-0.2 1.4,-1 0.3,-0.7 0.3,-1.5 -0.1,-1.7 -0.4,-0.2 -1,0.3 -1.4,1 z"
   id="path344"
   inkscape:export-filename="G:\Mi unidad\WORKING_MEMORY\PAPER\WM_manuscript_FIGURES\Fig. 1 Behavior\polyline4.png"
   inkscape:export-xdpi="1500"
   inkscape:export-ydpi="1500" />
<g
   id="g350"
   transform="translate(-170.01268,-133.60192)"
   inkscape:export-filename="G:\Mi unidad\WORKING_MEMORY\PAPER\WM_manuscript_FIGURES\Fig. 1 Behavior\polyline4.png"
   inkscape:export-xdpi="1500"
   inkscape:export-ydpi="1500">
	<path
   class="st15"
   d="m 284.4,158 c -0.8,0 -1.1,1.1 -1.7,2.2 -0.1,0.1 -0.1,0.2 -0.2,0.3 -0.1,0.1 -0.1,0.3 -0.2,0.4 -0.1,0.1 -0.1,0.2 -0.1,0.3 -0.4,1 -0.8,2.1 -0.9,2.6 0,0 0,0.1 0,0.1 -0.2,0.6 -0.3,1.2 -0.3,1.8 0,0.2 0,0.5 0.1,0.7 -1,0.9 -1.8,2.6 -1.8,3.9 0,1.4 0.6,2.2 1.6,2.1 1,-0.1 2.1,-1.3 2.7,-2.7 0.3,0.1 0.7,0.2 1,0.2 0.4,0 0.8,-0.1 1.1,-0.2 0.6,1.4 1.8,2.5 2.7,2.6 1,0.1 1.6,-0.8 1.6,-2.1 0,-1.4 -0.8,-3 -1.8,-3.9 v 0 c 0,-0.2 0,-0.5 0,-0.7 0,-0.8 -0.2,-1.5 -0.5,-2.1 -0.4,-1 -0.7,-1.8 -1,-2.6 0,-0.1 -0.1,-0.2 -0.1,-0.4 -0.1,-0.1 -0.1,-0.2 -0.1,-0.3 -0.1,-0.3 -0.3,-0.5 -0.4,-0.7 -0.8,-1.1 -0.9,-1.5 -1.7,-1.5 z"
   id="path346" />
	<path
   class="st16"
   d="m 284.4,158 c -0.8,0 -1.1,1.1 -1.7,2.2 -0.1,0.1 -0.1,0.2 -0.2,0.3 -0.1,0.1 -0.1,0.3 -0.2,0.4 -0.1,0.1 -0.1,0.2 -0.1,0.3 -0.4,1 -0.8,2.1 -0.9,2.6 0,0 0,0.1 0,0.1 -0.2,0.6 -0.3,1.2 -0.3,1.8 0,0.2 0,0.5 0.1,0.7 -1,0.9 -1.8,2.6 -1.8,3.9 0,1.4 0.6,2.2 1.6,2.1 1,-0.1 2.1,-1.3 2.7,-2.7 0.3,0.1 0.7,0.2 1,0.2 0.4,0 0.8,-0.1 1.1,-0.2 0.6,1.4 1.8,2.5 2.7,2.6 1,0.1 1.6,-0.8 1.6,-2.1 0,-1.4 -0.8,-3 -1.8,-3.9 v 0 c 0,-0.2 0,-0.5 0,-0.7 0,-0.8 -0.2,-1.5 -0.5,-2.1 -0.4,-1 -0.7,-1.8 -1,-2.6 0,-0.1 -0.1,-0.2 -0.1,-0.4 -0.1,-0.1 -0.1,-0.2 -0.1,-0.3 -0.1,-0.3 -0.3,-0.5 -0.4,-0.7 -0.8,-1.1 -0.9,-1.5 -1.7,-1.5 z"
   id="path348" />
</g>
<g
   class="st17"
   id="g358"
   transform="translate(-170.01268,-133.60192)"
   inkscape:export-filename="G:\Mi unidad\WORKING_MEMORY\PAPER\WM_manuscript_FIGURES\Fig. 1 Behavior\polyline4.png"
   inkscape:export-xdpi="1500"
   inkscape:export-ydpi="1500">
	<g
   id="g356">
		<path
   class="st18"
   d="m 285.9,159.9 c 0,-0.1 0.1,-0.1 0.1,-0.1 0.1,-0.1 0,-0.1 0.1,-0.1 0.2,-0.2 0.3,-0.3 0.5,-0.3 0,0 0.1,0 0.1,0 0.3,-0.1 0.7,-0.1 1,-0.2 0.2,0 0.4,-0.1 0.6,-0.1 0,0 0,0 0,0 v 0 c 0,0 0,0 0,0 -0.2,0 -0.4,0.1 -0.6,0.1 -0.3,0 -0.7,0.1 -1,0.2 0,0 -0.1,0 -0.1,0 -0.2,0.1 -0.4,0.2 -0.5,0.3 0,0 -0.1,0.1 -0.1,0.1 0,0 0,0 0,0 -0.1,-0.1 -0.1,0 -0.1,0.1 0,-0.1 0,-0.1 0,0 z"
   id="path352" />
		<path
   class="st19"
   d="m 285.9,159.9 c 0,-0.1 0.1,-0.1 0.1,-0.1 0.1,-0.1 0,-0.1 0.1,-0.1 0.2,-0.2 0.3,-0.3 0.5,-0.3 0,0 0.1,0 0.1,0 0.3,-0.1 0.7,-0.1 1,-0.2 0.2,0 0.4,-0.1 0.6,-0.1 0,0 0,0 0,0 v 0 c 0,0 0,0 0,0 -0.2,0 -0.4,0.1 -0.6,0.1 -0.3,0 -0.7,0.1 -1,0.2 0,0 -0.1,0 -0.1,0 -0.2,0.1 -0.4,0.2 -0.5,0.3 0,0 -0.1,0.1 -0.1,0.1 0,0 0,0 0,0 -0.1,-0.1 -0.1,0 -0.1,0.1 0,-0.1 0,-0.1 0,0 z"
   id="path354" />
	</g>
</g>
<g
   class="st17"
   id="g366"
   transform="translate(-170.01268,-133.60192)"
   inkscape:export-filename="G:\Mi unidad\WORKING_MEMORY\PAPER\WM_manuscript_FIGURES\Fig. 1 Behavior\polyline4.png"
   inkscape:export-xdpi="1500"
   inkscape:export-ydpi="1500">
	<g
   id="g364">
		<path
   class="st18"
   d="m 285.9,160.1 c 0.2,0 0.3,-0.1 0.5,-0.1 0.6,-0.1 1.2,-0.2 1.8,-0.3 0.2,0 0.3,-0.1 0.5,-0.1 v 0 c -0.2,0 -0.3,0.1 -0.5,0.1 -0.6,0.1 -1.2,0.2 -1.8,0.3 -0.2,0.1 -0.4,0.1 -0.5,0.1 z"
   id="path360" />
		<path
   class="st20"
   d="m 285.9,160.1 c 0.2,0 0.3,-0.1 0.5,-0.1 0.6,-0.1 1.2,-0.2 1.8,-0.3 0.2,0 0.3,-0.1 0.5,-0.1 v 0 c -0.2,0 -0.3,0.1 -0.5,0.1 -0.6,0.1 -1.2,0.2 -1.8,0.3 -0.2,0.1 -0.4,0.1 -0.5,0.1 z"
   id="path362" />
	</g>
</g>
<g
   class="st17"
   id="g374"
   transform="translate(-170.01268,-133.60192)"
   inkscape:export-filename="G:\Mi unidad\WORKING_MEMORY\PAPER\WM_manuscript_FIGURES\Fig. 1 Behavior\polyline4.png"
   inkscape:export-xdpi="1500"
   inkscape:export-ydpi="1500">
	<g
   id="g372">
		<path
   class="st18"
   d="m 286,160.5 c 0.2,0 0.3,0.1 0.5,0.1 0.4,0.1 0.8,0.1 1.1,0.1 0.1,0 0.3,0 0.4,0 v 0 c -0.1,0 -0.3,0 -0.4,0 -0.4,0 -0.8,0 -1.1,-0.1 -0.2,0 -0.4,-0.1 -0.5,-0.1 z"
   id="path368" />
		<path
   class="st21"
   d="m 286,160.5 c 0.2,0 0.3,0.1 0.5,0.1 0.4,0.1 0.8,0.1 1.1,0.1 0.1,0 0.3,0 0.4,0 v 0 c -0.1,0 -0.3,0 -0.4,0 -0.4,0 -0.8,0 -1.1,-0.1 -0.2,0 -0.4,-0.1 -0.5,-0.1 z"
   id="path370" />
	</g>
</g>
<g
   class="st17"
   id="g382"
   transform="translate(-170.01268,-133.60192)"
   inkscape:export-filename="G:\Mi unidad\WORKING_MEMORY\PAPER\WM_manuscript_FIGURES\Fig. 1 Behavior\polyline4.png"
   inkscape:export-xdpi="1500"
   inkscape:export-ydpi="1500">
	<g
   id="g380">
		<path
   class="st18"
   d="m 283,159.9 c 0,-0.1 -0.1,-0.1 -0.1,-0.1 -0.1,-0.1 0,-0.1 -0.1,-0.1 -0.2,-0.2 -0.3,-0.3 -0.5,-0.3 0,0 -0.1,0 -0.1,0 -0.3,-0.1 -0.7,-0.1 -1,-0.2 -0.2,0 -0.4,-0.1 -0.6,-0.1 0,0 0,0 0,0 v 0 c 0,0 0,0 0,0 0.2,0 0.4,0.1 0.6,0.1 0.3,0.1 0.7,0.1 1,0.2 0,0 0.1,0 0.1,0 0.2,0.1 0.4,0.2 0.5,0.3 0,0 0.1,0.1 0.1,0.1 0,0 0,0 0,0 0,0 0,0 0.1,0.1 0,0 0,0 0,0 z"
   id="path376" />
		<path
   class="st19"
   d="m 283,159.9 c 0,-0.1 -0.1,-0.1 -0.1,-0.1 -0.1,-0.1 0,-0.1 -0.1,-0.1 -0.2,-0.2 -0.3,-0.3 -0.5,-0.3 0,0 -0.1,0 -0.1,0 -0.3,-0.1 -0.7,-0.1 -1,-0.2 -0.2,0 -0.4,-0.1 -0.6,-0.1 0,0 0,0 0,0 v 0 c 0,0 0,0 0,0 0.2,0 0.4,0.1 0.6,0.1 0.3,0.1 0.7,0.1 1,0.2 0,0 0.1,0 0.1,0 0.2,0.1 0.4,0.2 0.5,0.3 0,0 0.1,0.1 0.1,0.1 0,0 0,0 0,0 0,0 0,0 0.1,0.1 0,0 0,0 0,0 z"
   id="path378" />
	</g>
</g>
<g
   class="st17"
   id="g390"
   transform="translate(-170.01268,-133.60192)"
   inkscape:export-filename="G:\Mi unidad\WORKING_MEMORY\PAPER\WM_manuscript_FIGURES\Fig. 1 Behavior\polyline4.png"
   inkscape:export-xdpi="1500"
   inkscape:export-ydpi="1500">
	<g
   id="g388">
		<path
   class="st18"
   d="m 283,160.2 c -0.2,0 -0.3,-0.1 -0.5,-0.1 -0.6,-0.1 -1.2,-0.2 -1.8,-0.3 -0.2,0 -0.3,-0.1 -0.5,-0.1 v 0 c 0.2,0 0.3,0.1 0.5,0.1 0.6,0.1 1.2,0.2 1.8,0.3 0.2,0 0.3,0 0.5,0.1 z"
   id="path384" />
		<path
   class="st20"
   d="m 283,160.2 c -0.2,0 -0.3,-0.1 -0.5,-0.1 -0.6,-0.1 -1.2,-0.2 -1.8,-0.3 -0.2,0 -0.3,-0.1 -0.5,-0.1 v 0 c 0.2,0 0.3,0.1 0.5,0.1 0.6,0.1 1.2,0.2 1.8,0.3 0.2,0 0.3,0 0.5,0.1 z"
   id="path386" />
	</g>
</g>
<g
   class="st17"
   id="g398"
   transform="translate(-170.01268,-133.60192)"
   inkscape:export-filename="G:\Mi unidad\WORKING_MEMORY\PAPER\WM_manuscript_FIGURES\Fig. 1 Behavior\polyline4.png"
   inkscape:export-xdpi="1500"
   inkscape:export-ydpi="1500">
	<g
   id="g396">
		<path
   class="st18"
   d="m 282.9,160.5 c -0.1,0 -0.3,0.1 -0.5,0.1 -0.4,0.1 -0.8,0.1 -1.1,0.1 -0.1,0 -0.3,0 -0.4,0 v 0 c 0.1,0 0.3,0 0.4,0 0.4,0 0.8,0 1.1,-0.1 0.2,0 0.3,0 0.5,-0.1 z"
   id="path392" />
		<path
   class="st21"
   d="m 282.9,160.5 c -0.1,0 -0.3,0.1 -0.5,0.1 -0.4,0.1 -0.8,0.1 -1.1,0.1 -0.1,0 -0.3,0 -0.4,0 v 0 c 0.1,0 0.3,0 0.4,0 0.4,0 0.8,0 1.1,-0.1 0.2,0 0.3,0 0.5,-0.1 z"
   id="path394" />
	</g>
</g>
<g
   class="st17"
   id="g406"
   transform="translate(-170.01268,-133.60192)"
   inkscape:export-filename="G:\Mi unidad\WORKING_MEMORY\PAPER\WM_manuscript_FIGURES\Fig. 1 Behavior\polyline4.png"
   inkscape:export-xdpi="1500"
   inkscape:export-ydpi="1500">
	<g
   id="g404">
		<path
   class="st22"
   d="m 284,158.6 c -0.1,-0.2 -0.1,-0.5 0.1,-0.7 0.2,-0.2 0.4,-0.2 0.6,0 0.2,0.2 0.2,0.4 0.1,0.6 l -0.4,-0.3 z"
   id="path400" />
		<path
   class="st23"
   d="m 284,158.6 c -0.1,-0.2 -0.1,-0.5 0.1,-0.7 0.2,-0.2 0.4,-0.2 0.6,0 0.2,0.2 0.2,0.4 0.1,0.6 l -0.4,-0.3 z"
   id="path402" />
	</g>
</g>
<g
   class="st17"
   id="g414"
   transform="translate(-170.01268,-133.60192)"
   inkscape:export-filename="G:\Mi unidad\WORKING_MEMORY\PAPER\WM_manuscript_FIGURES\Fig. 1 Behavior\polyline4.png"
   inkscape:export-xdpi="1500"
   inkscape:export-ydpi="1500">
	<g
   id="g412">
		<path
   class="st22"
   d="m 284.1,163.2 c -0.1,0.5 -0.3,0.8 -0.6,0.7 -0.3,0 -0.5,-0.5 -0.4,-0.9 0.1,-0.5 0.3,-0.8 0.6,-0.7 0.3,0 0.5,0.4 0.4,0.9 z"
   id="path408" />
		<path
   class="st24"
   d="m 284.1,163.2 c -0.1,0.5 -0.3,0.8 -0.6,0.7 -0.3,0 -0.5,-0.5 -0.4,-0.9 0.1,-0.5 0.3,-0.8 0.6,-0.7 0.3,0 0.5,0.4 0.4,0.9 z"
   id="path410" />
	</g>
</g>
<g
   class="st17"
   id="g422"
   transform="translate(-170.01268,-133.60192)"
   inkscape:export-filename="G:\Mi unidad\WORKING_MEMORY\PAPER\WM_manuscript_FIGURES\Fig. 1 Behavior\polyline4.png"
   inkscape:export-xdpi="1500"
   inkscape:export-ydpi="1500">
	<g
   id="g420">
		<path
   class="st22"
   d="m 286,163 c 0.1,0.5 -0.1,0.9 -0.4,0.9 -0.3,0.1 -0.6,-0.3 -0.6,-0.7 -0.1,-0.5 0.1,-0.9 0.4,-0.9 0.2,-0.1 0.5,0.2 0.6,0.7 z"
   id="path416" />
		<path
   class="st24"
   d="m 286,163 c 0.1,0.5 -0.1,0.9 -0.4,0.9 -0.3,0.1 -0.6,-0.3 -0.6,-0.7 -0.1,-0.5 0.1,-0.9 0.4,-0.9 0.2,-0.1 0.5,0.2 0.6,0.7 z"
   id="path418" />
	</g>
</g>
<g
   class="st17"
   id="g430"
   transform="translate(-170.01268,-133.60192)"
   inkscape:export-filename="G:\Mi unidad\WORKING_MEMORY\PAPER\WM_manuscript_FIGURES\Fig. 1 Behavior\polyline4.png"
   inkscape:export-xdpi="1500"
   inkscape:export-ydpi="1500">
	<g
   id="g428">
		<path
   class="st22"
   d="m 280.6,168.3 c 0.1,1.7 -0.6,2.5 -1,2.8 -0.1,0 -0.2,0.1 -0.3,0.1 0,0 0.2,-0.1 0.3,-0.1 0.8,-0.3 1.3,-2.5 0.6,-3.5 l 0.2,-0.4 c 0.1,0.3 0.2,0.8 0.2,1.1 z"
   id="path424" />
		<path
   class="st25"
   d="m 280.6,168.3 c 0.1,1.7 -0.6,2.5 -1,2.8 -0.1,0 -0.2,0.1 -0.3,0.1 0,0 0.2,-0.1 0.3,-0.1 0.8,-0.3 1.3,-2.5 0.6,-3.5 l 0.2,-0.4 c 0.1,0.3 0.2,0.8 0.2,1.1 z"
   id="path426" />
	</g>
</g>
<g
   class="st17"
   id="g438"
   transform="translate(-170.01268,-133.60192)"
   inkscape:export-filename="G:\Mi unidad\WORKING_MEMORY\PAPER\WM_manuscript_FIGURES\Fig. 1 Behavior\polyline4.png"
   inkscape:export-xdpi="1500"
   inkscape:export-ydpi="1500">
	<g
   id="g436">
		<path
   class="st26"
   d="m 279.3,171.1 c 0,-0.2 0,-0.6 0,-0.9 0.1,-0.6 0.2,-1.3 0.6,-1.9 0.1,-0.2 0.2,-0.4 0.2,-0.4 0,0 0.1,0.2 0.2,0.3 0.2,0.4 0.2,1.1 0,1.6 -0.1,0.4 -0.2,0.7 -0.4,0.9 -0.1,0.1 -0.2,0.2 -0.3,0.3 -0.1,0 -0.3,0.1 -0.3,0.1 0,0 0,0 0,0 z"
   id="path432" />
		<path
   class="st27"
   d="m 279.3,171.1 c 0,-0.2 0,-0.6 0,-0.9 0.1,-0.6 0.2,-1.3 0.6,-1.9 0.1,-0.2 0.2,-0.4 0.2,-0.4 0,0 0.1,0.2 0.2,0.3 0.2,0.4 0.2,1.1 0,1.6 -0.1,0.4 -0.2,0.7 -0.4,0.9 -0.1,0.1 -0.2,0.2 -0.3,0.3 -0.1,0 -0.3,0.1 -0.3,0.1 0,0 0,0 0,0 z"
   id="path434" />
	</g>
</g>
<g
   class="st17"
   id="g446"
   transform="translate(-170.01268,-133.60192)"
   inkscape:export-filename="G:\Mi unidad\WORKING_MEMORY\PAPER\WM_manuscript_FIGURES\Fig. 1 Behavior\polyline4.png"
   inkscape:export-xdpi="1500"
   inkscape:export-ydpi="1500">
	<g
   id="g444">
		<path
   class="st22"
   d="m 288.2,168 c 0,1.7 0.7,2.4 1.2,2.8 0.1,0 0.2,0.1 0.4,0.1 0,0 -0.2,-0.1 -0.3,-0.1 -0.8,-0.3 -1.5,-2.4 -0.8,-3.5 l -0.3,-0.4 c -0.1,0.3 -0.2,0.9 -0.2,1.1 z"
   id="path440" />
		<path
   class="st25"
   d="m 288.2,168 c 0,1.7 0.7,2.4 1.2,2.8 0.1,0 0.2,0.1 0.4,0.1 0,0 -0.2,-0.1 -0.3,-0.1 -0.8,-0.3 -1.5,-2.4 -0.8,-3.5 l -0.3,-0.4 c -0.1,0.3 -0.2,0.9 -0.2,1.1 z"
   id="path442" />
	</g>
</g>
<g
   id="g452"
   transform="translate(-170.01268,-133.60192)"
   inkscape:export-filename="G:\Mi unidad\WORKING_MEMORY\PAPER\WM_manuscript_FIGURES\Fig. 1 Behavior\polyline4.png"
   inkscape:export-xdpi="1500"
   inkscape:export-ydpi="1500">
	<path
   class="st28"
   d="m 289.6,170.7 c -0.6,-0.2 -1.1,-1.5 -1,-2.5 0,-0.3 0.1,-0.6 0.2,-0.7 0,-0.1 0.1,0 0.2,0.2 0.3,0.5 0.6,1.2 0.7,1.8 0.1,0.3 0.1,0.9 0.1,1.1 v 0.2 z"
   id="path448" />
	<path
   class="st29"
   d="m 289.6,170.7 c -0.6,-0.2 -1.1,-1.5 -1,-2.5 0,-0.3 0.1,-0.6 0.2,-0.7 0,-0.1 0.1,0 0.2,0.2 0.3,0.5 0.6,1.2 0.7,1.8 0.1,0.3 0.1,0.9 0.1,1.1 v 0.2 z"
   id="path450" />
</g>
<g
   class="st17"
   id="g460"
   transform="translate(-170.01268,-133.60192)"
   inkscape:export-filename="G:\Mi unidad\WORKING_MEMORY\PAPER\WM_manuscript_FIGURES\Fig. 1 Behavior\polyline4.png"
   inkscape:export-xdpi="1500"
   inkscape:export-ydpi="1500">
	<g
   id="g458">
		<path
   class="st22"
   d="m 283.9,162.5 c 0,0.1 -0.1,0.2 -0.2,0.2 -0.1,0 -0.2,-0.1 -0.2,-0.2 0,-0.1 0.1,-0.2 0.2,-0.2 0.1,0.1 0.2,0.1 0.2,0.2 z"
   id="path454" />
		<path
   class="st30"
   d="m 283.9,162.5 c 0,0.1 -0.1,0.2 -0.2,0.2 -0.1,0 -0.2,-0.1 -0.2,-0.2 0,-0.1 0.1,-0.2 0.2,-0.2 0.1,0.1 0.2,0.1 0.2,0.2 z"
   id="path456" />
	</g>
</g>
<g
   class="st17"
   id="g468"
   transform="translate(-170.01268,-133.60192)"
   inkscape:export-filename="G:\Mi unidad\WORKING_MEMORY\PAPER\WM_manuscript_FIGURES\Fig. 1 Behavior\polyline4.png"
   inkscape:export-xdpi="1500"
   inkscape:export-ydpi="1500">
	<g
   id="g466">
		<path
   class="st22"
   d="m 285.6,162.6 c 0,0.1 -0.1,0.2 -0.2,0.2 -0.1,0 -0.2,-0.1 -0.2,-0.2 0,-0.1 0.1,-0.2 0.2,-0.2 0.1,0 0.2,0.1 0.2,0.2 z"
   id="path462" />
		<path
   class="st30"
   d="m 285.6,162.6 c 0,0.1 -0.1,0.2 -0.2,0.2 -0.1,0 -0.2,-0.1 -0.2,-0.2 0,-0.1 0.1,-0.2 0.2,-0.2 0.1,0 0.2,0.1 0.2,0.2 z"
   id="path464" />
	</g>
</g>
<path
   class="st31"
   d="m 113.48732,21.798077 c 0,0.3 -0.1,0.6 -0.3,0.8 -0.2,0.2 -0.4,0.4 -0.6,0.4 -0.2,0 -0.5,-0.1 -0.6,-0.4 -0.2,-0.2 -0.3,-0.5 -0.3,-0.8 0,-0.3 0.1,-0.6 0.3,-0.9 0.2,-0.2 0.4,-0.4 0.6,-0.4 0.2,0 0.5,0.1 0.6,0.4 0.2,0.2 0.3,0.5 0.3,0.9 z"
   id="path470"
   inkscape:export-filename="G:\Mi unidad\WORKING_MEMORY\PAPER\WM_manuscript_FIGURES\Fig. 1 Behavior\polyline4.png"
   inkscape:export-xdpi="1500"
   inkscape:export-ydpi="1500" />
<path
   class="st32"
   d="m 113.48732,21.798077 c 0,0.3 -0.1,0.6 -0.3,0.8 -0.2,0.2 -0.4,0.4 -0.6,0.4 -0.2,0 -0.5,-0.1 -0.6,-0.4 -0.2,-0.2 -0.3,-0.5 -0.3,-0.8 0,-0.3 0.1,-0.6 0.3,-0.9 0.2,-0.2 0.4,-0.4 0.6,-0.4 0.2,0 0.5,0.1 0.6,0.4 0.2,0.2 0.3,0.5 0.3,0.9 z"
   id="path472"
   inkscape:export-filename="G:\Mi unidad\WORKING_MEMORY\PAPER\WM_manuscript_FIGURES\Fig. 1 Behavior\polyline4.png"
   inkscape:export-xdpi="1500"
   inkscape:export-ydpi="1500" />
<g
   class="st17"
   id="g480"
   transform="translate(-170.01268,-133.60192)"
   inkscape:export-filename="G:\Mi unidad\WORKING_MEMORY\PAPER\WM_manuscript_FIGURES\Fig. 1 Behavior\polyline4.png"
   inkscape:export-xdpi="1500"
   inkscape:export-ydpi="1500">
	<g
   id="g478">
		<path
   class="st33"
   d="m 283.3,154.7 c 0.1,0.4 -0.1,-0.4 -0.2,-0.5 -1.8,-0.2 -1.5,1.4 -1.2,2 0.1,0.2 -2.3,-4.2 -2.3,-4.5 0,-0.3 0.1,-0.6 0.2,-0.8 0.2,-0.2 0.5,-0.4 0.7,-0.4 0.2,0 0.7,0.5 0.8,0.7 0.8,1.5 1.9,3.1 2,3.5 z"
   id="path474" />
		<path
   class="st34"
   d="m 283.3,154.7 c 0.1,0.4 -0.1,-0.4 -0.2,-0.5 -1.8,-0.2 -1.5,1.4 -1.2,2 0.1,0.2 -2.3,-4.2 -2.3,-4.5 0,-0.3 0.1,-0.6 0.2,-0.8 0.2,-0.2 0.5,-0.4 0.7,-0.4 0.2,0 0.7,0.5 0.8,0.7 0.8,1.5 1.9,3.1 2,3.5 z"
   id="path476" />
	</g>
</g>
<path
   class="st33"
   d="m 113.28732,21.098077 c 0.1,0.4 -0.1,-0.4 -0.2,-0.5 -1.8,-0.2 -1.5,1.4 -1.2,2 0.1,0.2 -2.3,-4.2 -2.3,-4.5 0,-0.3 0.1,-0.6 0.2,-0.8 0.2,-0.2 0.5,-0.4 0.7,-0.4 0.2,0 0.7,0.5 0.8,0.7 0.8,1.5 1.9,3.1 2,3.5 z"
   id="path482"
   inkscape:export-filename="G:\Mi unidad\WORKING_MEMORY\PAPER\WM_manuscript_FIGURES\Fig. 1 Behavior\polyline4.png"
   inkscape:export-xdpi="1500"
   inkscape:export-ydpi="1500" />
<path
   class="st32"
   d="m 113.28732,21.098077 c 0.1,0.4 -0.1,-0.4 -0.2,-0.5 -1.8,-0.2 -1.5,1.4 -1.2,2 0.1,0.2 -2.3,-4.2 -2.3,-4.5 0,-0.3 0.1,-0.6 0.2,-0.8 0.2,-0.2 0.5,-0.4 0.7,-0.4 0.2,0 0.7,0.5 0.8,0.7 0.8,1.5 1.9,3.1 2,3.5 z"
   id="path484"
   inkscape:export-filename="G:\Mi unidad\WORKING_MEMORY\PAPER\WM_manuscript_FIGURES\Fig. 1 Behavior\polyline4.png"
   inkscape:export-xdpi="1500"
   inkscape:export-ydpi="1500" />
<line
   class="st38"
   x1="33.076279"
   y1="1.7781304e-05"
   x2="33.076279"
   y2="88.572876"
   id="line486"
   inkscape:export-filename="G:\Mi unidad\WORKING_MEMORY\PAPER\WM_manuscript_FIGURES\Fig. 1 Behavior\polyline4.png"
   inkscape:export-xdpi="1500"
   inkscape:export-ydpi="1500" />
<line
   class="st38"
   x1="60.882553"
   y1="0.26804751"
   x2="60.882553"
   y2="88.572868"
   id="line488"
   inkscape:export-filename="G:\Mi unidad\WORKING_MEMORY\PAPER\WM_manuscript_FIGURES\Fig. 1 Behavior\polyline4.png"
   inkscape:export-xdpi="1500"
   inkscape:export-ydpi="1500" />
<line
   class="st39"
   x1="97.691505"
   y1="0"
   x2="97.691505"
   y2="88.29837"
   id="line490"
   inkscape:export-filename="G:\Mi unidad\WORKING_MEMORY\PAPER\WM_manuscript_FIGURES\Fig. 1 Behavior\polyline4.png"
   inkscape:export-xdpi="1500"
   inkscape:export-ydpi="1500" />
<line
   class="st38"
   x1="128.19836"
   y1="0.80411321"
   x2="128.19836"
   y2="88.02771"
   id="line492"
   inkscape:export-filename="G:\Mi unidad\WORKING_MEMORY\PAPER\WM_manuscript_FIGURES\Fig. 1 Behavior\polyline4.png"
   inkscape:export-xdpi="1500"
   inkscape:export-ydpi="1500" />
<text
   id="text500"
   inkscape:export-filename="G:\Mi unidad\WORKING_MEMORY\PAPER\WM_manuscript_FIGURES\Fig. 1 Behavior\polyline4.png"
   inkscape:export-xdpi="1500"
   inkscape:export-ydpi="1500"
   x="70.543518"
   y="7.5067973"><tspan
     x="70.543518"
     y="7.5067973"
     class="st1 st2"
     id="tspan494">Del</tspan><tspan
     x="80.143524"
     y="7.5067973"
     class="st1 st2"
     id="tspan496">a</tspan><tspan
     x="83.643524"
     y="7.5067973"
     class="st1 st2"
     id="tspan498">y</tspan></text>
<text
   id="text508"
   inkscape:export-filename="G:\Mi unidad\WORKING_MEMORY\PAPER\WM_manuscript_FIGURES\Fig. 1 Behavior\polyline4.png"
   inkscape:export-xdpi="1500"
   inkscape:export-ydpi="1500"
   x="70.491722"
   y="13.654677"><tspan
     x="70.491722"
     y="13.654677"
     class="st1 st40"
     id="tspan502">(0-10</tspan><tspan
     x="82.891724"
     y="13.654677"
     class="st1 st40"
     id="tspan504">s</tspan><tspan
     x="85.191719"
     y="13.654677"
     class="st1 st40"
     id="tspan506">)</tspan></text>
<text
   id="text518"
   inkscape:export-filename="G:\Mi unidad\WORKING_MEMORY\PAPER\WM_manuscript_FIGURES\Fig. 1 Behavior\polyline4.png"
   inkscape:export-xdpi="1500"
   inkscape:export-ydpi="1500"
   x="98.480019"
   y="7.3150773"><tspan
     x="98.480019"
     y="7.3150773"
     class="st1 st2"
     id="tspan510">R</tspan><tspan
     x="102.38002"
     y="7.3150773"
     class="st1 st2"
     id="tspan512">esp</tspan><tspan
     x="112.58002"
     y="7.3150773"
     class="st1 st2"
     id="tspan514">o</tspan><tspan
     x="116.18002"
     y="7.3150773"
     class="st1 st2"
     id="tspan516">nse</tspan></text>
<text
   id="text526"
   inkscape:export-filename="G:\Mi unidad\WORKING_MEMORY\PAPER\WM_manuscript_FIGURES\Fig. 1 Behavior\polyline4.png"
   inkscape:export-xdpi="1500"
   inkscape:export-ydpi="1500"
   x="105.51522"
   y="13.462577"><tspan
     x="105.51522"
     y="13.462577"
     class="st1 st40"
     id="tspan520">(0-2</tspan><tspan
     x="115.11522"
     y="13.462577"
     class="st1 st40"
     id="tspan522">s</tspan><tspan
     x="117.41522"
     y="13.462577"
     class="st1 st40"
     id="tspan524">)</tspan></text>
<text
   class="st1 st2"
   id="text528"
   inkscape:export-filename="G:\Mi unidad\WORKING_MEMORY\PAPER\WM_manuscript_FIGURES\Fig. 1 Behavior\polyline4.png"
   inkscape:export-xdpi="1500"
   inkscape:export-ydpi="1500"
   x="93.815025"
   y="28.161337">Go</text>
<text
   id="text536"
   inkscape:export-filename="G:\Mi unidad\WORKING_MEMORY\PAPER\WM_manuscript_FIGURES\Fig. 1 Behavior\polyline4.png"
   inkscape:export-xdpi="1500"
   inkscape:export-ydpi="1500"
   x="34.126003"
   y="7.5067973"><tspan
     x="34.126003"
     y="7.5067973"
     class="st1 st2"
     id="tspan530">Stim</tspan><tspan
     x="47.726002"
     y="7.5067973"
     class="st1 st2"
     id="tspan532">u</tspan><tspan
     x="51.426003"
     y="7.5067973"
     class="st1 st2"
     id="tspan534">lus</tspan></text>
<text
   id="text544"
   inkscape:export-filename="G:\Mi unidad\WORKING_MEMORY\PAPER\WM_manuscript_FIGURES\Fig. 1 Behavior\polyline4.png"
   inkscape:export-xdpi="1500"
   inkscape:export-ydpi="1500"
   x="36.734901"
   y="13.654677"><tspan
     x="36.734901"
     y="13.654677"
     class="st1 st40"
     id="tspan538">(40</tspan><tspan
     x="44.3349"
     y="13.654677"
     class="st1 st40 st41"
     id="tspan540">0</tspan><tspan
     x="48.634903"
     y="13.654677"
     class="st1 st40"
     id="tspan542">ms)</tspan></text><text
   id="text544-1"
   inkscape:export-filename="G:\Mi unidad\WORKING_MEMORY\PAPER\WM_manuscript_FIGURES\Fig. 1 Behavior\polyline4.png"
   inkscape:export-xdpi="1500"
   inkscape:export-ydpi="1500"
   x="4.5390415"
   y="13.832527"><tspan
     x="4.5390415"
     y="13.832527"
     class="st1 st40"
     id="tspan538-6">(6.5 - 8.5s)</tspan></text>
<text
   class="st1 st2"
   id="text546"
   inkscape:export-filename="G:\Mi unidad\WORKING_MEMORY\PAPER\WM_manuscript_FIGURES\Fig. 1 Behavior\polyline4.png"
   inkscape:export-xdpi="1500"
   inkscape:export-ydpi="1500"
   x="12.286612"
   y="8.0767975">ITI</text>
<path
   style="fill:none;stroke:#000000;stroke-width:0.6;stroke-linecap:butt;stroke-linejoin:miter;stroke-miterlimit:4;stroke-dasharray:none;stroke-opacity:1"
   d="m 125.7588,55.637577 h 5.33204"
   id="path5648"
   inkscape:export-filename="G:\Mi unidad\WORKING_MEMORY\PAPER\WM_manuscript_FIGURES\Fig. 1 Behavior\polyline4.png"
   inkscape:export-xdpi="1500"
   inkscape:export-ydpi="1500" /><path
   style="fill:none;stroke:#000000;stroke-width:0.7;stroke-linecap:butt;stroke-linejoin:miter;stroke-miterlimit:4;stroke-dasharray:none;stroke-opacity:1"
   d="m 125.79054,72.22132 h 5.33204"
   id="path5648-6"
   inkscape:export-filename="G:\Mi unidad\WORKING_MEMORY\PAPER\WM_manuscript_FIGURES\Fig. 1 Behavior\polyline4.png"
   inkscape:export-xdpi="1500"
   inkscape:export-ydpi="1500" /><path
   style="fill:none;stroke:#000000;stroke-width:0.61;stroke-linecap:butt;stroke-linejoin:miter;stroke-miterlimit:4;stroke-dasharray:none;stroke-opacity:1"
   d="m 125.69533,85.583624 h 5.33204"
   id="path5648-6-0"
   inkscape:export-filename="G:\Mi unidad\WORKING_MEMORY\PAPER\WM_manuscript_FIGURES\Fig. 1 Behavior\polyline4.png"
   inkscape:export-xdpi="1500"
   inkscape:export-ydpi="1500" /><rect
   style="fill:#ffffff;fill-opacity:1;fill-rule:evenodd"
   id="rect5988"
   width="6.7285156"
   height="7.3632812"
   x="18.356462"
   y="50.384407"
   inkscape:export-filename="G:\Mi unidad\WORKING_MEMORY\PAPER\WM_manuscript_FIGURES\Fig. 1 Behavior\polyline4.png"
   inkscape:export-xdpi="1500"
   inkscape:export-ydpi="1500" /><text
   transform="scale(1.022278,0.9782075)"
   id="text14"
   style="font-size:12.2673px;stroke-width:1.03736"
   inkscape:export-filename="G:\Mi unidad\WORKING_MEMORY\PAPER\WM_manuscript_FIGURES\Fig. 1 Behavior\polyline4.png"
   inkscape:export-xdpi="1500"
   inkscape:export-ydpi="1500"
   x="1.9754722"
   y="88.304047"><tspan
     x="1.9754722"
     y="88.304047"
     class="st1 st2"
     id="tspan6"
     style="stroke-width:1.03736">R</tspan><tspan
     x="5.9623566"
     y="88.304047"
     class="st1 st2"
     id="tspan8"
     style="stroke-width:1.03736">e</tspan><tspan
     x="9.540329"
     y="88.304047"
     class="st1 st2"
     id="tspan10"
     style="stroke-width:1.03736">w</tspan><tspan
     x="14.447264"
     y="88.304047"
     class="st1 st2"
     id="tspan12"
     style="stroke-width:1.03736">ard</tspan></text><text
   transform="scale(0.98546838,1.0147459)"
   class="st1 st2"
   id="text18"
   style="fill:#000000;fill-opacity:1;stroke-width:1"
   inkscape:export-filename="G:\Mi unidad\WORKING_MEMORY\PAPER\WM_manuscript_FIGURES\Fig. 1 Behavior\polyline4.png"
   inkscape:export-xdpi="1500"
   inkscape:export-ydpi="1500"
   x="4.9289069"
   y="59.968388">Spouts</text><text
   transform="scale(0.98546838,1.0147459)"
   id="text32"
   style="font-size:11.8256px;stroke-width:1"
   inkscape:export-filename="G:\Mi unidad\WORKING_MEMORY\PAPER\WM_manuscript_FIGURES\Fig. 1 Behavior\polyline4.png"
   inkscape:export-xdpi="1500"
   inkscape:export-ydpi="1500"
   x="-0.37785918"
   y="46.550644"><tspan
     x="-0.37785918"
     y="46.550644"
     class="st1 st2"
     id="tspan26"
     style="stroke-width:1">Stim</tspan><tspan
     x="13.024511"
     y="46.550644"
     class="st1 st2"
     id="tspan28"
     style="stroke-width:1">u</tspan><tspan
     x="16.670742"
     y="46.550644"
     class="st1 st2"
     id="tspan30"
     style="stroke-width:1">lus</tspan></text><text
   transform="scale(0.98546838,1.0147459)"
   id="text58"
   style="font-size:11.8256px;stroke-width:1"
   inkscape:export-filename="G:\Mi unidad\WORKING_MEMORY\PAPER\WM_manuscript_FIGURES\Fig. 1 Behavior\polyline4.png"
   inkscape:export-xdpi="1500"
   inkscape:export-ydpi="1500"
   x="10.675676"
   y="72.105911"><tspan
     x="10.675676"
     y="72.105911"
     class="st1 st2"
     id="tspan52"
     style="stroke-width:1">Lic</tspan><tspan
     x="18.460876"
     y="72.105911"
     class="st1 st2"
     id="tspan54"
     style="stroke-width:1">k</tspan><tspan
     x="21.910015"
     y="72.105911"
     class="st1 st2"
     id="tspan56"
     style="stroke-width:1">s</tspan></text></svg>
