<?xml version="1.0" encoding="UTF-8" standalone="no"?>
<svg
   width="785.33105"
   height="837.2074"
   viewBox="-810 0 785.33105 837.2074"
   version="1.2"
   id="svg142"
   sodipodi:docname="ring.svg"
   inkscape:version="1.2.2 (b0a8486541, 2022-12-01)"
   xmlns:inkscape="http://www.inkscape.org/namespaces/inkscape"
   xmlns:sodipodi="http://sodipodi.sourceforge.net/DTD/sodipodi-0.dtd"
   xmlns="http://www.w3.org/2000/svg"
   xmlns:svg="http://www.w3.org/2000/svg"
   xmlns:rdf="http://www.w3.org/1999/02/22-rdf-syntax-ns#"
   xmlns:cc="http://creativecommons.org/ns#"
   xmlns:dc="http://purl.org/dc/elements/1.1/"><defs
   id="defs146" />
<sodipodi:namedview
   id="namedview144"
   pagecolor="#ffffff"
   bordercolor="#666666"
   borderopacity="1.0"
   inkscape:showpageshadow="2"
   inkscape:pageopacity="0.0"
   inkscape:pagecheckerboard="0"
   inkscape:deskcolor="#d1d1d1"
   showgrid="false"
   inkscape:zoom="0.10925926"
   inkscape:cx="466.77966"
   inkscape:cy="796.27118"
   inkscape:window-width="1920"
   inkscape:window-height="1043"
   inkscape:window-x="0"
   inkscape:window-y="0"
   inkscape:window-maximized="1"
   inkscape:current-layer="svg142" />
<title
   id="title2">Biortc</title>

\n<rect
   style="fill:#ffffff;stroke-width:3.77953;stroke-linecap:round;stroke-linejoin:round;stop-color:#000000"
   id="rect409"
   width="783.15015"
   height="840.0675"
   x="-804.45844"
   y="0.39327329"
   ry="0.29889539" />
<g
   id="g8"
   transform="translate(-356.12686,-284.44385)">
  <path
     fill="#304ae0"
     fill-rule="evenodd"
     d="m 82.5,1017 -3,8 -4.5,6.5 -3.5,3.5 -4,2 -2,2 -2.5,0.63 -5,1.87 -4,0.88 -9,0.12 -6,-1.12 -3,-1 -6,-2.88 -1.5,-0.5 -7.5,-7.5 -4.375,-8.5 -1,-3 -0.625,-4.5 -1,-1 1,-1 -1,-6 1,-1 -1,-1 1,-1 0.625,-4.5 1,-3 1.875,-4 3.5,-5.5 6.5,-6.5 4.5,-2.375 9,-2.875 12.5,-0.75 1,1 1,-1 1,1 6.5,1.625 2,0.875 4.5,2.5 6.5,6.5 2,4 2,2 0.625,2.5 0.75,2 0.875,4 v 13 l -0.75,4 m -27.5,18.25 4,-0.87 2,-0.88 5.5,-3.5 2,-1 1.5,-1.5 3.5,-5.5 1.875,-4 1,-3 1.125,-5 v -5 l -1.5,-8.5 -2,-2 -0.5,-1.5 -2.5,-4.5 -2.5,-2.5 -5.25,-3.25 -0.5,-1.5 -1.25,-0.25 -2,-2 -3.5,-0.5 -5,-1.25 h -2 l -7,1.375 -5,1.75 -2.5,0.625 -3,3 h -1 l -3.5,3.5 v 1 l -4,4 -0.5,2.5 -1.125,3 -0.5,2 -0.125,13 0.875,4 1.875,4 3.75,5.75 1.5,0.5 0.5,1.5 2.25,1.25 3,2 2.5,1.38 3,1.12 3,0.75 h 12"
     id="path6" />
</g>
<g
   id="g12"
   transform="translate(-356.12686,-284.44385)">
  <path
     fill="#304ae0"
     fill-rule="evenodd"
     d="m -172,1048.5 -14,0.88 -5,-1 -3,-1 -6,-2.88 -1.5,-0.5 -7.5,-7.5 -4.5,-8.5 -0.75,-2 -0.75,-5.5 -1,-1 1,-1 -1,-1 1.75,-12.5 0.625,-2 0.625,-3.5 2,-2 3,-5 5.5,-5.5 5.5,-3.375 9,-2.875 13,-0.125 9.5,1.375 2,2 4,2 6.5,6.5 v 1 l 3,3 0.625,2.5 1.875,5 0.75,4 0.125,12 -1.125,5 -1.25,4.5 -2,2 -0.5,1.5 -3.5,5.5 -2.5,2.5 -5,3 -2,2 -2.5,0.63 -5,1.87 m 1,-7.12 2,-0.88 5,-3 1.5,-0.5 1.5,-1.5 0.25,-1.25 1.5,-0.5 2.75,-4.75 0.5,-1.5 2,-2 0.5,-3.5 1,-4 v -6 l -1.5,-8.5 -2,-2 v -2 l -3,-3 v -1 l -3.5,-3.5 -2,-1 -6.5,-4.5 -2,-0.75 -5.5,-0.75 -1,-1 -1,1 -7.5,0.75 -3,0.875 -8.5,4.375 -5.5,5.5 -0.5,1.5 -2.875,6 -0.875,4 v 12 l 0.875,4 4.375,8.5 2.5,2.5 1.25,0.25 0.5,1.5 1.75,0.75 2,1 1.5,0.5 2,2 6.5,1.25 15,-0.87"
     id="path10" />
</g>
<g
   id="g16"
   transform="translate(-356.12686,-284.44385)">
  <path
     fill="#304ae0"
     fill-rule="evenodd"
     d="m -358,948.375 -9,0.125 -6,-1.125 -3,-1 -4,-1.875 -4.5,-2.5 -6.5,-6.5 v -1 l -3,-3 -0.5,-2.5 -1.875,-5 -1.125,-4 -0.5,-3.5 1,-1 -1,-1 1.625,-10.5 1,-3 1.875,-4 2.5,-4.5 7.5,-7.5 4.5,-2.375 6,-2.125 4,-0.75 h 13 l 8,1.875 2,0.875 4.5,2.5 6.5,6.5 4.375,8.5 1.125,3 0.75,4 0.125,12 -1,5 -1,3 -1.875,4 -4.5,6.5 -1.5,1.5 -1.25,0.25 -0.5,1.5 -5.75,3.75 -7,2.75 -5,1.125 m 1,-7.125 4,-0.875 2,-0.875 5,-3 1.5,-0.5 1.5,-1.5 4.5,-6.5 1.875,-4 1,-3 1.125,-5 0.5,-4.5 -1,-1 1,-1 -0.375,-1.5 -1.125,-3 -0.5,-2.5 -2,-2 v -2 l -3,-3 v -1 l -3.5,-3.5 h -1 l -3,-3 -2.25,-0.25 -0.25,-1.25 -1.5,-1.5 -16.5,-0.25 -4,0.875 -2,0.75 -2.5,0.625 -2,2 h -1 l -5.5,5.5 -2.5,4.5 -1.875,4 -0.875,3 v 13 l 0.875,4 1.875,4 3.5,5.5 3.5,3.5 4.5,2.5 5,2 4,0.75 h 11"
     id="path14" />
</g>
<g
   id="g20"
   transform="translate(-356.12686,-284.44385)">
  <path
     fill="#304ae0"
     fill-rule="evenodd"
     d="m 226,888.25 -16,-0.875 -3,-1 -4,-1.875 -4.5,-2.5 -6.5,-6.5 -4.375,-8.5 -1,-3 -1,-5 -0.125,-8 1.125,-7 1.375,-5.5 2,-2 3,-5 5.5,-5.5 4,-2 2,-2 2.5,-0.5 6,-1.75 13,-0.125 5,0.875 4,1.125 2,0.875 4.5,2.5 6.5,6.5 4.375,8.5 1.125,3 0.75,3 v 14 l -1.875,7 -0.875,2 -1.5,2.5 -2.5,3.5 -1.5,2.5 -2.5,2.5 -2.5,1.5 -3.5,2.5 -2.5,1.375 -9,2.875 m 0,-7 4,-0.875 4,-1.875 5.5,-3.5 1.5,-1.5 3.5,-5.5 1,-2 2,-5 1,-4 v -6 l -1.25,-7 -0.75,-2 -1,-2 -3.5,-5.5 -3.5,-3.5 -1.25,-0.25 -0.5,-1.5 -2.5,-0.5 -0.5,-1.5 -1.25,-0.25 -2,-2 -8,-1 -1,-1 -1,1 -7.5,0.75 -3,0.875 -8.5,4.375 -4.5,4.5 -2.5,4.5 -1.875,4 -0.875,3 v 13 l 0.875,4 1.875,4 3.5,5.5 2.5,2.5 2,1 3,2 2.5,1.375 3,1.125 3,0.75 h 12"
     id="path18" />
</g>
<g
   id="g24"
   transform="translate(-356.12686,-284.44385)">
  <path
     fill="#c23132"
     fill-rule="evenodd"
     d="m 147,899.5 -4,6 -2,3 -4.5,4.5 -5.5,3.5 -8,3.875 -3,1 -5,0.875 -14,0.125 -6,-1 L 92,920.5 89,919.375 81.5,915 74.25,909.75 70,903.5 l -3,-3 v -2 l -2,-2 -0.375,-1.5 -2.125,-6 -0.5,-3.5 -1,-1 1,-1 -0.25,-13.5 1.25,-6.5 1,-1 -1,-1 1,-1 0.5,-1.5 2.5,-4.5 2,-3 1,-2 8.5,-8.5 2,-1 5.5,-3.5 8,-3 3,-0.75 h 17 l 6,1 2,0.625 3.5,0.625 2,2 h 2 l 2,2 4,2 8.5,8.5 0.5,1.5 4,7 2,5 1.875,8 v 11 l -1,6 -3,9 -1.375,2.5 m -33,14.75 4,-0.75 3,-1.125 7,-3.875 6.5,-4.5 2.5,-2.5 3.5,-5.5 1,-2 2,-5 0.5,-2.5 1,-1 -1,-1 1,-1 -0.75,-13.5 -0.75,-4 -2,-5 -3.5,-5.5 -1,-2 -5.5,-5.5 -5.5,-3.5 -6,-2.875 -9,-2.125 h -6 l -7,1.125 -5.5,1.375 -2,2 h -2 l -3,3 h -1 l -8.5,8.5 -0.5,1.5 -1,2 -0.5,1.5 -2,2 -1.375,5.5 -0.625,5.5 -1,1 1,1 -1,1 1,1 -1,1 2.75,12.5 0.75,2 1,2 3.5,5.5 7.5,7.5 4.5,2.5 7,2.875 4,0.875 h 14"
     id="path22" />
</g>
<g
   id="g28"
   transform="translate(-356.12686,-284.44385)">
  <path
     fill="#c23132"
     fill-rule="evenodd"
     d="m -215,927.375 h -13 l -7,-1 -3,-0.875 -5,-2 -5,-3 -1.5,-0.5 -10.5,-10.5 v -1 l -3,-3 v -2 l -2,-2 -0.5,-2.5 -1.875,-5 -0.625,-3.5 -1,-1 1,-1 -0.375,-12.5 1.125,-6 1.875,-6 0.875,-2 3.5,-5.5 1,-2 9.5,-9.5 8.5,-4.375 5,-1.875 5,-1 16.5,-0.75 1,1 1,-1 1,1 2.5,0.625 2,0.75 3.5,0.625 2,2 h 2 l 2,2 5,3 6.5,6.5 3.5,5.5 4,9 1,4 0.5,5.5 1,1 -1,1 1,1 -1.625,12.5 -1.875,6 -0.5,2.5 -2,2 -0.5,1.5 -1,2 -4.5,6.5 -4.5,4.5 -5.5,3.5 -2,1 -1.5,0.5 -2,2 -3.5,0.625 -2,0.625 -5,1.125 m 0.5,-7.375 1,-1 1.5,-0.375 5,-2.125 5,-3 6.5,-4.5 3.5,-3.5 0.5,-1.5 3,-5 0.875,-2 1.875,-8 v -14 l -0.75,-4 -1.125,-3 -4.375,-8.5 -7.5,-7.5 -6.5,-3.5 -5,-2 -9,-2 h -6 l -9,2 -5,2 -5.5,3.5 -8.5,8.5 -1,3 -2,2 -0.5,2.5 -1,3 -2.125,9 -0.125,3 1.375,8 1,4 0.75,2 0.625,2.5 2,2 2,4 7.5,7.5 6.5,3.5 5,2 2.5,0.5 1,1 1,-1 1,1 11.5,-0.875 2.5,0.875"
     id="path26" />
</g>
<g
   id="g32"
   transform="translate(-356.12686,-284.44385)">
  <path
     fill="#c23132"
     fill-rule="evenodd"
     d="m 136,708 h -1 v -1 h 1 v 1"
     id="path30" />
</g>
<g
   id="g36"
   transform="translate(-356.12686,-284.44385)">
  <path
     fill="#c23132"
     fill-rule="evenodd"
     d="m 215,768.25 h -15 l -5,-0.875 -3,-0.875 -5,-2 -5,-3 -8.75,-6.75 -3.25,-5.25 -3,-3 -1,-4 -2,-2 -2.375,-12.5 v -12 l 1.875,-8 2,-5 3,-5 0.5,-1.5 9.5,-9.5 2,-1 5.5,-3.5 8,-3 3,-0.75 h 17 l 5,0.75 6.5,1.5 2,2 h 2 l 2,2 5,3 5.5,5.5 0.25,1.25 1.5,0.5 5.625,10.75 1.125,3 2,9 v 9 l -1.125,7 -3,9 -1.375,2.5 -4.5,6.5 -1.5,2.5 -4.5,4.5 -5.5,3.5 -2,1 -1.5,0.5 -2,2 -5.5,1.375 -5,0.875 m -1,-7.875 5,-1.125 2,-0.75 8.75,-4.75 0.5,-1.5 4.25,-2.25 4.5,-4.5 v -2 l 2,-2 2.5,-6.5 0.75,-3 0.75,-14.5 -1,-1 1,-1 -1,-1 -0.625,-2.5 -0.75,-2 -0.625,-2.5 -2,-2 -0.5,-1.5 -2.5,-4.5 -5.5,-5.5 -5.5,-3.5 -2,-1 -5,-2 -9,-2 h -5 l -7,1.125 -3,0.875 -5,2 -5.5,3.5 -8.5,8.5 -0.5,1.5 -2.875,5 -1.125,3 -1,4 -1.5,8.5 1,1 -1,1 1,1 0.5,5.5 1.125,4 0.75,2 0.625,2.5 2,2 1,3 9.5,9.5 1.5,0.5 6,2.875 5.5,1.625 1,1 1,-1 1,1 12.5,-0.625"
     id="path34" />
</g>
<g
   id="g40"
   transform="translate(-356.12686,-284.44385)">
  <path
     fill="#c23132"
     fill-rule="evenodd"
     d="m 19,674 -0.5,1 -0.5,-1 h 1"
     id="path38" />
</g>
<g
   id="g44"
   transform="translate(-356.12686,-284.44385)">
  <path
     fill="#c23132"
     fill-rule="evenodd"
     d="m -144,620 v -0.5 l 0.5,-0.5 0.5,1 h -1"
     id="path42" />
</g>
<g
   id="g48"
   transform="translate(-356.12686,-284.44385)">
  <path
     fill="#c23132"
     fill-rule="evenodd"
     d="m -195,627 h -1 v -1 h 1 v 1"
     id="path46" />
</g>
<g
   id="g52"
   transform="translate(-356.12686,-284.44385)">
  <path
     fill="#c23132"
     fill-rule="evenodd"
     d="m -198.5,626 h -1.5 l 0.5,-1 h 1.5 l -0.5,1"
     id="path50" />
</g>
<g
   id="g56"
   transform="translate(-356.12686,-284.44385)">
  <path
     fill="#c23132"
     fill-rule="evenodd"
     d="m -202,623 -0.5,1 -0.5,-1 h 1"
     id="path54" />
</g>
<g
   id="g60"
   transform="translate(-356.12686,-284.44385)">
  <path
     fill="#c23132"
     fill-rule="evenodd"
     d="m -222,623 -0.5,1 -0.5,-1 h 1"
     id="path58" />
</g>
<g
   id="g64"
   transform="translate(-356.12686,-284.44385)">
  <path
     fill="#c23132"
     fill-rule="evenodd"
     d="m -203,623 h -0.5 l -0.5,-0.5 V 622 h 1 v 1"
     id="path62" />
</g>
<g
   id="g68"
   transform="translate(-356.12686,-284.44385)">
  <path
     fill="#c23132"
     fill-rule="evenodd"
     d="m -218,623 h -1 v -1 h 1 v 1"
     id="path66" />
</g>
<g
   id="g72"
   transform="translate(-356.12686,-284.44385)">
  <path
     fill="#c23132"
     fill-rule="evenodd"
     d="m -204,622 h -0.5 l -0.5,-0.5 V 621 h 1 v 1"
     id="path70" />
</g>
<g
   id="g76"
   transform="translate(-356.12686,-284.44385)">
  <path
     fill="#c23132"
     fill-rule="evenodd"
     d="m -205,621 h -0.5 l -0.5,-0.5 1,-0.5 v 1"
     id="path74" />
</g>
<g
   id="g80"
   transform="translate(-356.12686,-284.44385)">
  <path
     fill="#c23132"
     fill-rule="evenodd"
     d="m -240,623 h -0.5 l -0.5,-0.5 1,-0.5 v 1"
     id="path78" />
</g>
<g
   id="g84"
   transform="translate(-356.12686,-284.44385)">
  <path
     fill="#304ae0"
     fill-rule="evenodd"
     d="m -364.5,729 -4.5,3 -8,3.5 -4,0.75 h -11 l -8,-1.875 -4,-1.875 -4.5,-2.5 -6.5,-6.5 -4.375,-8.5 -1,-3 -1,-5 -0.625,-7.5 1,-1 -1,-1 1,-1 0.75,-4.5 2.75,-7 2.5,-4.5 8.5,-8.5 1.5,-0.5 8,-3 3,-0.75 h 14 l 10.5,2.25 2,2 h 1 l 7.5,7.5 4.375,8.5 1.125,3 0.75,3 v 13 l -1.875,8 -0.875,2 -1.5,2.5 -2.5,3.5 -1.5,2.5 -3.5,3.5 m -1.75,-7.25 4.25,-6.25 1.375,-2.5 1,-3 1.125,-5 v -7 l -2.5,-9.5 -2,-2 -2,-4 -2.5,-2.5 -6,-4 -3,-3 -8,-1 -1,-1 -1,1 -6.5,0.625 -6.5,1.375 -2,2 -4,2 -5.5,5.5 -0.5,1.5 -2.875,6 -0.875,3 v 13 l 0.875,4 1.875,4 3.5,5.5 2.5,2.5 5.5,3.5 5,2 3,0.75 11,0.125 5,-1.125 2,-0.75 2.5,-1.5 3.5,-2.5 2.75,-1.75"
     id="path82" />
</g>
<g
   id="g88"
   transform="translate(-356.12686,-284.44385)">
  <path
     fill="#304ae0"
     fill-rule="evenodd"
     d="m 274,659.5 -7,1.875 h -10 l -5,-1 -3,-1 -4,-1.875 -4.5,-2.5 -6.5,-6.5 -4.375,-8.5 -2,-8 -0.125,-8 1.125,-7 1.375,-5.5 2,-2 1,-3 8.5,-8.5 6.5,-3.375 3,-1 5,-1 13,0.125 3,0.625 5.5,0.625 2,2 3,1 7.5,7.5 2,4 2,2 0.5,2.5 1,3 0.75,4 0.125,12 -1,5 -1,3 -1.875,4 -4.5,6.5 -2.5,2.5 h -1 l -4,4 h -2 l -2,2 -2.5,0.5 m 0,-7.125 6.5,-3.375 2.5,-2.5 3.5,-5.5 1.875,-4 1,-3 1.125,-5 -0.125,-7 -0.875,-4 -1.125,-3 -2.875,-5 -0.5,-1.5 -4.5,-4.5 -1.25,-0.25 -0.5,-1.5 -3.25,-1.25 -3,-3 -10,-1 -1,-1 -1,1 -5.5,0.625 -5.5,1.375 -2,2 -4,2 -5.5,5.5 -0.5,1.5 -2.875,6 -0.875,3 v 13 l 0.875,4 1.875,4 3.5,5.5 1.5,1.5 2.5,1.5 3.5,2.5 2.5,1.375 3,1.125 4,0.75 h 11 l 6,-1.875"
     id="path86" />
</g>
<g
   id="g92"
   transform="translate(-356.12686,-284.44385)">
  <path
     fill="#c23132"
     fill-rule="evenodd"
     d="m 86,600 -0.5,1 -0.5,-1 h 1"
     id="path90" />
</g>
<g
   id="g96"
   transform="translate(-356.12686,-284.44385)">
  <path
     fill="#c23132"
     fill-rule="evenodd"
     d="m 68,595 -0.5,1 -0.5,-1 h 1"
     id="path94" />
</g>
<g
   id="g100"
   transform="translate(-356.12686,-284.44385)">
  <path
     fill="#c23132"
     fill-rule="evenodd"
     d="m -65,580 h -1 v -1 h 1 v 1"
     id="path98" />
</g>
<g
   id="g104"
   transform="translate(-356.12686,-284.44385)">
  <path
     fill="#c23132"
     fill-rule="evenodd"
     d="m -58,570 h -1 v -1 h 1 v 1"
     id="path102" />
</g>
<g
   id="g108"
   transform="translate(-356.12686,-284.44385)">
  <path
     fill="#c23132"
     fill-rule="evenodd"
     d="m -249,618 h -1 v -1 h 1 v 1"
     id="path106" />
</g>
<g
   id="g112"
   transform="translate(-356.12686,-284.44385)">
  <path
     fill="#c23132"
     fill-rule="evenodd"
     d="m 156,602.25 -14,0.125 -6,-1 -3,-0.875 -5,-2 -5.5,-3.5 -7.25,-5.25 -7.75,-10.75 -3,-7 -1,-4 -0.875,-5 v -13 l 0.875,-5 1.125,-4 2.875,-6 3.5,-5.5 9.5,-9.5 h 1 l 2,-2 h 2 l 2,-2 1.5,-0.5 2,-0.875 8,-1.875 h 16 l 5,0.75 4,1.125 8,3.875 6.5,4.5 5.5,5.5 1,2 3.5,5.5 3,7 0.875,3 0.625,6.5 1,1 -1,1 1,1 -0.5,6.5 -3.125,13 -4.375,7.5 -2.5,3.5 -1.5,2.5 -4.5,4.5 -5.5,3.5 -2,1 -1.5,0.5 -2,2 -3.5,0.5 -3,1 -4,0.75 m -1,-8 4,-0.875 7,-2.875 2.5,-1.5 4,-3 3,-2 3.5,-3.5 2.5,-4.5 1.875,-4 1.75,-6 0.125,-16 -0.875,-4 -2,-5 -1.375,-2.5 -2,-3 -1,-2 -6.5,-6.5 -4.5,-2.5 -1.5,-0.5 -2,-2 -11.5,-2.5 h -7 l -6,1 -4,1.125 -2.5,1.375 -11.25,7.25 -4.75,6.75 -2.875,5 -1.125,3 -2.25,11 v 2 l 2.75,14.5 2,2 v 2 l 2,2 v 1 l 9.5,9.5 h 2 l 2,2 6.5,2.5 2.5,0.5 1,1 1,-1 13.5,0.25"
     id="path110" />
</g>
<g
   id="g116"
   transform="translate(-356.12686,-284.44385)">
  <path
     fill="#c23132"
     fill-rule="evenodd"
     d="m -165,516 v -0.5 l 0.5,-0.5 0.5,1 h -1"
     id="path114" />
</g>
<g
   id="g120"
   transform="translate(-356.12686,-284.44385)">
  <path
     fill="#c23132"
     fill-rule="evenodd"
     d="m 23,481 h -1 v -1 h 1 v 1"
     id="path118" />
</g>
<g
   id="g124"
   transform="translate(-356.12686,-284.44385)">
  <path
     fill="#304ae0"
     fill-rule="evenodd"
     d="m -299,530.5 -5.5,3.875 -6.5,2.125 -4,0.875 h -10 l -8,-2 -4,-1.875 -4.5,-2.5 -6.5,-6.5 -4.375,-8.5 -2.25,-8 -0.375,-2.5 1,-1 -1,-1 0.5,-4.5 1.25,-6 2.75,-7 1,-2 0.5,-1.5 7.5,-7.5 5.5,-3.375 5,-2 4,-0.875 13,-0.125 9.5,1.375 2,2 3,1 6.5,6.5 3.5,5.5 2,4 0.75,2 1.125,5 -0.125,12 -1.875,8 -1.875,4 -5.5,7.5 -1.5,1.5 -2.5,1.5 m 4,-13 0.5,-1.5 0.875,-2 2,-8 v -7 l -2,-8 -0.875,-2 -3.5,-5.5 -4.5,-4.5 -4,-2 -3,-3 -8,-1 -1,-1 -1,1 -6.5,0.625 -4,1 -2,0.75 -2.5,0.625 -2,2 h -1 l -5.5,5.5 -2,4 -2,2 -1.25,6.5 v 12 l 0.875,4 1.875,4 4.5,6.5 1.5,1.5 2,1 3,2 2.5,1.375 3,1.125 4,0.875 h 10 l 4,-0.875 5.5,-2 10.5,-10"
     id="path122" />
</g>
<g
   id="g128"
   transform="translate(-356.12686,-284.44385)">
  <path
     fill="#304ae0"
     fill-rule="evenodd"
     d="m 146,460.5 -7,6.5 -8,3.5 -3,1 -4,0.875 -9,0.125 -6,-1.25 -5,-1.875 L 101.5,468 98,465.5 95.5,464 92,460.5 l -1,-2 -3.5,-5.5 -0.875,-2 -2.375,-10 0.25,-2 0.5,-1.5 -1,-1 1,-1 0.75,-7.5 1.25,-4.5 2,-2 0.5,-1.5 2.5,-4.5 6.5,-6.5 1.5,-0.5 9,-4.125 1.5,-0.375 h 0.5 l -0.5,-1 -3.5,-0.5 -2.75,-0.75 -0.5,-1.5 -1.25,-0.25 -2.5,-2.5 v -2 l -1,-1 1,-1 0.75,-4.5 2.5,-4.75 1.25,-0.25 3,-3 5.5,0.75 2,0.625 4,0.25 9.5,-1.625 1,1 1,-1 15.5,0.75 5,1 11,3 2,0.75 6,3 1.5,0.5 1.5,1.5 0.5,1.5 2,4 0.5,1.5 2,2 0.375,2.5 0.125,6 -2.125,9 -1.875,4 -0.5,1.5 -4.5,4.5 -1.25,0.25 -0.5,1.5 -1.5,0.5 -0.25,1.25 -1.5,1.5 -4.5,2.375 -3,1.125 -2.875,0.75 -0.75,7.75 -1,4 -2.875,6 -3.5,5.5 m 11,-29.125 4.5,-2.375 8.5,-8.5 0.5,-1.5 1.875,-4 1.125,-4 0.5,-3.5 1,-1 -1,-1 -0.625,-2.5 -3.625,-8.75 -4.75,-2.75 -5,-2 -8,-2 -4,-0.625 h -25 l -5.5,1.125 -1.5,1.5 1,1 0.5,1.5 v 2 l -0.5,1.5 1,1 -1,1 -1,4 -1,1 0.5,0.5 19,2 2,2 1.5,0.5 5.5,3.5 1.5,1.5 1.5,2.5 2.5,3.5 1.375,2.5 3.875,10.75 2.75,-0.375 M 113,404 v -1 h -1 v 1 h 1 m 33.25,43 1.25,-5 0.5,-4.5 -2,-2 v -1 l 2,-2 -1,-1 -0.5,-2.5 -3,-7 -0.5,-1.5 -6.5,-6.5 -5,-3 -2,-2 -7,-1 -1,-1 -1,1 -1,-1 -7.5,1.625 -3,1 -4,1.875 -5.5,3.5 -1.5,1.5 -1.5,2.5 -2.5,3.5 -1.375,2.5 -1,3 -1,5 v 8 l 1.125,5 1.875,5 0.375,1.5 8.5,8.5 3,1 2,2 7.5,1.375 h 9 l 5,-1.125 2,-0.75 6.5,-3.5 4.5,-4.5 4.25,-8.5"
     id="path126" />
</g>
<g
   id="g132"
   transform="translate(-356.12686,-284.44385)">
  <path
     fill="#304ae0"
     fill-rule="evenodd"
     d="M 10,423 9,411.5 14.5,406 h 5 l 1,1 4,-4 1.5,-0.5 4,-2 6,-4 2,-1 2,-0.625 12,-0.25 6,1.125 12,4.875 6.5,4.375 1.5,1.5 0.25,1.25 1.5,0.5 0.25,1.25 1.5,1.5 1.25,0.25 2.625,6.75 0.5,6.75 -3.375,0.25 -1.5,-1.5 -1,-7 -4.5,-4.5 -3,-2 -4,-3 -6.5,-3.375 -5,-1.875 -6,-1.125 -10,0.125 -1.5,0.25 -4,4 -2.5,0.625 -2,0.875 -1.5,0.5 -2.5,2.5 2,2 -0.625,2.5 -0.875,2 -0.5,1.5 -1.5,1.5 -4.25,2.25 L 20,426.5 18,429 13.5,428 11,425.5 10,423"
     id="path130" />
</g>
<g
   id="g136"
   transform="translate(-356.12686,-284.44385)">
  <path
     fill="#c23132"
     fill-rule="evenodd"
     d="m 19,488.5 1,-2 3.5,-5.5 2,-5 0.75,-3 v -16 l -0.75,-4 -1.125,-3 -1.375,-2.5 -5,-8 -3.5,-3.5 -6.5,-4.5 -2,-1 -7,-2.75 -7,-1.375 h -4 l -8,1.375 -3,0.75 -3,1.125 -2.5,1.375 -3,2 -2,1 -8.5,8.5 -0.5,1.5 -3.875,8 -2.375,10 v 2 l 1.5,10 0.75,3 2,5 3.5,5.5 7.5,7.5 h 1 l 1,1 1,-1 h 1 l 2,-2 h 5 l 1.5,1.5 -1,1 0.5,0.5 h 1 l 1,1 1,-1 0.5,0.5 1.25,5.5 H -5.5 l 1,-1 1,1 1,-1 2.5,-0.5 5,-2 9,-5.5 5,-4.5 M -183,545 v -1 h -1 v 1 h 1 m 19,-29 3,-1.5 7,-5 1.5,-0.5 2.5,-2.5 v -1 l 3,-3 0.625,-2.5 2.875,-7 0.75,-4 v -14 l -0.75,-4 -2,-5 -3.5,-5.5 -1,-2 -5.5,-5.5 -5.5,-3.5 -1.5,-0.5 -2,-2 -10.5,-2.375 h -10 l -5,1.125 -5,1.875 -5,2.875 -6.75,4.75 -5.25,7.25 -1.5,2.5 -2,5 -2,9 0.125,4 0.375,1.5 -1,1 1,1 0.5,4.5 1.125,4 2,5 2.375,4.5 8.5,8.5 4.5,2.5 5,2 3,0.875 6,1 h 10 l 6.5,-1.375 2,-2 h 0.5 l 0.5,1 0.5,-1 m 2.5,36 0.5,-1 h -1.5 l -0.5,1 h 1.5 M -28,496 v -1 h -1 v 1 h 1 m -1,1 v -1 h -1 v 1 h 1 m -10,27 v -1 h -1 v 1 h 1 m -2,3 v -1 h -1 v 1 h 1 m -1,1 v -1 h -1 v 1 h 1 m -1,1 v -1 h -1 v 1 h 1 m 23,1 v -1 h -1 v 1 h 1 m 0,3 v -1.5 l -1,-0.5 v 1 l 1,1 m 0,3 v -1.5 l -1,-0.5 v 1 l 1,1 m 0,3 v -1 h -1 v 1 h 1 m -250,90.25 4,-0.875 7,-2.875 3,-2 4,-3 2.5,-1.5 3.5,-3.5 2.5,-4.5 1.875,-4 1.625,-5.5 1,-1 -1,-1 1,-1 -0.75,-13.5 -0.75,-4 -3,-7 -3.5,-5.5 -6.5,-6.5 -6.5,-3.5 -5,-2 -8,-2 -4.5,-0.5 -1,1 -1,-1 -1,1 -6.5,0.75 -4.5,1.25 -2,2 -1.5,0.5 -8.75,5.75 -4.75,6.75 -1,2 -0.5,1.5 -2,2 -1.375,5.5 -1.25,7 v 4 l 2.625,13.5 2,2 0.5,1.5 1,2 0.5,1.5 9.5,9.5 1.5,0.5 6,2.875 3.5,0.625 2,2 1,-1 1,1 13.5,-0.75 M -87,558 v -1 h -1 v 1 h 1 m 32,5 v -1 h -1 v 1 h 1 m 1.5,1 0.5,-1 h -1.5 l -0.5,1 h 1.5 m 5.5,17 v -1 h -1 v 1 h 1 m -11,14 v -1 h -1 v 1 h 1 m 42,-39 v -1 h -1 v 1 h 1 m -22,13 v -1 h -1 v 1 h 1 m 14,9 v -2.5 l -1,-0.5 v 2.5 l 1,0.5 m -13,8 v -1 h -1 v 1 h 1 m 44,9 v -1 H 5 v 1 h 1 m -244,31 v -1 h -1 v 1 h 1 m 103,-5 v -1 h -1 v 1 h 1 M 18,674 17.25,673.75 17,672.5 16.5,672 l -1,1 -4,-2 -0.5,-0.5 1,-1 L 11.5,669 9.25,668.75 9,666.5 8.5,666 7.5,667 4,663.5 3.75,662.25 -0.5,661 -2,659.5 l -13,-16 -2.5,-3.5 -11.5,-20.5 -2,-2 -1.25,-5.25 -1.25,-0.25 -0.5,-0.5 1,-1 -2,-2 -0.5,-3.5 -3,-10 -0.5,-3.5 1,-1 -2,-2 v -1 l 1,-1 -1,-1 v -3 l 1,-1 -1,-1 1,-1 -1,-1 0.375,-1.5 0.625,-3.5 -1,-1 1,-1 -0.25,-1.25 h -1.5 l -2,7.75 0.375,4 -4.125,17 0.25,6 -3.375,34 0.625,4.5 -1,1 1,1 0.5,8.5 3.25,20 0.75,3 7,21 0.875,2 0.625,2.5 1.5,1.5 1.25,0.25 0.75,1.75 3,6 0.5,1.5 2,2 0.625,2.5 3.75,6 2.25,6 0.375,1.5 2,2 0.625,2.5 0.75,2 0.625,2.5 2,2 1,4 4,4 3.5,5.5 0.875,2 0.625,2.5 3,3 0.5,1.5 5,8 13.5,17.5 10.5,16.5 4.875,10 0.625,2.5 3,3 v 1 l 1.5,1.5 3.5,0.625 11.75,5.625 0.625,1.75 0.625,3.5 -1,1 2.5,2.5 1.5,0.375 6.5,2.625 1.5,1.5 -0.75,4.5 -1.75,3 -7.5,9.5 -0.5,0.5 -1,-1 -1,1 -1.25,-0.25 L 48.75,853 45.5,839 45,834.5 43.5,833 h -1 l -2,-2 -1,1 -3,-1 L 32,826.5 28.625,821 26.5,816 22,807.5 12,792.5 2.75,780.25 1.25,779.75 -3,772.5 -5.5,769 -7,766.5 l -2,-2 v -2 l -2,-2 -0.5,-1.5 -1,-2 -6,-8 -1.5,-2.5 -2,-2 -0.625,-3.5 -0.375,-1.5 -2,-2 -0.625,-2.5 -3,-7 -2.375,-4.5 -2,-2 v -2 l -2,-2 -0.5,-1.5 -2.75,-6.75 -1.25,-0.25 -1.5,-1.5 -0.5,-1.5 -1.875,-4 -6.25,-21 -1.75,-5 -0.625,-5.5 -1,-1 1,-1 -1,-1 -2.25,-16.25 h -1.5 l -2.5,13.75 -1.5,30 -2.25,17.5 -1,1 1,1 -1,1 -1,15 -1,1 1,1 v 3 l -1,1 1,1 v 3 l -1,1 1,1 -1,1 1,1 -1,1 1,1 0.875,10.5 -0.375,2 -0.5,1.5 1,1 -1,1 v 2 l 1,1 -1,1 v 17 l 1,1 -1,1 1,1 1,25 1,1 -1,1 1,1 -1,1 1,10 1,1 -1,1 v 4 l 1,1 -1,1 1,1 2,30 -1,1 1,1 0.25,3.25 1.5,0.5 1.75,7.75 2.125,6 0.875,2 3.75,6 0.75,4.5 -2,2 0.5,0.5 11.5,2.5 3,1.125 1.5,0.375 2,2 h 2 l 3,3 h 1 l 7.5,7.5 3.5,5.5 4,9 1,4 0.5,4.5 1,1 -1,1 0.25,1.5 0.25,6 -1.125,7 -3,9 -0.875,2 -1.5,2.5 -6,8 -2.5,2.5 -6.5,4.5 -5,2.875 -3,1.125 -8,1.75 -13,0.125 -7,-1 -8,-3 -2.5,-1.375 -3,-2 -7.25,-5.25 -7.625,-10.75 -1.25,-3 -0.375,-1.5 -2,-2 -1.25,-7.5 v -15 l 2.25,-11.5 3,-3 0.5,-1.5 1.5,-2.5 5.25,-7.25 2.75,-1.75 4,-3 3,-2 2,-1 1.5,-0.5 0.5,-0.5 -1,-1 0.75,-5.5 0.75,-2 1.875,-4 1.25,-4 0.875,-2 0.5,-1.5 2,-2 -1,-1 0.375,-1.5 0.625,-3.5 -1,-1 1,-1 -1,-30 -1,-1 1,-1 -2,-27 -1,-1 1,-1 -1,-1 1,-1 -1,-11 -1,-1 1,-1 v -1 l -1,-1 1,-1 -1,-1 1,-1 -1,-7 -1,-1 1,-1 -1,-1 1,-1 -1,-1 0.75,-4.5 -0.75,-20.5 1,-1 -1,-1 0.75,-30.5 4.75,-38 1.25,-21 4,-22 -0.375,-5 L -60,625.5 V 625 l -1,0.5 v 1 l -2,2 -0.625,2.5 -5.875,13 -5.125,17 -3.875,9 -2.5,4.5 -2,2 -0.5,2.5 -4.125,12 -1.75,4 -0.625,2.5 -2,2 -0.5,1.5 -2.5,4.5 -2,2 v 3 l -2,2 -1.25,5.25 -1.25,0.25 -0.5,0.5 1,1 -2.5,2.5 -1.25,0.25 -1.25,4.25 -3,3 -0.625,2.5 -8.875,13 -0.5,1.5 -2,2 -0.625,2.5 -1.625,3.75 -1.25,0.25 -0.5,0.5 1,1 -2,2 -0.5,1.5 -2.5,4.5 -2,2 1,1 -1,1 -0.25,1.25 -1.5,0.5 -9.25,13.25 -18.375,30.5 -0.625,2.5 -2,2 -0.5,1.5 -5,7 -0.5,1.5 -2.5,2.5 -2.25,0.25 -0.25,1.25 -1,1 1,1 v 8 l -3,3 -1.25,3.25 -1.75,0.625 -3.5,0.625 -2.5,-2.5 -0.25,-1.25 -7.25,-5.25 -1.5,-1.5 -0.5,-1.5 -1,-2 v -2 l 0.5,-1.5 2.5,-2.5 4,-1 2,-2 5.5,-1.375 8.75,-0.625 1.25,-2.5 4.5,-6.5 3,-7 1.5,-2.5 4.5,-6.5 4.5,-8.5 12,-19 5.5,-7.5 6,-11 0.5,-1.5 2,-2 v -2 l 2,-2 0.375,-1.5 1.25,-3 8.375,-12.5 1,-2 2,-2 v -2 l 2,-2 1.5,-2.5 2.5,-3.5 1.375,-2.5 2,-5 0.625,-2.5 3,-3 v -2 l 2,-2 v -1 l 2,-2 0.625,-2.5 2.75,-6 4.25,-13 1.375,-2.5 2,-3 1.375,-2.5 0.625,-3.5 2,-2 1,-3 -0.5,-0.5 -2.5,2.5 -5.25,7.25 -14.5,12.5 -0.25,1.25 -1.5,1.5 -19.5,16.5 -4,2 -1.5,0.5 -4,4 -3.25,0.25 -0.5,1.5 -2.25,0.25 -1.5,1.5 -0.25,1.25 -1.25,0.25 -3,3 h -3 l -1.5,1.5 v 1 l -1.5,1.5 -2.5,0.625 -2,0.75 -2.5,0.625 -1.5,1.5 -0.25,1.25 -1.75,0.75 -4.5,2.5 -1.5,1.5 v 1 l -0.5,0.5 -1,-1 -0.5,0.5 -0.25,1.25 -4.25,1.25 -2,2 h -1 l -1,1 -1,-1 -1,1 -2.5,0.5 -5,2 -5,2.875 -3.5,0.625 -2,2 -2.5,0.5 -5,1.875 -4,1 -11,2.125 -3,1.125 -1.5,0.375 -2,2 -2.5,0.625 -2,0.875 h -2 l -4,-2 h -2 l -1.5,0.5 -1,-1 -1.5,1.5 3,3 -1,1 -0.25,2.25 -1.25,0.25 -2,2 -1,-1 -0.5,0.5 -0.5,1.5 -1,2 -0.5,1.5 -4.5,4.5 -4.25,-0.125 -0.5,-2.875 -0.75,-15 -1,0.5 -0.75,7.5 -1.875,6 -0.875,2 -3,5 -4.5,6.5 -4.5,4.5 -8,5 -2.5,1.375 -6,2.125 -4,0.75 h -16 l -5,-0.875 -5.5,-1.375 -2,-2 h -2 l -2,-2 -2,-1 -7.25,-5.25 -7.25,-10.25 -1.5,-2.5 -0.875,-2 -1.875,-6 -1,-5 v -15 l 1.875,-8 0.875,-2 0.5,-1.5 2,-2 v -2 l 3,-3 4.25,-6.25 2.75,-1.75 4,-3 3,-2 6,-2.875 8,-1.875 h 17 l 5,0.875 3,0.875 3,1.125 9.75,5.625 0.5,1.5 1.25,0.25 5.5,5.5 3.5,5.5 4,9 0.875,3 1.625,9.5 v 0.5 l 1,-0.5 1,-7 1,-1 -4,-4 v -1 l -1,-1 1,-1 v -1 l 1.5,-1.5 h 5 l 3,3 h 1 l 1.5,1.5 0.25,1.25 1.25,0.25 1.5,1.5 v 1 l 2.5,2.5 h 1 l 2.5,2.5 v 1 l 1.5,1.5 4,1 1,1 0.5,-0.5 0.25,-1.25 12.75,-3.625 15,-3.25 18,-7.875 9,-3.125 3.75,-1.625 0.5,-1.5 2.75,-1.75 7.5,-5.5 6.5,-3.5 1.75,-0.75 0.5,-1.5 4.25,-1.25 4,-4 6.5,-4.5 11,-6 4,-3 29.5,-26.5 3.5,-3.5 3.5,-5.5 0.75,-1.75 1.25,-0.25 1.5,-1.5 3.5,-5.5 6,-11 0.5,-1.5 2,-2 1,-5 2,-2 1,-4 2,-2 0.5,-3.5 3,-12 1.875,-5 0.375,-2.75 -1.25,-0.25 -2.5,2.5 v 1 l -5.5,5.5 -3,2 -10.5,7.5 -7,4 -2,0.875 -2.5,0.625 -2,2 -1.5,0.5 -6,3 -1.5,0.5 -1,1 -1,-1 -1,1 -1.5,0.375 -3,1.125 -2.5,0.5 -2,2 -4,1 -2,2 -35.5,2.25 -3,-0.75 -3.5,-0.5 -1,-1 -1,1 -13.5,-2.625 -3,-1 -5,-2.75 -9,-3.25 -2,-0.875 -2,-0.5 v -0.5 l -0.5,-0.5 h -0.5 v -0.5 l -0.5,-0.5 h -0.5 v -0.5 l -0.5,-0.5 h -0.5 l -0.25,-0.75 -2.25,-0.25 -2,-2 -1.25,0.25 -0.5,1.5 -1.25,0.25 -2,2 h -2 l -1,1 -1,-1 -1.25,0.25 -0.5,1.5 -1.75,0.25 -0.5,-1 -0.5,0.5 v 0.5 l -0.75,0.25 -0.25,2.25 -3.5,3.5 -2.5,0.5 -3,-0.125 -4,-1.875 -1.5,-0.5 -1.5,-1.5 V 623 l 1,-0.5 -1,-0.5 -0.25,-0.75 -1.25,-0.25 -2.5,2.5 v 1 l -2.5,2.5 -6.5,4.5 -5,2.875 -3,1.125 -3,0.875 -5,0.875 h -15 l -5,-1 -2,-0.625 -3.5,-0.625 -2,-2 -1.5,-0.5 -2,-1 -3,-2 -7.75,-5.75 -7.75,-11.75 -2,-5 -1,-4 -1.125,-3 -0.375,-1.5 1,-1 -1,-1 0.625,-11.5 0.875,-5 1.125,-4 1.875,-4 3.5,-5.5 1,-2 8.5,-8.5 2,-1 5.5,-3.5 4,-1.875 3,-1 5,-0.875 15.5,-0.75 1,1 1,-1 1,1 3.5,0.625 6,2 5,2.875 6.5,4.5 4.5,4.5 4.5,6.5 4,9 1,4 0.5,4.5 1,1 -1,1 1,1 v 1 l 0.5,0.5 3,-3 3.5,-0.625 h 2 l 3,1.25 1.5,0.375 3.5,3.5 1.25,5.25 4.25,1.25 2.5,2.5 v 1 l 1.5,1.5 1.5,0.375 3,1.25 1.5,0.375 6,6 2.5,0.625 6,2 5,2.75 3,0.875 9.5,0.75 1,1 1,-1 4,1 1,1 1,-1 1,1 11,1 0.5,-0.5 -1,-1 0.5,-0.5 h 2.5 l 0.5,1 0.5,-1 1.5,-1 2,2 h 1 l 2,-2 3.25,0.25 0.25,1.25 0.5,0.5 2,-2 1,1 6.5,-3.375 3,-1.125 4,-1.125 2,-0.75 6.5,-1.625 2,-2 h 2 l 2,-2 1.5,-0.5 10.5,-5.5 8.5,-5.5 1.75,-0.75 0.5,-1.5 1.5,-0.5 0.25,-1.25 5.5,-5.5 h 1 l 3.5,-3.5 1.5,-2.5 7.5,-10.5 2.5,-4.5 0.5,-1.5 -0.5,-0.5 -1,1 -1.5,0.375 -3,1.125 -7,2 -7,2.875 -15,4.25 -2.5,0.375 -1,-1 -1,1 -4,-1 -1,1 -1,-1 -4,-1 -1,1 -1,-1 -10.5,-0.75 -5.5,-1.25 -2,-2 h -1 l -1,-1 -1,1 -1,-1 -1.5,-0.375 -3,-1.125 -3.5,-0.5 -2,-2 -2.5,-0.625 -2.5,-1.375 -3,-2 -2,-1 -4.5,-4.5 -0.25,-1.25 -1.5,-0.5 -0.25,-1.25 -0.5,-0.5 -1,1 -9,-1 -1.5,-1.5 -0.25,-1.25 -3.25,-1.25 -1,-1 -1,1 -1,-1 -1.5,0.375 -3,1.25 -1.75,0.125 -0.5,-1.5 -3.25,-1.25 -1.5,-1.5 -0.5,-1.5 -1.875,-4 -0.125,-3 1.125,-3 0.375,-1.5 3,-3 -1.5,-1.5 -6.5,-0.625 -6,-1.875 -2.5,-0.5 -2,-2 -1.5,-0.5 -4.5,-2.5 -9.5,-9.5 -3.375,-5.5 -0.625,-2.5 -2,-2 -2.25,-10.5 v -15 l 0.875,-5 1.375,-5.5 2,-2 0.5,-1.5 1.5,-2.5 6,-8 1.5,-1.5 6.5,-4.5 11,-4.875 3,-0.875 8.5,-0.75 1,-1 1,1 1,-1 16.5,3.625 4,1.875 5,3 1.75,0.75 0.5,1.5 1.25,0.25 6.5,6.5 1,2 3.5,5.5 3,7 2,12 v 6 l -1.125,7 -0.875,3 -2,5 -3,6 -0.75,1.75 -1.5,0.5 -0.25,1.25 -3,3 1.5,1.5 h 1 l 3.5,3.5 0.375,2.5 v 5 l -0.875,3 -1.875,5 v 4 l 4.625,6.75 1.5,0.5 0.5,1.5 4.75,2.625 10,3.125 3.5,0.5 2,2 8.5,1.5 6,-0.25 5.5,0.75 1,1 1,-1 1.5,0.5 2,0.125 21,-7.25 6,-2.75 2.5,-0.625 2,-2 h 2 l 2.5,-2.5 0.25,-1.25 1.5,-0.5 0.5,-1.5 1.5,-0.5 0.25,-1.25 1.5,-1.5 h 1 l 2.5,-2.5 1,-2 0.75,-2.5 -10.75,-0.75 -3,-0.75 -11.75,-4.75 -6.25,-8.25 -1.5,-1.5 h -1 l -1.5,-1.5 -1,-2 -4.5,-6.5 -1.875,-4 -10.25,-33 -7,-17 -0.375,-1.5 -1,-1 1,-1 -1,-1 -1,-6 -1.5,-1.5 -3.25,-1.25 -0.25,-1.25 -3.5,-3.5 -1.25,-0.25 -0.5,-1.75 0.25,-7 0.25,-0.75 4.25,-2.25 2,-2 7,-1 1.5,2 1,1.5 0.5,8.5 -0.5,2.5 -1,1 1,1 v 2 l 1,1 -1,1 2.5,11.5 2.125,6 6.625,17 4.375,15 4,11 0.875,2 4,6 5.5,7.5 6.5,6.5 1.5,0.5 7,3 3,0.875 6.5,0.625 4.5,-4.5 0.5,-1.5 2.75,-4.75 2.5,-0.5 0.25,-1.25 3,-3 -1,-1 1,-1 v -1 l 1,-1 -0.5,-0.5 h -2 l -2,-2 -6.25,-4.25 -6.25,-8.25 -2.5,-4.5 -0.5,-1.5 -2,-2 -2.25,-11.5 -0.125,-12 1,-6 0.875,-3 1.125,-3 0.375,-1.5 2,-2 v -2 l 3,-3 v -1 l 9.5,-9.5 1.5,-0.5 5,-3 7,-2.75 5,-1 15,-0.125 6,0.875 9,2.5 1,2.5 2.5,2.5 4.5,1 7,6.5 3.5,5.5 4,9 1,4 1,6 v 8 l -2,11 -2,5 -3,5 -4.5,6.5 -4.5,4.5 -5.5,3.5 -2,1 -1.5,0.5 -2,2 -5.5,1.375 -5,0.875 -15.75,0.75 0.375,4 -1.25,4 0.125,2 3.75,6.75 4.75,2.5 7,1.25 7,-0.125 8,-2 4,-1.75 13.5,-3.625 2,-2 h 1 l 2,-2 h 2 l 2,-2 1.5,-0.5 6.5,-4.5 12.5,-12.5 5,-7 12.5,-12.5 4,-2 H 80 l -0.5,-1 -2.25,-0.25 -1.25,-4.25 2,-2 v -6 l -1,-1 1,-1 -1,-1 1,-3 1.5,-1.5 h 5 l 3,3 h 3 l 1.5,1.5 1,4 2,2 0.375,1.5 0.625,3.5 -1.5,1.5 -5,1 -2.5,2.5 v 1 l -3.5,3.5 -2,1 -4,3 -3,2 -1.5,1.5 -9.5,11.5 -2.5,3.5 -10.5,10.5 -2.5,1.5 -7.5,5.5 -9.5,5.375 -3,1.125 -4,1.125 -10.5,3.375 -2,2 -10,1 -1,1 -1,-1 -8.5,-0.625 -6.5,-1.375 -3,-3 -0.5,0.5 v 10 l 1,1 -1,1 1,1 0.5,4.5 1.125,5 1,3 1.375,2.5 4,6 1.25,2.25 1.25,0.25 1.5,1.5 v 1 l 1.5,1.5 2.5,0.625 13,5.875 8,2.875 3.5,0.625 2,2 4,1 1,1 1,-1 h 4 l 1,1 1,-1 1,1 1,-1 3.5,-0.5 15.5,-4.5 2,-2 h 2 l 7.5,-7.5 0.5,-1.5 2,-4 2,-3 3,-4 1.5,-2.5 4.5,-4.5 h 8 l 4.5,4.5 0.25,1.5 0.125,5 -0.75,3 -0.625,6.5 2,2 2,4 2,2 v 2 l 2,2 1,4 2,2 v 5 l -1,1 1,1 -2,2 -0.25,1.25 -1.25,0.25 -2,2 h -5 l -1,1 -1,-1 h -2 l -1,-1 -1,1 -2.5,-2 -0.5,-1 -0.5,0.5 v 0.5 l -1.75,-0.25 -0.5,-1.625 -5.25,-0.125 -1,-1 -1,1 -1,-1 -1,1 h -1 l -0.5,-0.5 1,-1 -0.5,-0.5 -4.5,-1 -0.5,-1 -0.5,0.5 v 0.5 h -4.5 l -2,2 -1.5,0.25 -15,4 -16.5,0.75 -1,1 -1,-1 L 21,601.25 11,597.5 7,596.375 2,594.5 -0.5,594 l -2,-2 -4,-1 -2,-2 -5,-1 -3,-3 h -1 l -2.5,-2.5 -0.25,-1.25 -1.25,-0.25 -1.5,-1.5 -0.25,-1.25 h -1.5 L -25.5,580 v 2 l 0.5,1.5 1,1 -1,1 v 1 l 1,1 -1,1 1,1 -0.5,1.5 -0.25,1.75 1.25,0.25 0.5,0.5 -1,1 1,1 0.25,1.5 2.125,7 3.875,9.75 1.5,0.5 1.25,4.25 2,2 5.375,9.5 0.625,2.5 4,4 1,3 10.5,10.5 1.5,0.5 9.5,7.5 3,3 h 2 l 3,3 h 2 l 3,3 1.5,0.5 10,4 4,1.125 30,8.75 10.5,1.625 1,-1 1,1 14.5,1.625 13.5,2.375 1,1 1,-1 h 1 l 2,2 h 2 l 1,-1 1,1 1,-1 1,1 8,2 1,-1 1,1 3,1 1,-1 1,1 h 1 l 1,1 1,-1 0.5,0.5 v 1 l 0.5,0.5 1,-1 1.5,-0.5 2,-1 2,-0.125 2.5,0.625 2.5,2.5 0.375,2.5 -0.125,6 -3.75,11 -0.5,3.5 -1,1 1,1 -1.5,1.5 h -1 l -2,2 -5.25,-0.125 -0.5,-1.625 -2.25,-0.25 -0.5,-0.5 1,-1 -1,-1 -0.125,-4.25 L 142.5,714 141,712.5 v -3 l -0.5,-0.5 -1,1 -1.5,-1.5 -0.25,-1.25 -3.25,-1.25 -3.5,-3.5 -0.25,-1.375 -11.75,-1.625 -4,-1 -19,-3.25 -8,0.25 -3.5,0.5 -1,-1 -1,1 -1,-1 -5.5,-0.5 -12,-3.125 -2,-0.75 -21,-6.125 -11,-4 -2.5,-0.5 -2,-2 -3.25,-1.25 -0.25,-1.25 -0.5,-0.5 -1,1 -0.5,-0.5 -1,-1.5 -0.5,-1 -0.5,0.5 v 0.5 m -315,109.25 4,-0.875 6,-2.875 3,-2 4,-3 2.5,-1.5 4.5,-4.5 0.5,-1.5 2.875,-6 1.625,-5.5 1,-1 -1,-1 1,-1 -0.75,-13.5 -0.75,-4 -1.125,-3 -5.375,-9.5 -6.5,-6.5 -6.5,-3.5 -5,-2 -9,-2 h -6 l -9.5,1.5 -2,2 -1.5,0.5 -4,2 -6.75,4.75 -4.75,6.75 -1,2 -0.5,1.5 -2,2 -0.625,3.5 -0.625,2 -1.25,6 -0.5,4.5 1,1 -1,1 1,1 0.5,4.5 1.125,4 1.75,4 0.625,2.5 2,2 v 1 l 9.5,9.5 1.5,0.5 2,1 1.5,0.5 2,2 6,1 1,1 1,-1 1,1 13.5,-0.75 M -250,742 v -1 h -1 v 1 h 1 m -1,2 v -1.5 l -1,-0.5 v 1 l 1,1 m 0,5 v -3.5 l -1,-0.5 v 3.5 l 1,0.5 m 394,-37 v -1 h -1 v 1 h 1 M 57,847 v -1 h -1 v 1 h 1 m -120,53 v -1 h -1 v 1 h 1 m 17.5,82 1,-1 8.5,-3.5 3,-2 4,-3 2.5,-1.5 2.5,-2.5 0.25,-1.25 1.5,-0.5 0.25,-2.25 2,-2 0.5,-1.5 0.875,-2 1,-3 0.875,-5 v -14 l -0.75,-4 -2,-5 -3.5,-5.5 -1,-2 -5.5,-5.5 -5.5,-3.5 -2,-1 -5,-2 -9,-2 h -5 l -7,1.125 -8,3 -2.5,1.375 -7.25,5.25 -4.75,6.75 -1,2 -0.5,1.5 -2,2 -2.625,11.5 -0.125,3 2.75,15.5 2,2 v 2 l 2,2 v 1 l 9.5,9.5 1.5,0.5 4,2 5,2 4,0.75 13.5,0.75 1,-1 1,1"
     id="path134" />
</g>
<g
   id="g140"
   transform="translate(-356.12686,-284.44385)">
  <path
     fill="#304ae0"
     fill-rule="evenodd"
     d="m -149,374 v -0.5 l 0.5,-1.5 3,-5 0.5,-1.5 7.5,-7.5 4.5,-2.5 5,-2 4,-0.875 7.5,-0.625 0.5,-0.5 -1,-1 v -6 l 2,-2 1.25,-4.25 3.25,-1.25 1,-1 1,1 1,-1 1,1 0.5,-0.5 -0.875,-10.5 -0.625,-2 -5.75,-8.75 -3.75,-1.625 -3,-1 -6,-0.125 -13,3 -5,2 -5.5,3.5 -4.5,4.5 -5.5,7.5 -0.5,1.5 -2,2 -0.625,2.5 -0.75,2 -2.125,8 0.25,5 0.75,2 3.5,5.5 1,2 4.5,4.5 4,1 1.5,1.5 v 3 l 1,0.5 m 42,39.25 2,-0.75 2,-1 5.5,-3.5 1.5,-1.5 3,-5 2,-2 2.5,-9.5 0.5,-6.5 -1,-1 1,-1 -1,-1 -0.5,-2.5 -1.125,-3 -3.375,-6.5 -4.5,-4.5 -5.5,-3.5 -1.75,-0.75 -0.5,-1.5 -7.25,-1.25 -1,-1 -1,1 h -2 l -1,-1 -1,1 -4.5,0.625 -3,1 -6,2.875 -1.5,0.5 -5.5,5.5 -2.5,4.5 -1.875,4 -0.875,3 v 13 l 0.875,4 1.875,4 3.75,5.75 1.5,0.5 0.25,1.25 1.5,1.5 1.5,0.5 5,2.875 3,1.125 3,0.75 16,-1 m -10,8.75 -6,-0.625 -7,-2 -4,-1.875 -4.5,-2.5 -6.5,-6.5 -4.375,-8.5 -1.125,-3 -1.125,-4 0.375,-4 -0.75,-4.5 1,-1 -1,-1 1,-1 0.625,-4.5 0.125,-2.75 -3.75,0.375 -5.5,-1.625 -5.5,-5.5 -3.5,-5.5 -0.5,-1.5 -2,-2 -0.375,-12.5 0.875,-4 2.125,-6 1.875,-4 3.5,-5.5 1.25,-2.25 1.5,-0.5 2.25,-4.25 1.5,-1.5 2.5,-1.5 4,-3 3,-2 7,-2.75 5,-1.25 5,-0.875 16.5,0.375 2,2 h 1 l 5.5,5.5 3.5,5.5 0.875,2 2.375,8 0.25,1.5 -1,1 1,1 -0.5,2.5 -1.125,3 0.125,2 0.75,2 v 5 l -0.25,1.5 -2.5,2.5 -4,1 h -0.5 l 0.5,1 3.5,0.625 2,0.875 4.5,2.5 6.5,6.5 4.5,8.5 0.5,1.5 0.5,0.5 1,-1 5.5,-0.625 8,-2.75 11,-2 16,0.125 3,0.75 5,2 2,1 1.5,0.5 4.5,4.5 0.375,1.5 6,15 1.625,6.5 1.5,1.5 h 1 l 2.5,2.5 1,6 -2,2 -1.25,3.25 -1.75,0.75 -4,1.875 h -4 L -26.5,418 -29,415.5 -29.25,414 v -6 l 1.25,-3.5 1.5,-1.5 h 1 l 1.5,-1.5 -0.5,-2.5 -3.125,-9 -2.75,-6 -0.625,-2.5 -3.5,-3.5 -1.5,-0.5 -5,-2.125 -2,-0.5 -16,-0.25 -7,1 -4,1 -2,0.75 -4,1.125 -6,0.625 -0.75,13.875 -1.875,7 -6.375,10.5 -3.5,3.5 h -1 l -3,3 -3.5,1 -1.5,-2 -7,1 -2,2 -4.25,2.25 -0.25,0.75"
     id="path138" />
</g>
<metadata
   id="metadata429">
  <rdf:RDF>
    <cc:Work
       rdf:about="">
      <dc:title>Biortc</dc:title>
    </cc:Work>
  </rdf:RDF>
</metadata>
</svg>
