<?xml version="1.0" encoding="UTF-8" standalone="no"?>
<svg
   width="460"
   height="115.5"
   viewBox="-810 0 460 115.5"
   version="1.2"
   id="svg369"
   sodipodi:docname="singe_cell_sim.svg"
   inkscape:version="1.2.2 (b0a8486541, 2022-12-01)"
   xmlns:inkscape="http://www.inkscape.org/namespaces/inkscape"
   xmlns:sodipodi="http://sodipodi.sourceforge.net/DTD/sodipodi-0.dtd"
   xmlns="http://www.w3.org/2000/svg"
   xmlns:svg="http://www.w3.org/2000/svg"
   xmlns:rdf="http://www.w3.org/1999/02/22-rdf-syntax-ns#"
   xmlns:cc="http://creativecommons.org/ns#"
   xmlns:dc="http://purl.org/dc/elements/1.1/"><defs
   id="defs373" />
<sodipodi:namedview
   id="namedview371"
   pagecolor="#ffffff"
   bordercolor="#666666"
   borderopacity="1.0"
   inkscape:showpageshadow="2"
   inkscape:pageopacity="0.0"
   inkscape:pagecheckerboard="0"
   inkscape:deskcolor="#d1d1d1"
   showgrid="false"
   inkscape:zoom="2.9782609"
   inkscape:cx="222.10949"
   inkscape:cy="58.087591"
   inkscape:window-width="1920"
   inkscape:window-height="1043"
   inkscape:window-x="0"
   inkscape:window-y="0"
   inkscape:window-maximized="1"
   inkscape:current-layer="svg369" />
<title
   id="title329">Biortc</title>

\n<rect
   style="fill:#ffffff;stroke-width:3.77953;stroke-linecap:round;stroke-linejoin:round;stop-color:#000000;fill-opacity:1"
   id="rect452"
   width="460.30167"
   height="115.48004"
   x="-809.66687"
   y="-0.24133211"
   ry="0.29955569" />
<g
   id="g335"
   transform="translate(-558,-282.5)">
  <path
     fill="#c23132"
     fill-rule="evenodd"
     d="m -5,398 h -1 v -1 h 1 v 1"
     id="path333" />
</g>
<g
   id="g339"
   transform="translate(-558,-282.5)">
  <path
     fill="#c23132"
     fill-rule="evenodd"
     d="m -12,396 h -1 v -1 h 1 v 1"
     id="path337" />
</g>
<g
   id="g343"
   transform="translate(-558,-282.5)">
  <path
     fill="#c23132"
     fill-rule="evenodd"
     d="m -23,391 h -1 v -1 h 1 v 1"
     id="path341" />
</g>
<g
   id="g347"
   transform="translate(-558,-282.5)">
  <path
     fill="#c23132"
     fill-rule="evenodd"
     d="m -20,378 v -0.5 l 0.5,-0.5 0.5,1 h -1"
     id="path345" />
</g>
<g
   id="g351"
   transform="translate(-558,-282.5)">
  <path
     fill="#c23132"
     fill-rule="evenodd"
     d="m -30,368 h -1 v -1 h 1 v 1"
     id="path349" />
</g>
<g
   id="g355"
   transform="translate(-558,-282.5)">
  <path
     fill="#c23132"
     fill-rule="evenodd"
     d="m 19,297 h -1 v -1 h 1 v 1"
     id="path353" />
</g>
<g
   id="g359"
   transform="translate(-558,-282.5)">
  <path
     fill="#c23132"
     fill-rule="evenodd"
     d="m -27,292 h -1 v -1 h 1 v 1"
     id="path357" />
</g>
<g
   id="g363"
   transform="translate(-558,-282.5)">
  <path
     fill="#c23132"
     fill-rule="evenodd"
     d="m -31,296 v -1 h -1 v 1 h 1 m 91,28 v -1 h -1 v 1 h 1 m -112,14 0.625,-9 0.875,-4 2.125,-6 4.875,-10 2.75,-4.75 1.25,-0.25 4.5,-4.5 -1,-1 0.5,-0.5 2.25,-0.25 0.25,-2.25 1.5,-1.5 4,-1 3,-3 h 2 l 2,-2 2.5,-0.625 4,-1.75 7,-2 7,-1.125 11,0.125 6,0.875 8,2 3,1.125 1.5,0.375 2,2 2.5,0.625 3,1.875 4,3 2.5,1.5 6.5,6.5 0.25,1.25 1.5,0.5 1.25,2.25 3.5,5.5 2.875,6 1.125,4 0.5,3.5 -1,1 2,2 v 1 l -1,1 0.5,0.5 18,-1 1,1 1,-1 1,1 1,-1 h 5 l 1,1 1,-1 h 3 l 1,1 1,-1 1,1 1,-1 h 2 l 1,1 1,-1 h 17 l 1,1 1,-1 h 2 l 1,1 1,-1 1,1 3.5,-0.5 4,0.125 1.5,0.375 1,-1 1,1 h 1 l 1,-1 1,1 h 15 l 1,-1 1,1 1.5,-0.5 2,-0.25 5.5,0.75 1,-1 1,1 h 2 l 1,-1 1,1 1,-1 1,1 h 3 l 1,-1 1,1 h 3 l 1,-1 1,1 1,-1 3,1 1,-1 1,1 1.5,-0.375 3,-0.25 5.5,0.625 1,-1 1,1 2.25,0.25 0.25,1.25 0.5,0.5 1,-1 0.5,0.5 v 1 l 2,2 -1,4 -1.5,1.5 -1.5,0.375 -3,1.125 -3.5,0.5 -1,-1 -1,1 -1,-1 -3,1 -1,-1 -1,1 -1,-1 -1,1 h -4 l -1,-1 -1,1 h -4 l -1,-1 -1,1 h -28 l -1,-1 -1,1 h -1 l -1,-1 -1,1 h -3 l -1,-1 -1,1 -3.5,-0.5 -3,0.125 -1.5,0.375 -1,-1 -1,1 -1.5,-0.25 -8,-0.375 -1.5,-0.375 -1,1 -1,-1 h -4 l -1,1 -1,-1 h -44 l -1,-1 -0.5,0.5 v 3 l -1,1 1,1 -0.5,0.5 h -1 l -0.5,0.5 1,1 -1,1 1,1 -0.25,1.25 -1.25,0.25 -0.5,0.5 1,1 -1.25,5.25 -1.25,0.25 -0.5,0.5 1,1 -0.5,1.5 -4.5,8.5 -2,3 -1,2 -10.5,10.5 -5.5,3.5 -11,5 -11.5,2.5 -1,-1 -1,1 h -4 l -1,1 -1,-1 h -7 l -1,-1 -1,1 -1,-1 -2.5,-0.5 -3,-1.125 -1.5,-0.375 -1,1 -2,-2 -1,1 -0.5,-0.5 -0.25,-1.25 -3.5,0.5 -0.5,-2.5 -1.75,-0.75 -6.75,-3.75 -0.5,-1.5 -1.75,-0.75 -2,-1 -1.5,-0.5 -0.5,-0.5 1,-1 -0.5,-0.5 -1.25,-0.25 -0.5,-1.5 -1.5,-0.5 -5.75,-8.75 -1,-2 -0.5,-1.5 -2,-2 -0.5,-2.5 -1.875,-6 -1.625,-8 0.25,-3.75 1.25,-0.25 1.5,-1.5 v -1 l -3,-2.5 m 33,40 1,1.5 0.5,0.5 1,-1 3,1 1.5,1.5 0.25,1.25 1.75,-0.25 h 2 l 1.75,0.75 0.5,1.5 2.25,0.25 1,-1 2,2 1,-1 1,1 h 4 l 1,1 1,-1 2.5,-0.5 3,0.125 2.5,-0.625 2,-1 1,1 0.5,-0.5 0.25,-1.25 1.25,-0.25 1,1 1,-1 3,-1 2,-2 4,-1 1.5,-1.5 0.25,-1.25 2.25,-0.25 2.5,-2.5 0.25,-1.25 1.25,-0.25 3.5,-3.5 5.375,-9.5 1.875,-6 1,-5 V 331 L 50.375,327 48.75,322.25 47.5,322 47,321.5 l 1,-1 -2,-2 -1.25,-4.25 -1.25,-0.25 -1.5,-1.5 1,-1 -0.5,-0.5 h -1 L 37,306.5 v -1 L 35.5,304 32.25,302.75 32,301.5 30.5,300 h -2 l -2,-2 -6.5,-2.5 -3,-0.875 -4.5,-0.625 -1,1 -2,-2 h -3 l -1,1 -1,-1 -2.5,0.625 -2,0.875 h -4 l -2,0.875 -7.75,1.875 -0.5,1.5 -1.75,0.75 -2,1 -6.5,4.5 -6.5,6.5 v 1 l -3,3 v 2 l -2,2 -0.625,2.5 -1.75,4 -0.625,3.5 -1,1 1,1 -1,1 -0.75,5.5 v 2 l 1.375,9 2,8 0.875,2 4,7 0.5,1.5 2.5,2.5 h 1 l 1.5,1.5 v 1 l 0.5,0.5 1,-1 0.5,0.5 v 2 l 1.5,1.5 2.25,0.25 0.5,1.5 0.75,0.25 0.5,1 0.5,-1 m 6,4 v -1 h -1 v 1 h 1 m 5,2 v -1 h -1 v 1 h 1 m -11,8 v -1 h -1 v 1 h 1"
     id="path361" />
</g>
<g
   id="g367"
   transform="translate(-558,-282.5)">
  <path
     fill="#000000"
     fill-rule="evenodd"
     d="m -52,347 h -0.5 l -2,2 -2.5,1.5 -33.5,24.5 -2,1 -2,2 -3.25,-0.25 -0.25,-1.25 4.5,-4.5 3,-2 28.5,-21.5 2.5,-1.5 h 0.5 l -0.5,-1 -191,-1 -1.5,-1.5 v -1 l 0.5,-0.5 1,1 1,-1 192.5,-1 -0.5,-1 -1.5,-0.5 -32,-18 -1.5,-0.5 -2.5,-2.5 v -2 l 0.5,-0.5 1,1 1,-1 1.5,0.5 39,21.5 3,2.5 v 1 l -1.5,1.5 -1.25,0.25 L -52,347"
     id="path365" />
</g>
<metadata
   id="metadata492">
  <rdf:RDF>
    <cc:Work
       rdf:about="">
      <dc:title>Biortc</dc:title>
    </cc:Work>
  </rdf:RDF>
</metadata>
<text
   xml:space="preserve"
   style="font-style:normal;font-weight:normal;font-size:40px;line-height:1.25;font-family:sans-serif;fill:#000000;fill-opacity:1;stroke:none"
   x="-800.91986"
   y="47.249947"
   id="text548"><tspan
     sodipodi:role="line"
     id="tspan546"
     x="-800.91986"
     y="47.249947">input</tspan></text>
<text
   xml:space="preserve"
   style="font-style:normal;font-weight:normal;font-size:40px;line-height:1.25;font-family:sans-serif;fill:#b70000;fill-opacity:1;stroke:none"
   x="-462.95523"
   y="41.13401"
   id="text602"><tspan
     sodipodi:role="line"
     id="tspan600"
     x="-462.95523"
     y="41.13401">rate</tspan></text>
</svg>
